<svg xmlns="http://www.w3.org/2000/svg" xmlns:xlink="http://www.w3.org/1999/xlink" width="158.347" height="167.015" viewBox="0 0 158.347 167.015">
  <defs>
    <linearGradient id="linear-gradient" x1="0.396" y1="0.377" x2="2.235" y2="2.655" gradientUnits="objectBoundingBox">
      <stop offset="0" stop-color="#363636"/>
      <stop offset="0.15" stop-color="#8e8a8a"/>
      <stop offset="1" stop-color="#fff"/>
    </linearGradient>
    <linearGradient id="linear-gradient-2" x1="-1.619" y1="-1.753" x2="5.268" y2="5.568" gradientUnits="objectBoundingBox">
      <stop offset="0" stop-color="#363636"/>
      <stop offset="0.433" stop-color="#8d8d8d"/>
      <stop offset="0.439" stop-color="#8e8e8e"/>
      <stop offset="1" stop-color="#fff"/>
    </linearGradient>
    <linearGradient id="linear-gradient-3" x1="-5.661" y1="-6.048" x2="8.407" y2="8.905" gradientUnits="objectBoundingBox">
      <stop offset="0" stop-color="#363636"/>
      <stop offset="1" stop-color="#fff"/>
    </linearGradient>
  </defs>
  <g id="_110" data-name="110" transform="translate(-1280.582 -760.123)">
    <g id="Layer_2" data-name="Layer 2" transform="translate(1280.582 760.123)">
      <g id="Слой_1" data-name="Слой 1" transform="translate(0 0)">
        <path id="Path_1133" data-name="Path 1133" d="M2006.35,1564.206s-.025-2.6,3.544-2.783c4.1-.209,30.748-.393,30.748-.393l-.178,2.769Z" transform="translate(-1894.134 -1437.197)" fill="#d6985e"/>
        <path id="Path_1134" data-name="Path 1134" d="M1892.184,1473.822c-.1-.4-.047-1.023,1.211-1.727s4.062-2.73,5.027-2.783a26.581,26.581,0,0,1,2.819.3c.39-.014,1.141,2.585,1.141,2.585Z" transform="translate(-1797.593 -1359.655)" fill="#eea886"/>
        <path id="Path_1135" data-name="Path 1135" d="M1969.289,1333.1l-8.4,16.508-17.244,4.43,1.67,4.365,18.534-1.316,9.093-15.14Z" transform="translate(-1841.12 -1244.508)" fill="#528a35"/>
        <path id="Path_1136" data-name="Path 1136" d="M1698.162,1766.319s-3.856,1.622-5.578,2.185-8.031-.07-8.731.434-.73,2.412.285,2.746,8.549,2.067,11.177,1.82,7.252,1.405,8.349,1.192,1.2-5.991.966-7.323S1698.162,1766.319,1698.162,1766.319Z" transform="translate(-1621.074 -1610.725)" fill="#202338"/>
        <path id="Path_1137" data-name="Path 1137" d="M1780.047,1751.48l-.888,2.319s4.648,1.546,6.472,1.053l.615-2.364Z" transform="translate(-1702.072 -1598.2)" fill="#292c47"/>
        <path id="Path_1138" data-name="Path 1138" d="M1768.415,1777.7s-3.638,2.067-5.282,2.831-7.983.881-8.618,1.466-.439,2.474.608,2.693,8.734,1.039,11.313.482,7.366.537,8.438.193.482-6.09.093-7.386S1768.415,1777.7,1768.415,1777.7Z" transform="translate(-1680.93 -1620.045)" fill="#292c47"/>
        <path id="Path_1139" data-name="Path 1139" d="M1846.934,1764.21l-.544,2.406s4.793.983,6.551.28l.325-2.415Z" transform="translate(-1758.907 -1608.962)" fill="#3d416b"/>
        <path id="Path_1140" data-name="Path 1140" d="M1823.944,1484s-16.584.136-18.617.405c-2.2.291-10.54.377-11.581,1.855-10.514,14.879-17.676,39.413-17.676,39.413l8.312,1.525s8.04-14.522,11.406-22.065c3.023-6.772,5.609-8.513,11.958-8.363s26.651-1.155,38.359-2.506Z" transform="translate(-1699.46 -1372.077)" fill="#202338"/>
        <path id="Path_1141" data-name="Path 1141" d="M2055.453,1243.176s-1.626,7.137-1.228,11.071,6.676,13.8,6.975,15.987-1.419,6.72-1.419,6.72l21.734,10.063a136.328,136.328,0,0,0-.928-13.761c-.892-7.469-3.711-13.379-4.693-17.6-3.361-14.4-15.658-16.4-15.658-16.4Z" transform="translate(-1934.554 -1165.169)" fill="#cfbeb6"/>
        <path id="Path_1142" data-name="Path 1142" d="M1881.218,1481.83s-17.08.136-19.114.405c-2.2.291-11.029.431-11.875,2.024-6.03,11.344-7.38,41.624-7.38,41.624l7.754.874s3.81-15.367,5-22.687,2.689-8.383,9.037-8.233,31.212,6.771,38.237-3.748Z" transform="translate(-1755.914 -1370.242)" fill="#292c47"/>
        <path id="Path_1143" data-name="Path 1143" d="M1956.155,1137.415s.2,4.376,1.391,4.36c.985-.014,1.348,4.175,1.46,4.836s1.872.121,2.4.266,4.02,3.765,5.35,3.134,5.827-6.016,6.409-8.552-2.513-10.559-5.384-13S1955.833,1129.751,1956.155,1137.415Z" transform="translate(-1851.693 -1070.88)" fill="#eea886"/>
        <path id="Path_1144" data-name="Path 1144" d="M2039,1174.219s.206.351.512.9c.226.4.509.914.806,1.469a22.986,22.986,0,0,1,1.92,4.281c.382,1.753,4.373-8.08,4.373-8.08a86.449,86.449,0,0,1-5.181-11.089C2039.13,1155.636,2039,1174.219,2039,1174.219Z" transform="translate(-1921.736 -1098.581)" fill="#eea886"/>
        <path id="Path_1145" data-name="Path 1145" d="M1942.027,1134.116a5.924,5.924,0,0,1-2.25-7.112c1.715-4.638,10.6-3.647,11.4-3.882s4.793-2.293,6.995,5.721,1.5,6.879,1.5,6.879-2.664-2.783-4.076-2.333c-1.531.495-3.933,1.525-3.933,1.525s-.694-3.8-2.783-3.14S1943.461,1132.324,1942.027,1134.116Z" transform="translate(-1837.492 -1066.651)" fill="#754836"/>
        <path id="Path_1146" data-name="Path 1146" d="M2023.872,1168.726c-.094-.521-.671-2.659,1.546-2.528s1.735,5.1,1.487,5.306S2024.666,1173.12,2023.872,1168.726Z" transform="translate(-1908.831 -1103.407)" fill="#eea886"/>
        <path id="Path_1147" data-name="Path 1147" d="M2042.27,1226.9c.226.4.509.914.806,1.469a32.23,32.23,0,0,0,2.673-6.635C2045.2,1223.31,2042.27,1226.9,2042.27,1226.9Z" transform="translate(-1924.501 -1150.358)" fill="#a77860"/>
        <path id="Path_1148" data-name="Path 1148" d="M2027.292,1247.478s.029-1.458.09-1.9-.886-.145-1.061.374S2027.292,1247.478,2027.292,1247.478Z" transform="translate(-1911.002 -1170.331)" fill="#c98462"/>
        <path id="Path_1149" data-name="Path 1149" d="M1987.085,1245.117a2.827,2.827,0,0,0-.079.948s.172.555.271.957a2.808,2.808,0,0,1,.062.309,5.329,5.329,0,0,0,.309,1.716c.3.719,1.749,3.845,1.749,3.845l2.057-.608,1.617-.547s1.272-4.937,1.082-5.637a1.8,1.8,0,0,0-.065-.2,6.674,6.674,0,0,0-.773-1.206c-.056-.107-.679-1.126-1.031-1.175a1.161,1.161,0,0,0-1.082.332,2.8,2.8,0,0,0-1.51.266,1.732,1.732,0,0,0-1.437.526C1988.244,1244.652,1987.329,1244.633,1987.085,1245.117Z" transform="translate(-1877.763 -1168.767)" fill="#de9d7d"/>
        <path id="Path_1150" data-name="Path 1150" d="M2059.832,1234.89s-2.512,5.86-4.662,7.847l1.014,3.487,4.9-10.668Z" transform="translate(-1935.406 -1161.483)" fill="#eddad3"/>
        <path id="Path_1151" data-name="Path 1151" d="M2091,1472.048s.309-.838.55-1.661,6.683,2.571,6.683,2.571l-1.546,1.794Z" transform="translate(-1965.696 -1360.46)" fill="#323657"/>
        <path id="Path_1152" data-name="Path 1152" d="M2062.184,1256.879c.618,1.257,1.2,2.534,1.755,3.821h0c1.225,2.829,2.319,5.7,3.272,8.518q.515,1.5.98,2.981a156.377,156.377,0,0,1,5.173,21.646s13.84-3.683,15.907-5.508c0,0-3.374-49.013-22.954-49.137h0C2066.2,1239.389,2058.957,1250.277,2062.184,1256.879Z" transform="translate(-1940.635 -1165.127)" fill="#61a23e"/>
        <path id="Path_1153" data-name="Path 1153" d="M2099.23,1358.929q.515,1.5.98,2.981c3.047-4.821,8.42-16.409,8.5-16.59Z" transform="translate(-1972.654 -1254.839)" fill="#375c23"/>
        <path id="Path_1154" data-name="Path 1154" d="M2002.167,1283.046l-5.257,1.743,4.844,25.512a3.043,3.043,0,0,0,5.24,1.362c4.522-5.072,11.69-13.527,14.825-19.5,4.756-9.059-3.181-12.215-5.087-9.931s-10.314,17.673-10.314,17.673Z" transform="translate(-1886.154 -1200.901)" fill="#61a23e"/>
        <path id="Path_1155" data-name="Path 1155" d="M1991.77,1206.06l-8.131,23.848a2.155,2.155,0,0,0-.111.561l-1.95,31.358-34,.758-9.908,36.066a3.788,3.788,0,0,0,.547,3.191,2.743,2.743,0,0,0,1.909,1.257c2.155.264,45.807,0,45.807,0v-1.8a1.645,1.645,0,0,0-1.662-1.628h-40.808a2.206,2.206,0,0,1-1.733-.813,1.43,1.43,0,0,1-.348-1.116c.179-1.149,8.892-30.534,8.892-30.534l32.876-.583a2.8,2.8,0,0,0,2.783-2.656l1.429-33.74a2.67,2.67,0,0,1,.1-.634l6.649-22.8s.7-1.589-.584-1.743A1.429,1.429,0,0,0,1991.77,1206.06Z" transform="translate(-1835.956 -1136.239)" fill="#424240"/>
        <g id="Group_525" data-name="Group 525" transform="translate(35.958)">
          <path id="Path_1177" data-name="Path 1177" d="M1560.363,778.446a9.249,9.249,0,0,0-10.653-9.207,12.014,12.014,0,0,0-23.132-.665c-.179,0-.357-.014-.538-.014a12.893,12.893,0,0,0-2.231,25.592,4.928,4.928,0,0,0,7.545,3.2,12.89,12.89,0,0,0,21.512-9.586v-.179a9.316,9.316,0,0,0,7.5-9.136Z" transform="translate(-1513.148 -760.123)" fill="url(#linear-gradient)"/>
        </g>
        <g id="Group_526" data-name="Group 526" transform="translate(76.872 35.699)">
          <circle id="Ellipse_241" data-name="Ellipse 241" cx="6.307" cy="6.307" r="6.307" fill="url(#linear-gradient-2)"/>
        </g>
        <g id="Group_527" data-name="Group 527" transform="translate(91.208 51.125)">
          <circle id="Ellipse_242" data-name="Ellipse 242" cx="3.088" cy="3.088" r="3.088" fill="url(#linear-gradient-3)"/>
        </g>
        <path id="Path_1178" data-name="Path 1178" d="M1633.793,844.263a5.846,5.846,0,0,1,.407-2.236,3.708,3.708,0,0,1,1.676-1.727q.382-.229.94-.521a7.656,7.656,0,0,0,1.093-.7,4,4,0,0,0,.9-.952,2.2,2.2,0,0,0,.368-1.257,2.079,2.079,0,0,0-.2-.94,2.153,2.153,0,0,0-.533-.687,2.218,2.218,0,0,0-.773-.419,3,3,0,0,0-.9-.139,2.617,2.617,0,0,0-1.016.19,3.462,3.462,0,0,0-.826.482,4.065,4.065,0,0,0-.66.66,7.31,7.31,0,0,0-.495.7l-2.209-1.524a4.921,4.921,0,0,1,.877-1.392,5.36,5.36,0,0,1,1.237-1.03,5.837,5.837,0,0,1,1.512-.635,6.516,6.516,0,0,1,1.676-.217,6.657,6.657,0,0,1,1.9.28,4.838,4.838,0,0,1,1.69.889,4.616,4.616,0,0,1,1.22,1.563,5.092,5.092,0,0,1,.464,2.274,4.912,4.912,0,0,1-.19,1.435,4,4,0,0,1-.546,1.13,4.779,4.779,0,0,1-.838.914,9.532,9.532,0,0,1-1.093.787q-.509.309-1.016.584a6.118,6.118,0,0,0-.928.619,3.025,3.025,0,0,0-.687.787,2.063,2.063,0,0,0-.267,1.082Zm.051,5.92v-3.507h2.82v3.5Z" transform="translate(-1577.293 -820.819)" fill="#fff"/>
        <g id="Group_528" data-name="Group 528" transform="translate(0 15.697)">
          <path id="Path_1199" data-name="Path 1199" d="M1118.262,1188.423s1.95-.028,2.644-.773a9.177,9.177,0,0,1,2.319-1.616c.526-.257,1.981-1.67,2.165-.98s-2.319,2.443-2.792,2.916,2.077.679,2.451,1.138-.928,5.286-2.628,4.912-3.092-2.089-3.414-2.084a8.869,8.869,0,0,1-1.255-.215Z" transform="translate(-1054.641 -1130.562)" fill="#eea886"/>
          <path id="Path_1200" data-name="Path 1200" d="M1150.615,1211s5.074,1.546,5.283,1.99.068.761-.416.638-4.968-1.33-4.968-1.33,5.546,3.032,5.8,3.335c.147.178-.1.812-.366.773s-5.977-2.656-5.977-2.656,5.172,2.842,5.3,3.18c.113.3-.234.84-.635.662s-5.387-2.483-5.387-2.483,3.6,2.359,3.548,2.749c-.034.238-.223.792-1.13.147s-3.233-1.885-3.233-1.885Z" transform="translate(-1080.577 -1152.655)" fill="#eea886"/>
          <path id="Path_1201" data-name="Path 1201" d="M1021.4,1759.146a7.7,7.7,0,0,0,3.912,2.962c2.284.527,4.533,1.364,4.55,2.8s-6.6,2.3-9.217.847c-3.9-2.165-4.3-1.515-4.73-2.6s.52-3.983.492-4.329C1016.373,1758.409,1021.4,1759.146,1021.4,1759.146Z" transform="translate(-968.453 -1615.672)" fill="#353a3d"/>
          <path id="Path_1202" data-name="Path 1202" d="M1024.45,1749.937a10.617,10.617,0,0,1,.254,1.2c-.043.025-5.146.632-4.993-.309.125-.773.309-1.6.309-1.6Z" transform="translate(-971.758 -1607.666)" fill="#81807e"/>
          <path id="Path_1203" data-name="Path 1203" d="M814.31,1757.23a7.168,7.168,0,0,0,3.145,3.123c2.121.849,3.822,1.823,3.784,3.227s-5.184,2.828-8.929.133c-2.366-1.7-3.116-1.712-3.494-2.783s.659-3.865.645-4.195C809.443,1756.319,814.31,1757.23,814.31,1757.23Z" transform="translate(-793.401 -1613.918)" fill="#353a3d"/>
          <path id="Path_1204" data-name="Path 1204" d="M818.335,1747.765a11.645,11.645,0,0,1-.057,1.211c-.043.023-4.976.428-4.85-.495a7.593,7.593,0,0,1,.478-1.62Z" transform="translate(-797.369 -1605.662)" fill="#81807e"/>
          <path id="Path_1205" data-name="Path 1205" d="M826,1262.757s6.475,24.813,8.949,30.549c2.285,5.314,3.038,12.746,3.354,16.48.4,4.7,2.751,22.981,3.027,24.352s-7.619.759-7.619.759-5.444-31.615-7.7-36.228c-1.509-3.078-10.26-25.158-11.262-23.887s-2.243,23.394-2.986,27.066-3.018,32.689-3.018,32.689-5.091.751-6.451-.4c0,0-.618-24.776-.147-31.661.181-2.629-3.074-31.46,1.1-43.068C805.439,1253.268,826,1262.757,826,1262.757Z" transform="translate(-786.952 -1191.83)" fill="#2d3133"/>
          <path id="Path_1206" data-name="Path 1206" d="M728.791,1017.771a14.962,14.962,0,0,0,1.392,3.052c1.251-2.5,2.234-4.557,2.554-5.313,1.055-2.489,6.486-8.195,6.486-8.195a.046.046,0,0,0,0,.012h0v.023l.014.048a.279.279,0,0,1,.008.031v.023c.3,1.1,2.112,7.989,2.179,11.381.074,3.692,1.037,10.526,1.037,10.526h0l1.135.155,2.509.354.3.042.73.1,6.648.937,2.361.332.319.045,1.35.19,3.726.524.949.133h.039l.711.1.983.138h0a6.668,6.668,0,0,0,.813-4.137c-.091-1.826-.309-5.257-.22-8.437v-.21h0a22.7,22.7,0,0,1,.538-4.665,19.332,19.332,0,0,0,.464-2.486l.014-.114c.017-.155.033-.292.046-.435a21.947,21.947,0,0,0,.036-3.986v.008c.068.147.553,1.927,1.189,4.125,1.082,3.711,2.582,8.625,3.225,8.86.928.343,16.054,4.821,19.319,5.28.377.052.6.052.618-.014s.031-.1.045-.155c.4-1.308.942-3.531,1.03-3.89.009-.032.012-.05.012-.05l-.584-.175L774.318,1017,766.8,995.313c-.155-.125-2.01-1.021-3.354-1.661-1.376-.654-3.034-1.617-4.535-2.44-.773-.419-1.49-.8-2.117-1.082l-.1-.043h0l-1.724-.787h0l-.45-.043c-1.444-.138-5.933-.558-7.437-.646-.124-.008-.227-.012-.309-.014s-.121,0-.155,0a18.771,18.771,0,0,0-2.332.8h0l-.139.052-.172.065-.322.124-.668.261-.238.094a50.3,50.3,0,0,0-5.885,2.628c-.438.309-1.8,2.884-3.381,6.061-2.036,6.522-4.615,16.5-4.7,18.965C728.791,1017.7,728.791,1017.735,728.791,1017.771Z" transform="translate(-725.82 -964.638)" fill="#decbc4"/>
          <path id="Path_1207" data-name="Path 1207" d="M836.974,1255.374s.5.6.646,3.136c0,0-20.587-2.4-22.764-3.349,0,0-.085-2.8.377-2.843C815.739,1252.267,836.974,1255.374,836.974,1255.374Z" transform="translate(-798.574 -1187.583)" fill="#495055"/>
          <path id="Path_1208" data-name="Path 1208" d="M844.39,943.792c.063,3.232,6.321,5,6.321,5s2.616-3.281,1.991-3.595c-.246-.124-.345-.618-.376-1.163a11.373,11.373,0,0,1,.036-1.466c.019-.229.036-.376.036-.376s-.894-.943-2.032-2.067c-1.987-1.965-4.719-4.484-4.724-3.48a.9.9,0,0,0,.023.19C846.148,939.088,844.39,943.792,844.39,943.792Z" transform="translate(-823.547 -920.526)" fill="#eea886"/>
          <path id="Path_1209" data-name="Path 1209" d="M839.871,1254.879s-.45,2.834-.489,3.572l-.952-.19s.263-3,.416-3.5Z" transform="translate(-818.508 -1189.649)" fill="#353a3d"/>
          <path id="Path_1210" data-name="Path 1210" d="M941.58,1269.281s.36,2.576.37,3.556l-1.008-.131s-.206-3.216-.322-3.556Z" transform="translate(-904.898 -1201.814)" fill="#353a3d"/>
          <path id="Path_1211" data-name="Path 1211" d="M860,953.5h0c.012.019.278.416.731.985a13.112,13.112,0,0,0,4.793,3.989,11.374,11.374,0,0,1,.036-1.466,3.249,3.249,0,0,0,.618-.074,19.217,19.217,0,0,0-1.361-1.991l-1.262-.374Z" transform="translate(-836.743 -934.969)" fill="#a77860"/>
          <path id="Path_1212" data-name="Path 1212" d="M840.572,878.814c.541,1.177,1.054,2.03,1.2,2.369h0a4.174,4.174,0,0,0,.731.985c1.031,1.11,2.947,2.576,4.832,2.525a3.249,3.249,0,0,0,.618-.074,2.959,2.959,0,0,0,2.154-1.487c3.9-7.641,1.082-13.889,1.082-13.889s-10.668-3.018-12.341.195C837.673,871.689,839.3,876.048,840.572,878.814Z" transform="translate(-818.52 -862.651)" fill="#eea886"/>
          <path id="Path_1213" data-name="Path 1213" d="M842.439,840.236s.991-.054,1.237-1.934-.247-2.37-.247-2.37a44.043,44.043,0,0,0-5.988-2.084c-1.583-.24-5.472-.464-6.384.572,0,0-2.216-.515-2.819,3.164-.957,5.835,3.262,11.5,3.262,11.5s-.036-3.811.8-4.317,1.566.7,1.566.7l1.719.309s-2.611-5.639.521-5.849S840.646,840.563,842.439,840.236Z" transform="translate(-809.772 -833.646)" fill="#252e3b"/>
          <path id="Path_1214" data-name="Path 1214" d="M848.7,891.449c-.164-1.679-3.2-2.319-3-.56s1.7,3.451,2.39,3.392S848.826,892.73,848.7,891.449Z" transform="translate(-824.651 -881.153)" fill="#eea886"/>
          <path id="Path_1215" data-name="Path 1215" d="M730.242,1025.243c1.324,2.523,3.411,6.237,5.472,9.838-.271.507-.536,1.008-.79,1.5a30.138,30.138,0,0,0-1.559,3.485c-.464,1.316-1.122,4.686.127,5.313l6.585,3.635.133-.366c.218-.591.691-1.855,1.347-3.5.022-.053.088-.209.186-.439.131-.309.32-.75.535-1.254l.309-.708.366-.854.523-1.217.8-1.855.066-.144q.322-.7.659-1.391c.346-.719.7-1.433,1.067-2.132l.11-.213.195-.368.122-.223.026-.05.049-.088c1.9-3.473,4.048-6.378,4.733-10.636q.1-.618.189-1.225c.1-.676.19-1.344.274-2,.031-.247.062-.492.091-.734.343-2.842.547-5.373.713-7.137.515-5.494-2.85-11.442-5.433-15.117a40.7,40.7,0,0,0-2.761-3.53l-.014-.014-.139.053-.172.065-.322.124-.668.261-.238.094c-2.5.98-7.769,2.431-8.433,2.905-.382.274-1.237,2.783-2.226,5.948a94.843,94.843,0,0,0-3.3,18.811v.111A14.19,14.19,0,0,0,730.242,1025.243Zm10.007-1.228a11.367,11.367,0,0,1-1.011,4.124l-.046.113c-.422-.9-.82-1.764-1.177-2.563a20.567,20.567,0,0,1-1.69-4.581c-.243-4.349,2.963-9.357,2.963-9.357v.023a.35.35,0,0,0,.014.048.293.293,0,0,1,.008.031v.023c.669,2.6.94,12.145.94,12.145Z" transform="translate(-725.879 -969.063)" fill="#3c4145"/>
          <path id="Path_1216" data-name="Path 1216" d="M736.46,1209.912l-18.772,8.349a2.1,2.1,0,0,1-2.783-1.067l-5.139-11.547a2.1,2.1,0,0,1,1.067-2.783l18.772-8.349a2.1,2.1,0,0,1,2.783,1.067l5.139,11.547a2.1,2.1,0,0,1-1.067,2.783Z" transform="translate(-709.582 -1138.564)" fill="#b3a5a0"/>
          <path id="Path_1217" data-name="Path 1217" d="M909.61,998.609a88.572,88.572,0,0,1,2.019,10.246q.058.369.116.751a.633.633,0,0,0,.014.09c.025.169.051.34.077.515l.009.062c.017.116.036.233.051.353q.065.433.128.883c.509,3.556,1.22,9.622,1.9,15.74h0c.541,4.822,1.775,9.77,2.165,13.464h0a25.479,25.479,0,0,0,.513,2.783c.028.124.057.247.087.374,1.1,4.662,3.247,11.259,3.247,11.259l.618-.577,1.848-1.7a1.5,1.5,0,0,0,.414-1.546c-1.025-3.306-4.507-15-5.146-23.229.309-2.89,1.113-6.768.994-7.326.008.02.015.04.022.06.366,1.02.773,2.129,1.183,3.208h0c1.1,2.9,2.223,5.585,2.692,5.756,1.042.383,19.76,5.906,19.9,5.135q.02-.116.048-.247c.017-.085.036-.176.056-.271.23-1.055.651-2.568.943-3.589l.121-.417c.124-.424.2-.691.2-.691L928,1024.5,920.03,1003.6c-.155-.125-2.2-1.221-3.544-1.863-1.405-.67-3.182-1.5-4.759-2.222-.753-.348-1.463-.674-2.063-.949Z" transform="translate(-878.682 -973.07)" fill="#3c4145"/>
          <path id="Path_1218" data-name="Path 1218" d="M823.712,1001.8l3.043,1.716-1.3,1.327,3.47,18.693c.707-4.382,1.027-8.543,1.266-11.1.8-8.493-7.681-18.073-8.209-18.661-.407.155-.847.325-1.3.5Z" transform="translate(-803.502 -969.021)" fill="#51565c"/>
          <path id="Path_1219" data-name="Path 1219" d="M909.3,998.29a98.505,98.505,0,0,1,2.463,12.988c.509,3.556,1.221,9.622,1.906,15.74l.708-17.507-1.45-1.571,1.289-1.611-2.758-7.041c-.753-.348-1.463-.674-2.063-.949Z" transform="translate(-878.42 -972.833)" fill="#51565c"/>
          <path id="Path_1220" data-name="Path 1220" d="M828,985.68l2.54-1.56s.071,1.392,6.321,5l-1.775,5Z" transform="translate(-809.691 -960.854)" fill="#f5e2d9"/>
          <path id="Path_1221" data-name="Path 1221" d="M886.912,988.63a11.779,11.779,0,0,1-1.662,4.3l3.463,4.515.252-7.323Z" transform="translate(-858.089 -964.667)" fill="#f5e2d9"/>
          <path id="Path_1222" data-name="Path 1222" d="M882.574,1016.45s-.671,2.686-.43,3.437a3.28,3.28,0,0,0,2.537-.134A11.7,11.7,0,0,0,882.574,1016.45Z" transform="translate(-855.419 -988.185)" fill="#4754cc"/>
          <path id="Path_1223" data-name="Path 1223" d="M905.892,1224.191c.376-1.894.019-7.576,0-7.811l-.322.02c0,.059.371,5.875,0,7.731Z" transform="translate(-875.267 -1157.203)" fill="#ad9f99"/>
          <path id="Path_1224" data-name="Path 1224" d="M890.278,1261.25s3.029.362,4.031.618l-.131,3.4-3.967-.424Z" transform="translate(-862.282 -1195.135)" fill="#69737a"/>
          <path id="Path_1225" data-name="Path 1225" d="M885.742,1034.187a47.678,47.678,0,0,1,2.828,18.082c-.572,9.9-1.509,13.492-1.509,13.492l-2.083,2.612-.918-3.211s2.8-12.624.991-24.907c-.328-2.227-.813-6.444-.813-6.444Z" transform="translate(-857.083 -1002.861)" fill="#4754cc"/>
          <path id="Path_1226" data-name="Path 1226" d="M811.294,1296.785s.725,1.45,1.45,1.692a6.269,6.269,0,0,1,1.783,1.419l-5.1,2.689a13.968,13.968,0,0,1-1.419-4.349C807.945,1296.544,811.294,1296.785,811.294,1296.785Z" transform="translate(-792.787 -1225.166)" fill="#eea886"/>
          <path id="Path_1227" data-name="Path 1227" d="M810.117,1297.73l.339.68s-3.247,2.372-4.116,2.522l-.3-.906Z" transform="translate(-791.126 -1225.975)" fill="#decbc4"/>
          <path id="Path_1228" data-name="Path 1228" d="M759.936,1208.563a24.781,24.781,0,0,1-4.484,2.938l-9.172-16.08,5.854-3.2S759.775,1207.355,759.936,1208.563Z" transform="translate(-740.606 -1136.779)" fill="#3c4145"/>
          <path id="Path_1229" data-name="Path 1229" d="M963.293,1082.881c.113,2.291.1,4.329.1,4.329h0c0,.011,0,.073.008.175l.014-.115c.366,1.021.773,2.129,1.183,3.208a34.436,34.436,0,0,0,.091-3.5c-.164-6.424-2.185-9.793-2.185-9.793A21.743,21.743,0,0,1,963.293,1082.881Z" transform="translate(-923.395 -1039.534)" fill="#2d3133"/>
        </g>
      </g>
    </g>
  </g>
</svg>
