<svg id="college0" xmlns="http://www.w3.org/2000/svg" width="130.411" height="148.977" viewBox="0 0 130.411 148.977">
  <g id="Layer_2" data-name="Layer 2" transform="translate(0 0)">
    <g id="OBJECTS">
      <path id="Path_2530" data-name="Path 2530" d="M124.21,2.36v8.088h6.9L128.762,6.4l2.351-4.044Z" transform="translate(-49.906 -0.948)" fill="#f0471b"/>
      <rect id="Rectangle_742" data-name="Rectangle 742" width="11.456" height="8.088" transform="translate(65.463 0.676)" fill="#ff5324"/>
      <path id="Path_2531" data-name="Path 2531" d="M109.114,24.778a.353.353,0,0,1-.347.347h0a.353.353,0,0,1-.347-.353V.353A.353.353,0,0,1,108.767,0h0a.353.353,0,0,1,.347.353Z" transform="translate(-43.562 0)" fill="#d4c09e"/>
      <path id="Path_2532" data-name="Path 2532" d="M71.863,21.81,16.57,50.01H127.156Z" transform="translate(-6.658 -8.763)" fill="#fbf1e0"/>
      <path id="Path_2533" data-name="Path 2533" d="M81.711,29.4,41.08,49.62h81.261Z" transform="translate(-16.505 -11.812)" fill="#d4c09e"/>
      <path id="Path_2534" data-name="Path 2534" d="M20.44,73.042,16.57,68.95H127.156l-3.87,4.092Z" transform="translate(-6.658 -27.703)" fill="#d4c09e"/>
      <path id="Path_2535" data-name="Path 2535" d="M55.2,78.679l1.819-2.889H44.96l1.819,2.889Z" transform="translate(-18.064 -30.451)" fill="#fbf1e0"/>
      <path id="Path_2536" data-name="Path 2536" d="M55.2,86.42l1.819,43.065H44.96L46.779,86.42Z" transform="translate(-18.064 -34.722)" fill="#fbf1e0"/>
      <path id="Path_2537" data-name="Path 2537" d="M55,86.42l1.633,43.065H46.88L48.513,86.42Z" transform="translate(-18.836 -34.722)" fill="#d4c09e" opacity="0.6"/>
      <path id="Path_2538" data-name="Path 2538" d="M54.773,86.42l1.573,43.065H48.36L49.933,86.42Z" transform="translate(-19.43 -34.722)" fill="#fbf1e0"/>
      <path id="Path_2539" data-name="Path 2539" d="M54.877,86.42l.939,43.065H51.03l.945-43.065Z" transform="translate(-20.503 -34.722)" fill="#d4c09e" opacity="0.6"/>
      <path id="Path_2540" data-name="Path 2540" d="M54.95,86.42l.514,43.065H52.85l.514-43.065Z" transform="translate(-21.234 -34.722)" fill="#fbf1e0"/>
      <rect id="Rectangle_743" data-name="Rectangle 743" width="10.798" height="3.47" transform="translate(27.524 48.228)" fill="#d4c09e"/>
      <rect id="Rectangle_744" data-name="Rectangle 744" width="9.081" height="1.729" transform="translate(28.385 49.101)" fill="#fbf1e0"/>
      <rect id="Rectangle_745" data-name="Rectangle 745" width="16.636" height="1.627" transform="translate(24.605 94.763)" fill="#d4c09e"/>
      <rect id="Rectangle_746" data-name="Rectangle 746" width="16.636" height="1.627" transform="translate(24.605 99.124)" fill="#d4c09e"/>
      <rect id="Rectangle_747" data-name="Rectangle 747" width="14.991" height="2.734" transform="translate(25.43 96.39)" fill="#f7e5c6"/>
      <rect id="Rectangle_748" data-name="Rectangle 748" width="14.991" height="11.689" transform="translate(25.43 100.751)" fill="#f7e5c6"/>
      <path id="Path_2541" data-name="Path 2541" d="M163.129,78.679l1.819-2.889H152.9l1.813,2.889Z" transform="translate(-61.433 -30.451)" fill="#f7e5c6"/>
      <path id="Path_2542" data-name="Path 2542" d="M163.129,86.42l1.819,43.065H152.9l1.813-43.065Z" transform="translate(-61.433 -34.722)" fill="#f7e5c6"/>
      <path id="Path_2543" data-name="Path 2543" d="M162.934,86.42l1.633,43.065H154.81l1.633-43.065Z" transform="translate(-62.2 -34.722)" fill="#d4c09e" opacity="0.6"/>
      <path id="Path_2544" data-name="Path 2544" d="M162.7,86.42l1.573,43.065H156.29l1.573-43.065Z" transform="translate(-62.795 -34.722)" fill="#f7e5c6"/>
      <path id="Path_2545" data-name="Path 2545" d="M162.811,86.42l.945,43.065H158.97l.939-43.065Z" transform="translate(-63.872 -34.722)" fill="#d4c09e" opacity="0.6"/>
      <path id="Path_2546" data-name="Path 2546" d="M162.88,86.42l.514,43.065H160.78l.514-43.065Z" transform="translate(-64.599 -34.722)" fill="#f7e5c6"/>
      <rect id="Rectangle_749" data-name="Rectangle 749" width="10.798" height="3.47" transform="translate(92.089 48.228)" fill="#d4c09e"/>
      <rect id="Rectangle_750" data-name="Rectangle 750" width="9.081" height="1.729" transform="translate(92.951 49.101)" fill="#f7e5c6"/>
      <rect id="Rectangle_751" data-name="Rectangle 751" width="16.636" height="1.627" transform="translate(89.17 94.763)" fill="#d4c09e"/>
      <rect id="Rectangle_752" data-name="Rectangle 752" width="16.636" height="1.627" transform="translate(89.17 99.124)" fill="#d4c09e"/>
      <rect id="Rectangle_753" data-name="Rectangle 753" width="14.991" height="2.734" transform="translate(89.995 96.39)" fill="#f7e5c6"/>
      <rect id="Rectangle_754" data-name="Rectangle 754" width="14.991" height="11.689" transform="translate(89.995 100.751)" fill="#f7e5c6"/>
      <rect id="Rectangle_755" data-name="Rectangle 755" width="102.528" height="3.434" transform="translate(13.944 112.44)" fill="#d4c09e"/>
      <rect id="Rectangle_756" data-name="Rectangle 756" width="119.529" height="14.902" transform="translate(5.444 115.874)" fill="#f7e5c6"/>
      <rect id="Rectangle_757" data-name="Rectangle 757" width="122.616" height="10.086" transform="translate(3.894 118.279)" fill="#e8d4b5"/>
      <rect id="Rectangle_758" data-name="Rectangle 758" width="130.411" height="2.788" transform="translate(0 130.776)" fill="#d4c09e"/>
      <g id="Group_535" data-name="Group 535" transform="translate(59.63 23.815)" opacity="0.08">
        <path id="Path_2547" data-name="Path 2547" d="M99.68,39.81h5.51v2.6h-.879v7.777H107.4V42.412h-.879v-2.6h5.51v2.6h-1.543v8.321l-2.471,2.082h-4.319l-2.471-2.082V42.406H99.68Z" transform="translate(-99.68 -39.81)"/>
      </g>
      <path id="Path_2548" data-name="Path 2548" d="M98.68,38.81h5.51v2.6h-.879v7.777H106.4V41.412h-.879v-2.6h5.51v2.6h-1.543v8.321l-2.471,2.082h-4.319l-2.471-2.082V41.406H98.68Z" transform="translate(-39.648 -15.593)" fill="#f7e5c6"/>
      <g id="Group_536" data-name="Group 536" transform="translate(55.209 29.665)" opacity="0.08">
        <path id="Path_2549" data-name="Path 2549" d="M94.234,49.59l.461,1.43,1.484-.006-1.2.879.461,1.43-1.2-.885-1.2.885.467-1.43-1.208-.879,1.49.006Z" transform="translate(-92.29 -49.59)"/>
      </g>
      <path id="Path_2550" data-name="Path 2550" d="M93.234,48.59l.461,1.43,1.484-.006-1.2.879.461,1.43-1.2-.885-1.2.885.467-1.43-1.208-.879,1.49.006Z" transform="translate(-36.679 -19.523)" fill="#f7e5c6"/>
      <g id="Group_537" data-name="Group 537" transform="translate(43.724 29.665)" opacity="0.08">
        <path id="Path_2551" data-name="Path 2551" d="M75.034,49.59l.461,1.43,1.484-.006-1.2.879.461,1.43-1.2-.885-1.2.885.467-1.43-1.208-.879,1.49.006Z" transform="translate(-73.09 -49.59)"/>
      </g>
      <path id="Path_2552" data-name="Path 2552" d="M74.034,48.59l.461,1.43,1.484-.006-1.2.879.461,1.43-1.2-.885-1.2.885.467-1.43-1.208-.879,1.49.006Z" transform="translate(-28.965 -19.523)" fill="#f7e5c6"/>
      <g id="Group_538" data-name="Group 538" transform="translate(49.466 29.665)" opacity="0.08">
        <path id="Path_2553" data-name="Path 2553" d="M84.634,49.59l.461,1.43,1.484-.006-1.2.879.461,1.43-1.2-.885-1.2.885.461-1.43-1.2-.879,1.49.006Z" transform="translate(-82.69 -49.59)"/>
      </g>
      <path id="Path_2554" data-name="Path 2554" d="M83.634,48.59l.461,1.43,1.484-.006-1.2.879.461,1.43-1.2-.885-1.2.885.461-1.43-1.2-.879,1.49.006Z" transform="translate(-32.822 -19.523)" fill="#f7e5c6"/>
      <g id="Group_539" data-name="Group 539" transform="translate(83.995 29.665)" opacity="0.08">
        <path id="Path_2555" data-name="Path 2555" d="M142.354,49.59l.455,1.43,1.49-.006-1.2.879.461,1.43-1.2-.885-1.2.885.461-1.43-1.2-.879,1.484.006Z" transform="translate(-140.41 -49.59)"/>
      </g>
      <path id="Path_2556" data-name="Path 2556" d="M141.354,48.59l.455,1.43,1.49-.006-1.2.879.461,1.43-1.2-.885-1.2.885.461-1.43-1.2-.879,1.484.006Z" transform="translate(-56.013 -19.523)" fill="#f7e5c6"/>
      <g id="Group_540" data-name="Group 540" transform="translate(72.51 29.665)" opacity="0.08">
        <path id="Path_2557" data-name="Path 2557" d="M123.154,49.59l.455,1.43,1.49-.006-1.208.879.467,1.43-1.2-.885-1.2.885.461-1.43-1.2-.879,1.484.006Z" transform="translate(-121.21 -49.59)"/>
      </g>
      <path id="Path_2558" data-name="Path 2558" d="M122.154,48.59l.455,1.43,1.49-.006-1.208.879.467,1.43-1.2-.885-1.2.885.461-1.43-1.2-.879,1.484.006Z" transform="translate(-48.299 -19.523)" fill="#f7e5c6"/>
      <g id="Group_541" data-name="Group 541" transform="translate(78.252 29.665)" opacity="0.08">
        <path id="Path_2559" data-name="Path 2559" d="M132.754,49.59l.455,1.43,1.49-.006-1.208.879.467,1.43-1.2-.885-1.2.885.461-1.43-1.2-.879,1.484.006Z" transform="translate(-130.81 -49.59)"/>
      </g>
      <path id="Path_2560" data-name="Path 2560" d="M131.754,48.59l.455,1.43,1.49-.006-1.208.879.467,1.43-1.2-.885-1.2.885.461-1.43-1.2-.879,1.484.006Z" transform="translate(-52.156 -19.523)" fill="#f7e5c6"/>
      <rect id="Rectangle_759" data-name="Rectangle 759" width="30.934" height="0.778" transform="translate(72.151 34.679)" fill="#fbf1e0"/>
      <rect id="Rectangle_760" data-name="Rectangle 760" width="17.414" height="0.778" transform="translate(72.151 26.974)" fill="#fbf1e0"/>
      <rect id="Rectangle_761" data-name="Rectangle 761" width="30.934" height="0.778" transform="translate(27.326 34.679)" fill="#fbf1e0"/>
      <rect id="Rectangle_762" data-name="Rectangle 762" width="17.414" height="0.778" transform="translate(40.846 26.974)" fill="#fbf1e0"/>
      <g id="Group_542" data-name="Group 542" transform="translate(79.551 45.339)" opacity="0.6">
        <path id="Path_2561" data-name="Path 2561" d="M142.98,78.679l1.286-2.889H135.7l1.292,2.889Z" transform="translate(-134.073 -75.79)" fill="#f7e5c6"/>
        <path id="Path_2562" data-name="Path 2562" d="M142.98,86.42l1.286,43.065H135.7l1.292-43.065Z" transform="translate(-134.073 -80.061)" fill="#f7e5c6"/>
        <path id="Path_2563" data-name="Path 2563" d="M142.839,86.42,144,129.485H137.06l1.167-43.065Z" transform="translate(-134.619 -80.061)" fill="#d4c09e" opacity="0.6"/>
        <path id="Path_2564" data-name="Path 2564" d="M142.678,86.42l1.119,43.065H138.12l1.119-43.065Z" transform="translate(-135.045 -80.061)" fill="#f7e5c6"/>
        <path id="Path_2565" data-name="Path 2565" d="M142.754,86.42l.67,43.065h-3.4l.67-43.065Z" transform="translate(-135.809 -80.061)" fill="#d4c09e" opacity="0.6"/>
        <path id="Path_2566" data-name="Path 2566" d="M142.8,86.42l.371,43.065h-1.86l.365-43.065Z" transform="translate(-136.327 -80.061)" fill="#f7e5c6"/>
        <rect id="Rectangle_763" data-name="Rectangle 763" width="7.675" height="3.47" transform="translate(2.076 2.889)" fill="#d4c09e"/>
        <rect id="Rectangle_764" data-name="Rectangle 764" width="6.455" height="1.729" transform="translate(2.686 3.763)" fill="#f7e5c6"/>
        <rect id="Rectangle_765" data-name="Rectangle 765" width="11.827" height="1.627" transform="translate(0 49.425)" fill="#d4c09e"/>
        <rect id="Rectangle_766" data-name="Rectangle 766" width="11.827" height="1.627" transform="translate(0 53.785)" fill="#d4c09e"/>
        <rect id="Rectangle_767" data-name="Rectangle 767" width="10.654" height="2.734" transform="translate(0.58 51.052)" fill="#f7e5c6"/>
        <rect id="Rectangle_768" data-name="Rectangle 768" width="10.654" height="11.689" transform="translate(0.58 55.413)" fill="#f7e5c6"/>
      </g>
      <g id="Group_543" data-name="Group 543" transform="translate(39.034 45.339)" opacity="0.6">
        <path id="Path_2567" data-name="Path 2567" d="M75.254,78.679l1.292-2.889H67.98l1.292,2.889Z" transform="translate(-66.347 -75.79)" fill="#f7e5c6"/>
        <path id="Path_2568" data-name="Path 2568" d="M75.254,86.42l1.292,43.065H67.98L69.272,86.42Z" transform="translate(-66.347 -80.061)" fill="#f7e5c6"/>
        <path id="Path_2569" data-name="Path 2569" d="M75.113,86.42l1.167,43.065H69.34L70.5,86.42Z" transform="translate(-66.893 -80.061)" fill="#d4c09e" opacity="0.6"/>
        <path id="Path_2570" data-name="Path 2570" d="M74.948,86.42l1.119,43.065H70.39L71.509,86.42Z" transform="translate(-67.315 -80.061)" fill="#f7e5c6"/>
        <path id="Path_2571" data-name="Path 2571" d="M75.024,86.42l.67,43.065h-3.4l.676-43.065Z" transform="translate(-68.079 -80.061)" fill="#d4c09e" opacity="0.6"/>
        <path id="Path_2572" data-name="Path 2572" d="M75.076,86.42l.365,43.065H73.58l.371-43.065Z" transform="translate(-68.597 -80.061)" fill="#f7e5c6"/>
        <rect id="Rectangle_769" data-name="Rectangle 769" width="7.675" height="3.47" transform="translate(2.076 2.889)" fill="#d4c09e"/>
        <rect id="Rectangle_770" data-name="Rectangle 770" width="6.455" height="1.729" transform="translate(2.686 3.763)" fill="#f7e5c6"/>
        <rect id="Rectangle_771" data-name="Rectangle 771" width="11.827" height="1.627" transform="translate(0 49.425)" fill="#d4c09e"/>
        <rect id="Rectangle_772" data-name="Rectangle 772" width="11.827" height="1.627" transform="translate(0 53.785)" fill="#d4c09e"/>
        <rect id="Rectangle_773" data-name="Rectangle 773" width="10.654" height="2.734" transform="translate(0.586 51.052)" fill="#f7e5c6"/>
        <rect id="Rectangle_774" data-name="Rectangle 774" width="10.654" height="11.689" transform="translate(0.586 55.413)" fill="#f7e5c6"/>
      </g>
      <path id="Path_2573" data-name="Path 2573" d="M110.131,94.71H79.173a4.881,4.881,0,0,0-4.863,4.905h40.679A4.881,4.881,0,0,0,110.131,94.71Z" transform="translate(-29.857 -38.053)" fill="#b8d3db"/>
      <path id="Path_2574" data-name="Path 2574" d="M104.2,94.71H66.193a4.881,4.881,0,0,0-4.863,4.905v45.979S64.6,150.5,67.312,150.5H94.83a4.881,4.881,0,0,0,4.864-4.905h0V99.609a4.881,4.881,0,0,1,4.684-4.893Z" transform="translate(-24.641 -38.053)" fill="#fff"/>
      <path id="Path_2575" data-name="Path 2575" d="M82.8,179.76H44.62a4.881,4.881,0,0,0,4.863,4.905H87.572A4.881,4.881,0,0,1,82.8,179.76Z" transform="translate(-17.928 -72.225)" fill="#b8d3db"/>
      <path id="Path_2576" data-name="Path 2576" d="M76.06,114.338h1.3a1.2,1.2,0,0,1,.927.335,1.406,1.406,0,0,1,.305.975v2.674a1.406,1.406,0,0,1-.305.975,1.2,1.2,0,0,1-.927.335h-1.3Zm.826.76v3.787h.467a.413.413,0,0,0,.305-.114.562.562,0,0,0,.114-.4v-2.758a.562.562,0,0,0-.114-.4.413.413,0,0,0-.305-.114Z" transform="translate(-30.56 -45.938)" fill="#ff9563"/>
      <path id="Path_2577" data-name="Path 2577" d="M81.5,114.34h.826v5.3H81.5Z" transform="translate(-32.745 -45.94)" fill="#ff9563"/>
      <path id="Path_2578" data-name="Path 2578" d="M85.414,114.338a1.2,1.2,0,0,1,.927.335,1.406,1.406,0,0,1,.305.975v.688a1.406,1.406,0,0,1-.305.975,1.2,1.2,0,0,1-.927.335h-.389v1.992H84.2v-5.3Zm-.389.76v1.795h.389a.4.4,0,0,0,.3-.108.562.562,0,0,0,.108-.395v-.8a.562.562,0,0,0-.108-.395.407.407,0,0,0-.3-.108Z" transform="translate(-33.83 -45.938)" fill="#ff9563"/>
      <path id="Path_2579" data-name="Path 2579" d="M89.3,114.34h.826v4.546h1.388v.76H89.3Z" transform="translate(-35.879 -45.94)" fill="#ff9563"/>
      <path id="Path_2580" data-name="Path 2580" d="M93.758,115.566a1.394,1.394,0,0,1,.323-.987,1.43,1.43,0,0,1,1.86,0,1.394,1.394,0,0,1,.323.987v2.758a1.394,1.394,0,0,1-.323.987,1.43,1.43,0,0,1-1.86,0,1.394,1.394,0,0,1-.323-.987Zm.826,2.812a.6.6,0,0,0,.114.407.473.473,0,0,0,.6,0,.6.6,0,0,0,.114-.407v-2.865a.6.6,0,0,0-.114-.407.473.473,0,0,0-.6,0,.6.6,0,0,0-.114.407Z" transform="translate(-37.669 -45.898)" fill="#ff9563"/>
      <path id="Path_2581" data-name="Path 2581" d="M100.891,118.1l.562-3.763H102.6v5.3h-.784v-3.8l-.6,3.8h-.784l-.6-3.751v3.751H99.12v-5.3h1.149Z" transform="translate(-39.825 -45.94)" fill="#ff9563"/>
      <path id="Path_2582" data-name="Path 2582" d="M108.789,119.64h-.832l-.144-.963H106.8l-.144.963H105.9l.843-5.3h1.2Zm-1.884-1.681h.8l-.4-2.68Z" transform="translate(-42.549 -45.94)" fill="#ff9563"/>
      <path id="Path_2583" data-name="Path 2583" d="M98.069,131.293a.293.293,0,0,1-.293.293H69.8a.293.293,0,0,1-.293-.293h0A.293.293,0,0,1,69.8,131H97.788a.293.293,0,0,1,.293.293Z" transform="translate(-27.928 -52.634)" fill="#b8d3db"/>
      <path id="Path_2584" data-name="Path 2584" d="M96.855,136.913a.293.293,0,0,1-.293.293H75.923a.293.293,0,0,1-.293-.293h0a.293.293,0,0,1,.293-.293H96.562A.293.293,0,0,1,96.855,136.913Z" transform="translate(-30.387 -54.892)" fill="#b8d3db"/>
      <path id="Path_2585" data-name="Path 2585" d="M96.855,139.583a.293.293,0,0,1-.293.293H75.923a.293.293,0,0,1-.293-.293h0a.293.293,0,0,1,.293-.293H96.562A.293.293,0,0,1,96.855,139.583Z" transform="translate(-30.387 -55.965)" fill="#b8d3db"/>
      <path id="Path_2586" data-name="Path 2586" d="M97.291,133.8A.293.293,0,0,1,97,134.1H73.7a.293.293,0,0,1-.293-.293h0a.293.293,0,0,1,.293-.293H97a.293.293,0,0,1,.293.293Z" transform="translate(-29.495 -53.642)" fill="#b8d3db"/>
      <path id="Path_2587" data-name="Path 2587" d="M98.418,153.317a.377.377,0,0,1-.377.377H68.047a.377.377,0,0,1-.377-.377h0a.377.377,0,0,1,.377-.377h30a.377.377,0,0,1,.377.377Z" transform="translate(-27.189 -61.449)" fill="#b8d3db"/>
      <path id="Path_2588" data-name="Path 2588" d="M98.418,149.747a.377.377,0,0,1-.377.377H68.047a.377.377,0,0,1-.377-.377h0a.377.377,0,0,1,.377-.377h30a.377.377,0,0,1,.377.377Z" transform="translate(-27.189 -60.015)" fill="#b8d3db"/>
      <path id="Path_2589" data-name="Path 2589" d="M95.024,164.372c0,.365-.724.64-.8.975s.449.915.3,1.232-.921.251-1.143.526,0,1.017-.257,1.238-.939-.173-1.256,0-.419.921-.766,1-.76-.6-1.119-.6-.784.646-1.119.6-.455-.849-.766-1-.981.239-1.256,0-.042-.963-.257-1.238-.987-.209-1.143-.526.377-.879.3-1.232-.8-.6-.8-.975.724-.64.8-.975-.449-.915-.3-1.232.921-.251,1.143-.526,0-1.017.257-1.238.939.173,1.256,0,.419-.921.766-1,.76.6,1.119.6.784-.646,1.119-.6.455.849.766,1,.981-.239,1.256,0,.042.963.257,1.238.987.209,1.143.526-.377.879-.3,1.232S95.024,164.007,95.024,164.372Z" transform="translate(-34.132 -64.04)" fill="#fcac00"/>
      <ellipse id="Ellipse_311" data-name="Ellipse 311" cx="3.745" cy="3.775" rx="3.745" ry="3.775" transform="translate(52.11 96.558)" fill="#fd0"/>
      <path id="Path_2590" data-name="Path 2590" d="M91.6,163.2l.718,1.8,1.92.132-1.478,1.244.467,1.884L91.6,167.226l-1.627,1.035.467-1.884-1.478-1.244L90.88,165Z" transform="translate(-35.743 -65.571)" fill="#fcac00"/>
      <path id="Path_2591" data-name="Path 2591" d="M138.7,161.226V159.76H107.951l-.215.215a5.982,5.982,0,0,0,0,7.561l.215.215H138.7v-1.466h-1.292a.776.776,0,0,0-.066-.185,7.556,7.556,0,0,1-.3-2.345,6.88,6.88,0,0,1,.365-2.524Z" transform="translate(-42.746 -64.189)" fill="#68e8e8"/>
      <path id="Path_2592" data-name="Path 2592" d="M108.719,163.746a5.533,5.533,0,0,1,1.346-3.781l.215-.215h-.909l-.215.215a5.982,5.982,0,0,0,0,7.561l.215.215h.909l-.215-.215A5.533,5.533,0,0,1,108.719,163.746Z" transform="translate(-43.316 -64.185)" fill="#58e0e0"/>
      <path id="Path_2593" data-name="Path 2593" d="M114.949,163.746a5.534,5.534,0,0,1,1.346-3.781l.215-.215H115.6l-.215.215a5.982,5.982,0,0,0,0,7.561l.215.215h.909l-.215-.215a5.534,5.534,0,0,1-1.346-3.781Z" transform="translate(-45.819 -64.185)" fill="#58e0e0"/>
      <path id="Path_2594" data-name="Path 2594" d="M140.78,175.32H103.194a4.648,4.648,0,0,0,0,6.233H140.75a5.851,5.851,0,0,1-.556-3.117C140.194,176.1,140.78,175.32,140.78,175.32Z" transform="translate(-40.98 -70.441)" fill="#fff"/>
      <path id="Path_2595" data-name="Path 2595" d="M102,180.53a4.355,4.355,0,0,0,1.2,3.117h37.556a5.851,5.851,0,0,1-.556-3.117Z" transform="translate(-40.981 -72.534)" fill="#b8d3db" opacity="0.6"/>
      <path id="Path_2596" data-name="Path 2596" d="M141.236,182.029h-39.6l-.239-.239a6.658,6.658,0,0,1,0-8.411l.239-.239h39.6v1.633H102.352a5.175,5.175,0,0,0,0,5.623h38.884Z" transform="translate(-40.138 -69.565)" fill="#ff9563"/>
      <path id="Path_2597" data-name="Path 2597" d="M137.511,148.75h-32.7a4.044,4.044,0,0,0,0,5.432h32.7a7.808,7.808,0,0,1,.006-5.432Z" transform="translate(-41.689 -59.766)" fill="#fff"/>
      <path id="Path_2598" data-name="Path 2598" d="M103.769,153.29a3.793,3.793,0,0,0,1.047,2.716h32.7a5.094,5.094,0,0,1-.485-2.716Z" transform="translate(-41.692 -61.59)" fill="#b8d3db" opacity="0.6"/>
      <path id="Path_2599" data-name="Path 2599" d="M137.88,154.569H103.4l-.2-.2a5.8,5.8,0,0,1,0-7.322l.2-.2H137.88v1.418H104.021a4.511,4.511,0,0,0,0,4.893H137.88Z" transform="translate(-40.939 -58.998)" fill="#92c25e"/>
      <path id="Path_2600" data-name="Path 2600" d="M149.843,161.75H120.907a4.187,4.187,0,0,0,0,5.605h28.936a8.067,8.067,0,0,1,0-5.605Z" transform="translate(-48.146 -64.989)" fill="#fff"/>
      <path id="Path_2601" data-name="Path 2601" d="M119.829,166.43a3.918,3.918,0,0,0,1.083,2.806h28.93a5.252,5.252,0,0,1-.5-2.806Z" transform="translate(-48.145 -66.869)" fill="#b8d3db" opacity="0.6"/>
      <path id="Path_2602" data-name="Path 2602" d="M150.211,167.742h-30.76l-.215-.215a5.982,5.982,0,0,1,0-7.561l.215-.215h30.76v1.466h-30.12a4.654,4.654,0,0,0,0,5.055h30.114Z" transform="translate(-47.366 -64.185)" fill="#8ff0f0"/>
      <path id="Path_2603" data-name="Path 2603" d="M147.835,153.29H144.76V158.4l1.537-.742,1.537.742Z" transform="translate(-58.162 -61.59)" fill="#f20"/>
      <rect id="Rectangle_775" data-name="Rectangle 775" width="0.461" height="3.476" transform="translate(60.031 78.797)" fill="#ffd23e"/>
      <path id="Path_2604" data-name="Path 2604" d="M101.192,143.277V139a.9.9,0,0,0-.9-.909h-1a.9.9,0,0,0-.9.909v4.277Z" transform="translate(-39.528 -55.483)" fill="#ffd23e"/>
      <ellipse id="Ellipse_312" data-name="Ellipse 312" cx="0.544" cy="0.55" rx="0.544" ry="0.55" transform="translate(59.714 81.722)" fill="#ffe899"/>
      <path id="Path_2605" data-name="Path 2605" d="M99.24,144.3V140.71a.075.075,0,1,0-.15,0V144.3Z" transform="translate(-39.813 -56.505)" fill="#e8bc2c"/>
      <path id="Path_2606" data-name="Path 2606" d="M100.25,144.3V140.71a.075.075,0,1,0-.15,0V144.3Z" transform="translate(-40.219 -56.505)" fill="#e8bc2c"/>
      <path id="Path_2607" data-name="Path 2607" d="M101.26,144.3V140.71a.075.075,0,1,0-.15,0V144.3Z" transform="translate(-40.624 -56.505)" fill="#e8bc2c"/>
      <path id="Path_2608" data-name="Path 2608" d="M102.27,144.3V140.71a.075.075,0,1,0-.15,0V144.3Z" transform="translate(-41.03 -56.505)" fill="#e8bc2c"/>
      <path id="Path_2609" data-name="Path 2609" d="M129.1,132.307l11.7-7.179-21.56-10.648L97.68,125.128l11.707,7.179Z" transform="translate(-39.246 -45.996)" fill="#0c1b30"/>
      <path id="Path_2610" data-name="Path 2610" d="M125.128,131.32c-9.123,0-12.808,4.289-12.808,9.278h25.616C137.936,135.6,134.263,131.32,125.128,131.32Z" transform="translate(-45.129 -52.762)" fill="#132a4d"/>
      <path id="Path_2611" data-name="Path 2611" d="M125.253,131.32h-.126c-9.123,0-12.808,4.289-12.808,9.278h12.933Z" transform="translate(-45.129 -52.762)" fill="#17325c"/>
      <path id="Path_2612" data-name="Path 2612" d="M8.78,212.307c3.44-3.655,5.1-5.51,8.339-9.272-1.232-4.786-1.795-7.179-2.8-11.964,5.743,1.364,11.456,2.572,17.258,3.637l-1.89,10.768L27.8,216.243Q18.208,214.687,8.78,212.307Z" transform="translate(-3.528 -76.769)" fill="#449dd5"/>
      <path id="Path_2613" data-name="Path 2613" d="M41.95,197.2c-2.889,1.2-4.355,1.795-7.34,2.943,2.638.526,3.96.772,6.58,1.2Z" transform="translate(-13.906 -79.232)" fill="#007fcf"/>
      <path id="Path_2614" data-name="Path 2614" d="M193.908,212.307c-3.44-3.655-5.1-5.51-8.339-9.272,1.232-4.786,1.795-7.179,2.8-11.964-5.743,1.364-11.456,2.572-17.258,3.637L173,205.475l1.89,10.768Q184.48,214.687,193.908,212.307Z" transform="translate(-68.749 -76.769)" fill="#449dd5"/>
      <path id="Path_2615" data-name="Path 2615" d="M31.633,202.12a242.354,242.354,0,0,0,89,0l4.445,21.464a264.483,264.483,0,0,1-97.874,0Z" transform="translate(-10.929 -81.209)" fill="#449dd5"/>
      <path id="Path_2616" data-name="Path 2616" d="M171.12,197.2c2.889,1.2,4.355,1.795,7.34,2.943-2.638.526-3.96.772-6.58,1.2Z" transform="translate(-68.753 -79.232)" fill="#007fcf"/>
      <g id="Group_544" data-name="Group 544" transform="translate(30.038 126.679)" opacity="0.08">
        <text id="U" transform="matrix(0.993, 0.121, -0.121, 0.993, 0.61, 14.889)" font-size="17" font-family="BebasNeueBold, Bebas Neue"><tspan x="0" y="0">U</tspan></text>
        <text id="N" transform="matrix(0.996, 0.09, -0.09, 0.996, 8.645, 15.862)" font-size="17" font-family="BebasNeueBold, Bebas Neue"><tspan x="0" y="0">N</tspan></text>
        <text id="I" transform="matrix(0.998, 0.066, -0.066, 0.998, 17.168, 16.597)" font-size="17" font-family="BebasNeueBold, Bebas Neue"><tspan x="0" y="0">I</tspan></text>
        <text id="V" transform="matrix(0.999, 0.042, -0.042, 0.999, 21.528, 16.89)" font-size="17" font-family="BebasNeueBold, Bebas Neue"><tspan x="0" y="0">V</tspan></text>
        <text id="E" transform="matrix(1, 0.011, -0.01, 1, 29.675, 17.218)" font-size="17" font-family="BebasNeueBold, Bebas Neue"><tspan x="0" y="0">E</tspan></text>
        <text id="R" transform="matrix(1, -0.018, 0.018, 1, 37.215, 17.296)" font-size="17" font-family="BebasNeueBold, Bebas Neue"><tspan x="0" y="0">R</tspan></text>
        <text id="S" transform="matrix(0.999, -0.048, 0.048, 0.999, 45.37, 17.129)" font-size="17" font-family="BebasNeueBold, Bebas Neue"><tspan x="0" y="0">S</tspan></text>
        <text id="I-2" data-name="I" transform="matrix(0.997, -0.071, 0.071, 0.997, 52.961, 16.735)" font-size="17" font-family="BebasNeueBold, Bebas Neue"><tspan x="0" y="0">I</tspan></text>
        <text id="T" transform="matrix(0.996, -0.093, 0.093, 0.996, 57.241, 15.429)" font-size="15" font-family="BebasNeueBold, Bebas Neue"><tspan x="0" y="0">T</tspan></text>
        <text id="Y" transform="matrix(0.993, -0.121, 0.121, 0.993, 64.501, 14.74)" font-size="16" font-family="BebasNeueBold, Bebas Neue"><tspan x="0" y="0">Y</tspan></text>
      </g>
      <text id="U-2" data-name="U" transform="matrix(0.993, 0.121, -0.121, 0.993, 29.751, 140.671)" fill="#fff" font-size="17" font-family="BebasNeueBold, Bebas Neue"><tspan x="0" y="0">U</tspan></text>
      <text id="N-2" data-name="N" transform="matrix(0.996, 0.09, -0.09, 0.996, 37.785, 141.644)" fill="#fff" font-size="17" font-family="BebasNeueBold, Bebas Neue"><tspan x="0" y="0">N</tspan></text>
      <text id="I-3" data-name="I" transform="matrix(0.998, 0.066, -0.066, 0.998, 46.308, 142.379)" fill="#fff" font-size="17" font-family="BebasNeueBold, Bebas Neue"><tspan x="0" y="0">I</tspan></text>
      <text id="V-2" data-name="V" transform="matrix(0.999, 0.042, -0.042, 0.999, 50.668, 142.671)" fill="#fff" font-size="17" font-family="BebasNeueBold, Bebas Neue"><tspan x="0" y="0">V</tspan></text>
      <text id="E-2" data-name="E" transform="matrix(1, 0.011, -0.01, 1, 58.816, 143)" fill="#fff" font-size="17" font-family="BebasNeueBold, Bebas Neue"><tspan x="0" y="0">E</tspan></text>
      <text id="R-2" data-name="R" transform="matrix(1, -0.018, 0.018, 1, 66.356, 143.078)" fill="#fff" font-size="17" font-family="BebasNeueBold, Bebas Neue"><tspan x="0" y="0">R</tspan></text>
      <text id="S-2" data-name="S" transform="matrix(0.999, -0.048, 0.048, 0.999, 74.511, 142.911)" fill="#fff" font-size="17" font-family="BebasNeueBold, Bebas Neue"><tspan x="0" y="0">S</tspan></text>
      <text id="I-4" data-name="I" transform="matrix(0.997, -0.071, 0.071, 0.997, 82.102, 142.517)" fill="#fff" font-size="17" font-family="BebasNeueBold, Bebas Neue"><tspan x="0" y="0">I</tspan></text>
      <text id="T-2" data-name="T" transform="matrix(0.996, -0.093, 0.093, 0.996, 86.381, 141.211)" fill="#fff" font-size="15" font-family="BebasNeueBold, Bebas Neue"><tspan x="0" y="0">T</tspan></text>
      <text id="Y-2" data-name="Y" transform="matrix(0.993, -0.121, 0.121, 0.993, 93.641, 140.522)" fill="#fff" font-size="16" font-family="BebasNeueBold, Bebas Neue"><tspan x="0" y="0">Y</tspan></text>
      <g id="Group_545" data-name="Group 545" transform="translate(22.846 131.529)" opacity="0.08">
        <path id="Path_2617" data-name="Path 2617" d="M44.22,222.568l-2.166-.538-.449-2.16-1.19,1.866-2.225-.251,1.43,1.693-.927,2,2.082-.82,1.651,1.49-.15-2.2Z" transform="translate(-38.19 -219.87)"/>
      </g>
      <path id="Path_2618" data-name="Path 2618" d="M43.22,221.568l-2.166-.538-.449-2.16-1.19,1.866-2.225-.251,1.43,1.693-.927,2,2.082-.82,1.651,1.49-.15-2.2Z" transform="translate(-14.942 -87.939)" fill="#fd0"/>
      <g id="Group_546" data-name="Group 546" transform="translate(102.725 131.529)" opacity="0.08">
        <path id="Path_2619" data-name="Path 2619" d="M171.72,222.568l2.172-.538.449-2.16,1.19,1.866,2.225-.251-1.43,1.693.927,2-2.082-.82-1.651,1.49.15-2.2Z" transform="translate(-171.72 -219.87)"/>
      </g>
      <path id="Path_2620" data-name="Path 2620" d="M170.72,221.568l2.172-.538.449-2.16,1.19,1.866,2.225-.251-1.43,1.693.927,2-2.082-.82-1.651,1.49.15-2.2Z" transform="translate(-68.593 -87.939)" fill="#fd0"/>
    </g>
  </g>
</svg>
