<svg xmlns="http://www.w3.org/2000/svg" width="64.471" height="64.471" viewBox="0 0 64.471 64.471">
  <g id="consulting" transform="translate(0)">
    <path id="Path_309" data-name="Path 309" d="M59.463,455.6H1.841C.824,455.6,0,455.018,0,454.294v-5.5c0-.724.824-1.31,1.841-1.31H59.463Zm0,0" transform="translate(0 -391.134)" fill="#ff933b"/>
    <path id="Path_310" data-name="Path 310" d="M39.442,447.48a10.45,10.45,0,0,0-.917,4.282v.042a1.048,1.048,0,0,1-1.048,1.048H0v1.442a1.311,1.311,0,0,0,1.31,1.31H42.325V447.48Zm0,0" transform="translate(0 -391.133)" fill="#f27d27"/>
    <g id="man" transform="translate(-3)">
      <path id="Path_311" data-name="Path 311" d="M386.683,318.738a5.5,5.5,0,0,0-11.007,0v2.621a5.5,5.5,0,0,0,11.007,0Zm0,0" transform="translate(-328.371 -273.792)" fill="#feccc1"/>
      <path id="Path_312" data-name="Path 312" d="M411.649,313.234a5.543,5.543,0,0,0-1.114.113,5.505,5.505,0,0,1,4.39,5.39v2.621a5.505,5.505,0,0,1-4.39,5.39,5.507,5.507,0,0,0,6.618-5.39v-2.621A5.5,5.5,0,0,0,411.649,313.234Zm0,0" transform="translate(-358.841 -273.792)" fill="#f9b3a7"/>
      <path id="Path_313" data-name="Path 313" d="M350.09,422.459v-2.532a7.862,7.862,0,0,0-5.283-7.427L342,411.526a8.441,8.441,0,0,0-2.77-.467h-1.606a8.439,8.439,0,0,0-2.77.467l-2.806.974a7.862,7.862,0,0,0-5.283,7.427v3.842H348.78A1.311,1.311,0,0,0,350.09,422.459Zm0,0" transform="translate(-285.62 -359.299)" fill="#636363"/>
      <path id="Path_314" data-name="Path 314" d="M464.942,420.732l-.735-.255a7.864,7.864,0,0,1,3.135,6.283V432h1.572a1.311,1.311,0,0,0,1.31-1.31v-2.532a7.863,7.863,0,0,0-5.283-7.427Zm0,0" transform="translate(-405.754 -367.53)" fill="#494949"/>
    </g>
    <path id="Path_315" data-name="Path 315" d="M100.252,353.347l-1.924-.668v.013l-4.455,7.731-4.455-7.731v-.012l-1.922.667a7.862,7.862,0,0,0-5.283,7.427v3.842h23.325v-3.842a7.862,7.862,0,0,0-5.283-7.427Zm0,0" transform="translate(-71.859 -308.27)" fill="#636363"/>
    <path id="Path_316" data-name="Path 316" d="M220.387,356.212l-.735-.255a7.864,7.864,0,0,1,3.136,6.283v5.241h2.882v-3.842a7.862,7.862,0,0,0-5.283-7.427Zm0,0" transform="translate(-191.994 -311.135)" fill="#494949"/>
    <path id="Path_317" data-name="Path 317" d="M139.435,347.321l4.455,7.731,4.455-7.731v-.013l-2.228-.774h-4.455l-2.229.774Zm0,0" transform="translate(-121.876 -302.899)" fill="#ddf5ff"/>
    <path id="Path_318" data-name="Path 318" d="M142.128,254.219a5.5,5.5,0,1,0-11.007,0v2.621a5.5,5.5,0,1,0,11.007,0Zm0,0" transform="translate(-114.611 -217.397)" fill="#feccc1"/>
    <path id="Path_319" data-name="Path 319" d="M167.1,248.715a5.538,5.538,0,0,0-1.114.113,5.505,5.505,0,0,1,4.389,5.391v2.621a5.505,5.505,0,0,1-4.389,5.391,5.509,5.509,0,0,0,6.617-5.391v-2.621A5.5,5.5,0,0,0,167.1,248.715Zm0,0" transform="translate(-145.084 -217.397)" fill="#f9b3a7"/>
    <path id="Path_320" data-name="Path 320" d="M33.284,0H5.241A5.241,5.241,0,0,0,0,5.241V18.87a5.241,5.241,0,0,0,5.241,5.241H8.124l4.762,4.762a1.048,1.048,0,0,0,1.79-.741V24.111H33.284a5.241,5.241,0,0,0,5.241-5.241V5.241A5.241,5.241,0,0,0,33.284,0Zm0,0" transform="translate(0 0)" fill="#8db0ff"/>
    <path id="Path_321" data-name="Path 321" d="M33.284,0H5.241A5.241,5.241,0,0,0,0,5.241V18.87a5.241,5.241,0,0,0,5.241,5.241H8.124l4.762,4.762a1.048,1.048,0,0,0,1.79-.741V24.111H33.284a5.241,5.241,0,0,0,5.241-5.241V5.241A5.241,5.241,0,0,0,33.284,0Zm0,0" transform="translate(0 0)" fill="#8db0ff"/>
    <path id="Path_322" data-name="Path 322" d="M5.241,134.281A5.242,5.242,0,0,1,0,129.039v2.621A5.241,5.241,0,0,0,5.241,136.9H8.124l4.762,4.762a1.048,1.048,0,0,0,1.79-.741v-.09l-5.784-5.784a2.621,2.621,0,0,0-1.853-.767Zm0,0" transform="translate(0 -112.791)" fill="#669af7"/>
    <path id="Path_323" data-name="Path 323" d="M135.162,0h-3.276a5.237,5.237,0,0,1,4.431,2.441,1.312,1.312,0,0,1-1.106,2.014h-2.146a7.862,7.862,0,0,0-7.863,7.862V20.18a1.31,1.31,0,0,1-1.31,1.31h-4.717a2.62,2.62,0,0,0-2.621,2.621h18.607A5.241,5.241,0,0,0,140.4,18.87V5.241A5.241,5.241,0,0,0,135.162,0Zm0,0" transform="translate(-101.878 0)" fill="#669af7"/>
    <path id="Path_324" data-name="Path 324" d="M211.292,56.2h28.042a5.241,5.241,0,0,1,5.241,5.241V75.065a5.241,5.241,0,0,1-5.241,5.241h-13.5v4.021a1.048,1.048,0,0,1-1.789.741l-4.762-4.762h-7.993a5.241,5.241,0,0,1-5.241-5.241V61.437a5.241,5.241,0,0,1,5.241-5.241Zm0,0" transform="translate(-180.105 -49.119)" fill="#ffd664"/>
    <g id="Group_39" data-name="Group 39" transform="translate(25.945 7.076)">
      <path id="Path_325" data-name="Path 325" d="M211.292,188.394a5.242,5.242,0,0,1-5.241-5.242v2.883a5.242,5.242,0,0,0,5.241,5.242h7.993l4.762,4.762a1.048,1.048,0,0,0,1.789-.741v-.352l-5.784-5.784a2.62,2.62,0,0,0-1.853-.767Zm0,0" transform="translate(-206.051 -167.166)" fill="#f9c646"/>
      <path id="Path_326" data-name="Path 326" d="M376.685,56.195h-3.276a5.242,5.242,0,0,1,5.241,5.241V74.8a2.621,2.621,0,0,1-2.621,2.621H365.808a2.62,2.62,0,0,0-2.621,2.621v.262h13.5a5.242,5.242,0,0,0,5.241-5.242V61.436a5.241,5.241,0,0,0-5.241-5.241Zm0,0" transform="translate(-343.401 -56.194)" fill="#f9c646"/>
    </g>
  </g>
</svg>
