<svg id="form0" xmlns="http://www.w3.org/2000/svg" width="133.115" height="120" viewBox="0 0 133.115 120">
  <g id="Layer_2" data-name="Layer 2">
    <g id="OBJECTS">
      <path id="Path_2621" data-name="Path 2621" d="M186.488,361.486h-1.459c0-.58-.112-.637-.112-.637l-4.665-.376c-.121-.456-.3-.5-.3-.5l-17.384-.8v-.3H135.458a.755.755,0,0,0-.755.755v.293h-2.4a.793.793,0,0,0-.793.793v1.972a.793.793,0,0,0,.793.793h2.4v.293a.755.755,0,0,0,.755.755h27.115v-.3l17.371-.812a1.023,1.023,0,0,0,.255-.5l4.706-.379a1.348,1.348,0,0,0,.108-.637h1.462a.212.212,0,0,0,0-.424Z" transform="translate(-89.608 -244.526)" fill="#1d1d1b" opacity="0.23"/>
      <path id="Path_2622" data-name="Path 2622" d="M126.13,133.153s64.273,8.921,74.026,8.858c5.735-18.949,8.74-72.732,18.9-95-1.274-.2-8.338-1.23-8.338-1.23Z" transform="translate(-85.942 -31.193)" fill="#1d1d1b" opacity="0.23"/>
      <path id="Path_2623" data-name="Path 2623" d="M198.368,116.374c-21.619,2.046-72.238-6.838-72.238-6.838L141.743,11.12l75.033,11.907S199.216,111.028,198.368,116.374Z" transform="translate(-85.942 -7.577)" fill="#fafafa"/>
      <text id="REGISTRATION" transform="matrix(0.987, 0.16, -0.16, 0.987, 68.799, 18.545)" fill="#bebfbf" font-size="5" font-family="SegoeUI, Segoe UI"><tspan x="0" y="0">REGISTR</tspan><tspan y="0" letter-spacing="-0.08em">A</tspan><tspan y="0">TION</tspan></text>
      <path id="Path_2624" data-name="Path 2624" d="M209.5,94.422l-2.571-3.381,1.319-1L209.82,92.1l7.513-5.659,1,1.319Z" transform="translate(-140.997 -58.898)" fill="#44c68b"/>
      <path id="Path_2625" data-name="Path 2625" d="M204.155,96.411l-7.4-1.176a1.8,1.8,0,0,1-1.5-2.061l1.179-7.494a1.8,1.8,0,0,1,2.062-1.5l7.414,1.176-.15.956-7.414-1.185a.848.848,0,0,0-.956.7L196.2,93.324a.848.848,0,0,0,.7.956l7.414,1.176a.848.848,0,0,0,.956-.7l.468-2.954.956.15-.468,2.954a1.8,1.8,0,0,1-2.074,1.51Z" transform="translate(-133.025 -57.345)" fill="#585a59"/>
      <rect id="Rectangle_776" data-name="Rectangle 776" width="35.989" height="1.555" transform="translate(78.616 31.696) rotate(9.02)" fill="#bebfbf"/>
      <rect id="Rectangle_777" data-name="Rectangle 777" width="35.989" height="1.555" transform="translate(77.901 36.211) rotate(9.02)" fill="#bebfbf"/>
      <path id="Path_2626" data-name="Path 2626" d="M200.231,152.832l-2.571-3.381,1.319-1,1.568,2.061,7.513-5.659,1,1.319Z" transform="translate(-134.681 -98.697)" fill="#44c68b"/>
      <path id="Path_2627" data-name="Path 2627" d="M194.894,154.808l-7.414-1.176a1.8,1.8,0,0,1-1.5-2.061l1.188-7.491a1.8,1.8,0,0,1,2.061-1.5l7.414,1.176-.15.956-7.414-1.176a.848.848,0,0,0-.956.7l-1.2,7.481a.848.848,0,0,0,.7.956l7.414,1.176a.848.848,0,0,0,.956-.7l.468-2.954.956.15-.468,2.954a1.8,1.8,0,0,1-2.065,1.507Z" transform="translate(-126.709 -97.137)" fill="#585a59"/>
      <rect id="Rectangle_778" data-name="Rectangle 778" width="19.286" height="1.555" transform="translate(75.661 50.305) rotate(9.02)" fill="#bebfbf"/>
      <rect id="Rectangle_779" data-name="Rectangle 779" width="35.989" height="1.555" transform="translate(74.946 54.82) rotate(9.02)" fill="#bebfbf"/>
      <path id="Path_2628" data-name="Path 2628" d="M190.971,211.232l-2.571-3.381,1.319-1,1.568,2.061,7.5-5.659,1,1.319Z" transform="translate(-128.371 -138.49)" fill="#44c68b"/>
      <path id="Path_2629" data-name="Path 2629" d="M185.6,213.228l-7.414-1.176a1.8,1.8,0,0,1-1.5-2.061l1.188-7.491a1.8,1.8,0,0,1,2.062-1.5l7.414,1.176-.15.956-7.414-1.192a.848.848,0,0,0-.956.7l-1.188,7.491a.848.848,0,0,0,.7.956l7.414,1.176a.848.848,0,0,0,.956-.7l.468-2.954.956.15-.468,2.954a1.8,1.8,0,0,1-2.074,1.513Z" transform="translate(-120.379 -136.943)" fill="#585a59"/>
      <rect id="Rectangle_780" data-name="Rectangle 780" width="28.59" height="1.555" transform="translate(72.708 68.912) rotate(9.02)" fill="#bebfbf"/>
      <rect id="Rectangle_781" data-name="Rectangle 781" width="35.989" height="1.555" transform="translate(71.989 73.429) rotate(9.02)" fill="#bebfbf"/>
      <path id="Path_2630" data-name="Path 2630" d="M181.7,269.632l-2.571-3.381,1.319-1,1.568,2.062,7.513-5.659,1,1.319Z" transform="translate(-122.055 -178.282)" fill="#44c68b"/>
      <path id="Path_2631" data-name="Path 2631" d="M176.334,271.628l-7.414-1.176a1.8,1.8,0,0,1-1.5-2.061l1.188-7.491a1.8,1.8,0,0,1,2.061-1.5l7.414,1.176-.15.956-7.414-1.192a.848.848,0,0,0-.956.7l-1.188,7.491a.848.848,0,0,0,.7.956l7.414,1.176a.848.848,0,0,0,.956-.7l.468-2.954.956.15-.468,2.954a1.8,1.8,0,0,1-2.074,1.513Z" transform="translate(-114.063 -176.736)" fill="#585a59"/>
      <rect id="Rectangle_782" data-name="Rectangle 782" width="12.49" height="1.559" transform="matrix(0.987, 0.16, -0.16, 0.987, 69.634, 87.954)" fill="#bebfbf"/>
      <rect id="Rectangle_783" data-name="Rectangle 783" width="22.437" height="1.555" transform="translate(69.038 92.036) rotate(9.02)" fill="#bebfbf"/>
      <rect id="Rectangle_784" data-name="Rectangle 784" width="55.354" height="9.986" transform="translate(66.526 13.078) rotate(8.71)" fill="none" stroke="#bebfbf" stroke-miterlimit="10" stroke-width="2"/>
      <path id="Path_2632" data-name="Path 2632" d="M55.73,112.27l3.96.169s49.855-8.756,67.816-14.258c-5.656-21.781-18.12-72.8-15.88-97.18-1.274.233-4.9.857-4.9.857Z" transform="translate(-37.973 -0.681)" fill="#1d1d1b" opacity="0.23"/>
      <path id="Path_2633" data-name="Path 2633" d="M88.2,94.191c-19.755,9.074-70.444,17.4-70.444,17.4L0,13.538,74.752,0S87.236,88.864,88.2,94.191Z" fill="#fafafa"/>
      <text id="REGISTRATION-2" data-name="REGISTRATION" transform="translate(17.227 23.394) rotate(-10.26)" fill="#bebfbf" font-size="5" font-family="SegoeUI, Segoe UI"><tspan x="0" y="0">REGISTR</tspan><tspan y="0" letter-spacing="-0.08em">A</tspan><tspan y="0">TION</tspan></text>
      <rect id="Rectangle_785" data-name="Rectangle 785" width="55.354" height="9.986" transform="matrix(0.985, -0.175, 0.175, 0.985, 10.042, 19.036)" fill="none" stroke="#bebfbf" stroke-miterlimit="10" stroke-width="2"/>
      <path id="Path_2634" data-name="Path 2634" d="M63.193,102.429l-3.543-2.345.914-1.383,2.16,1.427,5.222-7.819,1.373.914Z" transform="translate(-40.644 -62.898)" fill="#44c68b"/>
      <path id="Path_2635" data-name="Path 2635" d="M58.971,108.292l-7.4,1.325a1.8,1.8,0,0,1-2.093-1.453L48.129,100.7a1.8,1.8,0,0,1,1.453-2.093l7.408-1.329.169.956-7.389,1.338a.848.848,0,0,0-.682.985l1.351,7.462a.848.848,0,0,0,.985.682l7.389-1.338a.848.848,0,0,0,.682-.985l-.532-2.941.956-.169.532,2.941a1.8,1.8,0,0,1-1.478,2.081Z" transform="translate(-32.774 -66.284)" fill="#585a59"/>
      <rect id="Rectangle_786" data-name="Rectangle 786" width="35.989" height="1.555" transform="translate(30.827 32.578) rotate(-10.26)" fill="#bebfbf"/>
      <rect id="Rectangle_787" data-name="Rectangle 787" width="35.989" height="1.555" transform="translate(31.643 37.073) rotate(-10.26)" fill="#bebfbf"/>
      <path id="Path_2636" data-name="Path 2636" d="M73.73,160.582l-3.54-2.342.914-1.383,2.16,1.415,5.222-7.822,1.383.914Z" transform="translate(-47.826 -102.513)" fill="#44c68b"/>
      <path id="Path_2637" data-name="Path 2637" d="M69.532,166.479l-7.389,1.338a1.8,1.8,0,0,1-2.093-1.443L58.7,158.912a1.8,1.8,0,0,1,1.453-2.093l7.389-1.338.169.956-7.389,1.338a.848.848,0,0,0-.682.985l1.351,7.462a.848.848,0,0,0,.972.663l7.389-1.338a.848.848,0,0,0,.695-.978l-.532-2.941.956-.169L71,164.4A1.8,1.8,0,0,1,69.532,166.479Z" transform="translate(-39.976 -105.94)" fill="#585a59"/>
      <rect id="Rectangle_788" data-name="Rectangle 788" width="19.286" height="1.555" transform="translate(34.185 51.113) rotate(-10.26)" fill="#bebfbf"/>
      <rect id="Rectangle_789" data-name="Rectangle 789" width="35.989" height="1.555" transform="translate(35.001 55.615) rotate(-10.26)" fill="#bebfbf"/>
      <path id="Path_2638" data-name="Path 2638" d="M84.263,218.8l-3.543-2.342.914-1.383,2.16,1.427,5.222-7.822,1.383.914Z" transform="translate(-55.001 -142.19)" fill="#44c68b"/>
      <path id="Path_2639" data-name="Path 2639" d="M80.072,224.662,72.683,226a1.8,1.8,0,0,1-2.093-1.453l-1.351-7.462a1.8,1.8,0,0,1,1.453-2.093l7.373-1.341.169.956-7.389,1.338a.848.848,0,0,0-.682.985l1.351,7.462a.848.848,0,0,0,.985.682l7.389-1.338a.848.848,0,0,0,.682-.985l-.532-2.941.956-.169.532,2.941A1.8,1.8,0,0,1,80.072,224.662Z" transform="translate(-47.158 -145.576)" fill="#585a59"/>
      <rect id="Rectangle_790" data-name="Rectangle 790" width="28.59" height="1.555" transform="translate(37.539 69.656) rotate(-10.26)" fill="#bebfbf"/>
      <rect id="Rectangle_791" data-name="Rectangle 791" width="35.989" height="1.555" transform="translate(38.354 74.156) rotate(-10.26)" fill="#bebfbf"/>
      <path id="Path_2640" data-name="Path 2640" d="M94.8,276.983l-3.543-2.345.914-1.383,2.16,1.427,5.222-7.822,1.383.914Z" transform="translate(-62.182 -181.832)" fill="#44c68b"/>
      <path id="Path_2641" data-name="Path 2641" d="M90.6,282.824l-7.389,1.338a1.8,1.8,0,0,1-2.093-1.466l-1.351-7.462a1.8,1.8,0,0,1,1.453-2.1l7.389-1.338.169.956-7.389,1.338a.848.848,0,0,0-.682.985l1.345,7.459a.848.848,0,0,0,.985.682l7.389-1.338a.848.848,0,0,0,.682-.985l-.532-2.941.956-.169.532,2.941a1.8,1.8,0,0,1-1.462,2.1Z" transform="translate(-54.332 -185.198)" fill="#585a59"/>
      <rect id="Rectangle_792" data-name="Rectangle 792" width="12.455" height="1.555" transform="translate(40.899 88.196) rotate(-10.26)" fill="#bebfbf"/>
      <rect id="Rectangle_793" data-name="Rectangle 793" width="22.437" height="1.555" transform="translate(41.711 92.694) rotate(-10.26)" fill="#bebfbf"/>
      <path id="Path_2642" data-name="Path 2642" d="M95.17,111.008s69.5,3.107,79.124,1.5c-1.7-22.431-5.815-74.239-1.545-100.605-1.625-.2-7.727-.446-7.727-.446Z" transform="translate(-64.847 -7.809)" fill="#1d1d1b" opacity="0.23"/>
      <path id="Path_2643" data-name="Path 2643" d="M167.587,106.227C146.558,111.644,95.17,110.8,95.17,110.8V11.15h75.966S167.587,100.817,167.587,106.227Z" transform="translate(-64.847 -7.597)" fill="#fff"/>
      <text id="REGISTRATION-3" data-name="REGISTRATION" transform="translate(45.493 16.314)" fill="#bebfbf" font-size="5" font-family="SegoeUI, Segoe UI"><tspan x="0" y="0">REGISTR</tspan><tspan y="0" letter-spacing="-0.08em">A</tspan><tspan y="0">TION</tspan></text>
      <path id="Path_2644" data-name="Path 2644" d="M143.7,84.513l-3.068-2.938,1.147-1.2,1.87,1.791,6.535-6.768,1.2,1.147Z" transform="translate(-95.822 -51.376)" fill="#44c68b"/>
      <path id="Path_2645" data-name="Path 2645" d="M140.233,89.79h-7.51a1.8,1.8,0,0,1-1.8-1.8V80.4a1.8,1.8,0,0,1,1.8-1.8h7.51v.956h-7.51a.848.848,0,0,0-.848.848V87.99a.848.848,0,0,0,.848.848h7.51a.848.848,0,0,0,.848-.848V85h.956v2.989A1.8,1.8,0,0,1,140.233,89.79Z" transform="translate(-89.206 -53.556)" fill="#585a59"/>
      <rect id="Rectangle_794" data-name="Rectangle 794" width="35.989" height="1.555" transform="translate(57.266 27.774)" fill="#bebfbf"/>
      <rect id="Rectangle_795" data-name="Rectangle 795" width="35.989" height="1.555" transform="translate(57.266 32.347)" fill="#bebfbf"/>
      <path id="Path_2646" data-name="Path 2646" d="M143.7,143.673l-3.068-2.938,1.147-1.2,1.87,1.791,6.535-6.768,1.2,1.147Z" transform="translate(-95.822 -91.686)" fill="#44c68b"/>
      <path id="Path_2647" data-name="Path 2647" d="M140.233,148.92h-7.51a1.8,1.8,0,0,1-1.8-1.8v-7.583a1.8,1.8,0,0,1,1.8-1.8h7.51v.956h-7.51a.848.848,0,0,0-.848.848v7.586a.848.848,0,0,0,.848.848h7.51a.848.848,0,0,0,.848-.848v-2.989h.956v2.989A1.8,1.8,0,0,1,140.233,148.92Z" transform="translate(-89.206 -93.846)" fill="#585a59"/>
      <rect id="Rectangle_796" data-name="Rectangle 796" width="19.286" height="1.555" transform="translate(57.266 46.618)" fill="#bebfbf"/>
      <rect id="Rectangle_797" data-name="Rectangle 797" width="35.989" height="1.555" transform="translate(57.266 51.19)" fill="#bebfbf"/>
      <path id="Path_2648" data-name="Path 2648" d="M143.7,202.813l-3.068-2.938,1.147-1.2,1.87,1.791,6.535-6.768,1.2,1.147Z" transform="translate(-95.822 -131.983)" fill="#44c68b"/>
      <path id="Path_2649" data-name="Path 2649" d="M140.233,208.056h-7.51a1.8,1.8,0,0,1-1.8-1.8v-7.59a1.8,1.8,0,0,1,1.8-1.8h7.51v.956h-7.51a.848.848,0,0,0-.848.848v7.586a.848.848,0,0,0,.848.848h7.51a.848.848,0,0,0,.848-.848v-2.989h.956v2.989a1.8,1.8,0,0,1-1.8,1.807Z" transform="translate(-89.206 -134.136)" fill="#585a59"/>
      <rect id="Rectangle_798" data-name="Rectangle 798" width="28.59" height="1.555" transform="translate(57.266 65.458)" fill="#bebfbf"/>
      <rect id="Rectangle_799" data-name="Rectangle 799" width="35.989" height="1.555" transform="translate(57.266 70.03)" fill="#bebfbf"/>
      <path id="Path_2650" data-name="Path 2650" d="M143.7,261.943,140.63,259l1.147-1.2,1.87,1.791,6.535-6.768,1.2,1.147Z" transform="translate(-95.822 -172.272)" fill="#44c68b"/>
      <path id="Path_2651" data-name="Path 2651" d="M140.233,267.19h-7.51a1.8,1.8,0,0,1-1.8-1.8V257.8a1.8,1.8,0,0,1,1.8-1.8h7.51v.956h-7.51a.848.848,0,0,0-.848.848v7.586a.848.848,0,0,0,.848.848h7.51a.848.848,0,0,0,.848-.848V262.4h.956v2.989A1.8,1.8,0,0,1,140.233,267.19Z" transform="translate(-89.206 -174.432)" fill="#585a59"/>
      <rect id="Rectangle_800" data-name="Rectangle 800" width="12.455" height="1.555" transform="translate(57.266 84.298)" fill="#bebfbf"/>
      <rect id="Rectangle_801" data-name="Rectangle 801" width="22.437" height="1.555" transform="translate(57.266 88.87)" fill="#bebfbf"/>
      <path id="Path_2652" data-name="Path 2652" d="M296.691,363.39h0a.21.21,0,0,1-.21.21h-1.51a.21.21,0,0,1-.21-.21h0a.21.21,0,0,1,.21-.21h1.51A.21.21,0,0,1,296.691,363.39Z" transform="translate(-200.843 -247.462)" fill="#3c3c3b"/>
      <path id="Path_2653" data-name="Path 2653" d="M284.441,360.345s.115.048.115.787-.115.889-.115.889l-5.041.408V359.94Z" transform="translate(-190.377 -245.255)" fill="#99cda2"/>
      <path id="Path_2654" data-name="Path 2654" d="M.787,0H2.759a.793.793,0,0,1,.793.793V3.511H0V.793A.793.793,0,0,1,.787,0Z" transform="translate(40.656 117.709) rotate(-90)" fill="#3c3c3b"/>
      <rect id="Rectangle_802" data-name="Rectangle 802" width="5.656" height="24.687" transform="translate(45.799 118.757) rotate(-90)" fill="#3c3c3b"/>
      <path id="Path_2655" data-name="Path 2655" d="M241.578,356.682s.408.1.408,1.612-.408,1.823-.408,1.823l-17.808.832v-5.1Z" transform="translate(-152.472 -242.468)" fill="#3c3c3b"/>
      <path id="Path_2656" data-name="Path 2656" d="M.755,0H4.9a.755.755,0,0,1,.755.755V2.536H0V.755A.755.755,0,0,1,.755,0Z" transform="translate(43.849 118.757) rotate(-90)" fill="#99cda2"/>
      <path id="Path_2657" data-name="Path 2657" d="M271.43,361.75l2.055-.1v-3.486l-2.055-.1Z" transform="translate(-184.946 -243.98)" fill="#99cda2"/>
      <path id="Path_2658" data-name="Path 2658" d="M168.547,361.68h0a1.01,1.01,0,0,0-1.01-1.01H152.17v2.017h15.367a1.01,1.01,0,0,0,1.01-1.007Z" transform="translate(-103.685 -245.752)" fill="#99cda2"/>
      <rect id="Rectangle_803" data-name="Rectangle 803" width="5.656" height="1.912" transform="translate(69.826 118.754) rotate(-90)" fill="#99cda2"/>
      <path id="Path_2659" data-name="Path 2659" d="M127.61,363.81v1a.793.793,0,0,0,.793.793h2.4v.293a.755.755,0,0,0,.755.755h27.128v-.3l17.371-.812a1.022,1.022,0,0,0,.255-.5l4.706-.379a1.348,1.348,0,0,0,.108-.637h1.462a.21.21,0,0,0,.21-.21H127.61Z" transform="translate(-86.95 -247.892)" fill="#5d5d5d" opacity="0.51"/>
      <rect id="Rectangle_804" data-name="Rectangle 804" width="55.354" height="9.986" transform="translate(41.345 10.942)" fill="none" stroke="#bebfbf" stroke-miterlimit="10" stroke-width="2"/>
    </g>
  </g>
</svg>
