<svg xmlns="http://www.w3.org/2000/svg" width="94.166" height="74.42" viewBox="0 0 94.166 74.42">
  <g id="Group_956" data-name="Group 956" transform="translate(-226.728 -854)">
    <path id="ring" d="M30,0C13.431,0,0,12.984,0,29S13.431,58,30,58,60,45.016,60,29c0-9.017-12.953-16.086-20.33-15.734S37.241,0,30,0Z" transform="translate(227 854)" fill="#f7941d" opacity="0.29"/>
    <g id="mortarboard" transform="translate(226.727 869.908)">
      <path id="Path_431" data-name="Path 431" d="M1.2,24.036,47.084,44.551,92.964,24.036a2.033,2.033,0,0,0,0-3.713L47.915.179a2.034,2.034,0,0,0-1.661,0L1.2,20.323a2.034,2.034,0,0,0,0,3.713Zm0,0" transform="translate(0 -0.002)" fill="#636363"/>
      <path id="Path_432" data-name="Path 432" d="M148.466,20.321,103.417.177a2.031,2.031,0,0,0-1.66,0L98.417,1.67l41.711,18.652a2.033,2.033,0,0,1,0,3.712l-4.383,1.96-.228-.169C121.027,15.084,103.442,14.471,102.7,14.45l-.114,0-.114,0c-.741.021-18.326.634-32.815,11.374l-1.645,1.219v2.045l34.574,15.46,34.574-15.46,11.3-5.056a2.034,2.034,0,0,0,0-3.713Zm0,0" transform="translate(-55.502)" fill="#494949"/>
      <path id="Path_433" data-name="Path 433" d="M121.547,140.454c8.485-4.36,22.625-5.735,27.7-6.1a2.034,2.034,0,0,0,1.888-2.029V111.255c-13.626-10.1-30.507-10.576-30.507-10.576s-16.881.475-30.507,10.576v21.07a2.033,2.033,0,0,0,1.888,2.028c5.079.366,19.22,1.741,27.7,6.1a2.005,2.005,0,0,0,1.83,0Zm0,0" transform="translate(-73.549 -82.163)" fill="#636363"/>
      <path id="Path_434" data-name="Path 434" d="M145.037,156.788a4.065,4.065,0,0,1-3.523,4.03c-5.99.8-13.583,2.27-19.131,4.889a4.088,4.088,0,0,1-3.5,0c-10.626-5.018-28.761-5.807-28.761-5.807v2.359a2.034,2.034,0,0,0,1.888,2.029c5.079.365,19.22,1.74,27.7,6.1a2.005,2.005,0,0,0,1.83,0c8.485-4.36,22.626-5.735,27.7-6.1a2.034,2.034,0,0,0,1.888-2.029V141.192a47.658,47.658,0,0,0-6.1-3.829v19.426Zm0,0" transform="translate(-73.547 -112.1)" fill="#494949"/>
      <g id="line-het">
        <path id="Path_435" data-name="Path 435" d="M350.676,260.695l-3.236-8.515-3.236,8.515a1.221,1.221,0,0,0,1.141,1.654h4.19a1.22,1.22,0,0,0,1.141-1.654Zm0,0" transform="translate(-280.832 -205.801)" fill="#ffd664"/>
        <path id="Path_436" data-name="Path 436" d="M347.479,219.958a4.271,4.271,0,1,1-4.27-4.271A4.27,4.27,0,0,1,347.479,219.958Zm0,0" transform="translate(-276.6 -176.02)" fill="#ffd664"/>
        <path id="Path_437" data-name="Path 437" d="M346.65,217.754A4.266,4.266,0,0,1,341,223.4a4.269,4.269,0,1,0,5.646-5.646Zm0,0" transform="translate(-278.286 -177.706)" fill="#f9c646"/>
        <path id="Path_438" data-name="Path 438" d="M356.914,44.077V75.34a1.526,1.526,0,1,1-3.051,0V42.714Zm0,0" transform="translate(-288.78 -34.858)" fill="#ffd664"/>
      </g>
    </g>
  </g>
</svg>
