<svg xmlns="http://www.w3.org/2000/svg" xmlns:xlink="http://www.w3.org/1999/xlink" width="396.679" height="533.648" viewBox="0 0 396.679 533.648">
  <defs>
    <linearGradient id="linear-gradient" x1="0.523" y1="0.139" x2="-0.215" y2="1.661" gradientUnits="objectBoundingBox">
      <stop offset="0" stop-color="#a71e36"/>
      <stop offset="1" stop-color="#80cce8"/>
    </linearGradient>
    <linearGradient id="linear-gradient-2" x1="0.5" y1="0.025" x2="0.5" y2="1.013" gradientUnits="objectBoundingBox">
      <stop offset="0" stop-color="#363636"/>
      <stop offset="1" stop-color="#e3e3e3"/>
    </linearGradient>
    <linearGradient id="linear-gradient-3" x1="0.5" y1="0.025" x2="0.5" y2="1.013" gradientUnits="objectBoundingBox">
      <stop offset="0" stop-color="#8e8a8a"/>
      <stop offset="1" stop-color="#363636"/>
    </linearGradient>
    <linearGradient id="linear-gradient-4" x1="0.5" y1="0.025" x2="0.5" y2="1.015" gradientUnits="objectBoundingBox">
      <stop offset="0" stop-color="#ffaab9"/>
      <stop offset="1" stop-color="#a71e36"/>
    </linearGradient>
    <linearGradient id="linear-gradient-5" x1="-2.276" y1="-0.282" x2="-2.276" y2="0.733" xlink:href="#linear-gradient-4"/>
    <linearGradient id="linear-gradient-6" x1="0.442" y1="-0.001" x2="0.629" y2="1.007" gradientUnits="objectBoundingBox">
      <stop offset="0" stop-color="#ffead1"/>
      <stop offset="0.1" stop-color="#fbe1c3"/>
      <stop offset="0.22" stop-color="#fcd19e"/>
      <stop offset="0.34" stop-color="#fed09a"/>
      <stop offset="0.47" stop-color="#fcc27b"/>
      <stop offset="0.61" stop-color="#f6be7a"/>
      <stop offset="0.77" stop-color="#fba742"/>
      <stop offset="1" stop-color="#f7941d"/>
    </linearGradient>
    <linearGradient id="linear-gradient-7" x1="0.5" y1="-0.002" x2="0.5" y2="1.005" gradientUnits="objectBoundingBox">
      <stop offset="0" stop-color="#f7941d"/>
      <stop offset="1" stop-color="#d47300"/>
    </linearGradient>
    <linearGradient id="linear-gradient-8" x1="0.498" y1="0.001" x2="0.498" y2="0.999" gradientUnits="objectBoundingBox">
      <stop offset="0" stop-color="#a71e36"/>
      <stop offset="1" stop-color="#ffaab9"/>
    </linearGradient>
    <linearGradient id="linear-gradient-9" x1="0.5" y1="0" x2="0.5" y2="1.003" xlink:href="#linear-gradient-4"/>
    <linearGradient id="linear-gradient-10" x1="0.5" y1="0" x2="0.5" y2="1.005" xlink:href="#linear-gradient-8"/>
    <linearGradient id="linear-gradient-11" x1="0.5" y1="0.022" x2="0.5" y2="1.013" gradientUnits="objectBoundingBox">
      <stop offset="0" stop-color="#8e8a8a" stop-opacity="0.38"/>
      <stop offset="1" stop-color="#ccc" stop-opacity="0.122"/>
    </linearGradient>
    <linearGradient id="linear-gradient-12" x1="0.5" y1="0.025" x2="0.5" y2="1.013" gradientUnits="objectBoundingBox">
      <stop offset="0" stop-color="#8e8a8a" stop-opacity="0.388"/>
      <stop offset="1" stop-color="#ccc" stop-opacity="0.2"/>
    </linearGradient>
  </defs>
  <g id="Layer_2" data-name="Layer 2" transform="translate(-46.13 -0.05)">
    <g id="图层_1" data-name="图层 1" transform="translate(46.13 0.05)">
      <ellipse id="Ellipse_518" data-name="Ellipse 518" cx="186.704" cy="19.05" rx="186.704" ry="19.05" transform="translate(23.27 495.549)" fill="#ffead1"/>
      <path id="Path_5519" data-name="Path 5519" d="M258.375,227.025c2.664-28.39-30.3-35.136-40.21-10.793-2.053,5.039-5.178,19.165-5.085,37.189.1,20.261,3.1,44.534,4.912,52.341-3.713,16.144-4.543,41.167,1.545,74.769l11.993-.565s9.433-38.273,10.667-53.886a159.548,159.548,0,0,0,.427-23.651h0C247.236,288.764,255.781,254.654,258.375,227.025Z" transform="translate(-20.564 30.77)" fill="url(#linear-gradient)"/>
      <path id="Path_5520" data-name="Path 5520" d="M263.624,232.976H238.255L234.15,208.76h29.5c1.326-.369,10.159-7.265,23.063-5.408,12.131,1.741,18.093,13.526,10.378,21.506C289.766,232.307,263.359,235.813,263.624,232.976Z" transform="translate(-17.337 31.034)" fill="#f8a789"/>
      <path id="Path_5521" data-name="Path 5521" d="M238.91,203.437s8.937.069,19.373-.427c2.894,1.384,3.286,29.578-4.889,41.79C253.393,244.8,250.384,230.086,238.91,203.437Z" transform="translate(-16.608 31.031)" fill="#b55062"/>
      <path id="Path_5522" data-name="Path 5522" d="M297.4,235.56,291.257,208s-33.6,5.316-32,27.595Z" transform="translate(-13.501 31.795)" fill="#f9ae92"/>
      <path id="Path_5523" data-name="Path 5523" d="M305.917,221.486c.957-18.45-11.4-15.833-11.785-16.144-1.488-1.153-.98-4.417-4.613-5.766-3.9-1.418-6.285,1.626-8.072,1.568s-1.684-2.606-6.423-1.96-13,8.349-15.233,10.113,19.6-4.082,22.232-.923c1.522,1.8-.784,4.947-6.6,6.631l-1.153,2.987c4.451.461,11.07.323,14.991-.807-.992,6.688-1.88,19.707,6.827,19.707C302.723,236.938,305.536,228.773,305.917,221.486Z" transform="translate(-13.435 30.429)" fill="#363636"/>
      <path id="Path_5524" data-name="Path 5524" d="M230.072,197.363c16.386-3.967,35-.185,41.109,16.144,7.68,20.5,2.191,49.389-14.691,57.53-15.083,7.276-57.749,14.276-88.964,47.694l-58.476-22C125.032,266.562,168.171,212.33,230.072,197.363Z" transform="translate(-36.495 29.944)" fill="#a71e36"/>
      <path id="Path_5525" data-name="Path 5525" d="M267.613,305.494c-21.033-10.021-52.272-18.542-73.8-21.564H109.16c-.888,7.172-3.828,43.023,24.735,54.474,30.789,12.339,114.991-.588,125.53-2.5C283.722,331.462,290.1,316.195,267.613,305.494Z" transform="translate(-36.559 43.422)" fill="#363636"/>
      <path id="Path_5526" data-name="Path 5526" d="M253.992,365.386c16.87,18,99.493,76.107,99.493,76.107l12.246-4.52S273.353,312.307,253.277,307.487,229.453,339.21,253.992,365.386Z" transform="translate(-16.919 46.964)" fill="#363636"/>
      <path id="Path_5527" data-name="Path 5527" d="M112.231,307.12c5.108-26.142,58.879-23.593,96.967-21.114S312.98,300.743,313.407,319.3c.484,22.786-98.2,31.135-147.313,26.718C119.38,341.852,109.636,320.4,112.231,307.12Z" transform="translate(-36.066 43.514)" fill="#363636"/>
      <path id="Path_5528" data-name="Path 5528" d="M274.551,303.364c-9.756,2.237-27.087,12.1-42.747,38.053s-54.324,98.87-54.324,98.87l15.786,3.805c.184-.208,106.273-115.233,109.329-123.559C307.288,307.677,289.161,300.02,274.551,303.364Z" transform="translate(-26.016 46.278)" fill="#363636"/>
      <path id="Path_5529" data-name="Path 5529" d="M302.025,217.21a21.494,21.494,0,0,0-.173,6.25c.692,3.725,6.146,2.606,4.912,7.691-1.084,4.5-13.4,5.708-18.45,1.522s-2.687-11.624,0-12.327S302.025,217.21,302.025,217.21Z" transform="translate(-9.497 33.205)" fill="#363636"/>
      <path id="Path_5530" data-name="Path 5530" d="M211.279,214.138c-2.122,5.212-5.351,19.811-5.258,38.434a496.65,496.65,0,0,0,4.912,61.358c2.479,14.991,17.585,24.216,25.115,1.776,4.762-14.16,14.1-61.877,16.778-90.429C255.582,195.953,221.518,188.977,211.279,214.138Z" transform="translate(-21.645 30.373)" fill="#a71e36"/>
      <path id="Path_5531" data-name="Path 5531" d="M223.8,359.963v0c1,1.153,1.545,7.576,1.257,10.943s-3.113,10.747-5.12,13.25c-.761.946-1.5.254-1.28-.542,0,0,1.949-7.392,2.006-7.968s-.392-.542-.461-.254l-2.306,9.029a.911.911,0,0,1-.853.692h0a.911.911,0,0,1-.923-1.084l1.3-6.919-1.349,6.331a.68.68,0,0,1-1.038.427h0a.68.68,0,0,1-.3-.657l.807-8.8s-.507,6.135-.7,7.046c-.369,1.707-1.557,1.326-1.545.45,0-2.837,1.453-28.771,1.453-28.771l9.513-.427S223.818,360.055,223.8,359.963Z" transform="translate(-20.532 53.955)" fill="#f9ae92"/>
      <path id="Path_5532" data-name="Path 5532" d="M235.831,316.342c-1.268,16.144-11.024,55.685-11.024,55.685l-12.385.577c-11.981-65.982,1.914-99.931,12.927-99.954C231.207,272.65,238.979,276.513,235.831,316.342Z" transform="translate(-21.371 41.695)" fill="#a71e36"/>
      <path id="Path_5533" data-name="Path 5533" d="M181.234,416.6a43.912,43.912,0,0,0-4.105,4.693,45.636,45.636,0,0,0-2.41,4.37h-.127a30.878,30.878,0,0,0-1.741,3.851c-.138.473,5.524,4.728,9.456,6.227a26.273,26.273,0,0,0,3.459-.288c.83-.138,4.29,3.794,8.326,7.449,2.214,2.006,10.77,4.728,15.118,5.893s9.144,2.306,9.444-.611-1.349-2.94-5.466-5.973c-9.536-7.011-15.5-19.43-15.959-19.361Z" transform="translate(-26.725 63.739)"/>
      <path id="Path_5534" data-name="Path 5534" d="M332.678,420.014a41.831,41.831,0,0,0-1.372,5.9,45.334,45.334,0,0,0-.069,4.993h-.127a30.747,30.747,0,0,0,.288,4.22c.1.484,7.092,1.568,11.266,1.038a26.316,26.316,0,0,0,2.929-1.891c.669-.519,5.57,1.326,10.851,2.652,2.894.727,11.727-.9,16.144-1.926s9.156-2.306,8.072-4.982-2.572-1.96-7.634-2.7c-11.716-1.7-23.27-9.525-23.27-9.525Z" transform="translate(-2.489 63.923)"/>
      <path id="Path_5535" data-name="Path 5535" d="M137.869,313.876l-.369-2.145c19.7-3.344,22.163-20.641,22.256-21.321l2.156.277A28.517,28.517,0,0,1,137.869,313.876Z" transform="translate(-32.138 44.415)" fill="#afafaf"/>
      <rect id="Rectangle_1194" data-name="Rectangle 1194" width="80.42" height="233.695" transform="translate(273.535 279.52)" fill="url(#linear-gradient-2)"/>
      <rect id="Rectangle_1195" data-name="Rectangle 1195" width="137.892" height="12.154" transform="translate(244.799 267.366)" fill="url(#linear-gradient-3)"/>
      <rect id="Rectangle_1196" data-name="Rectangle 1196" width="137.892" height="3.263" transform="translate(244.799 267.366)" fill="#363636"/>
      <rect id="Rectangle_1197" data-name="Rectangle 1197" width="137.892" height="3.263" transform="translate(244.799 276.257)" fill="#363636"/>
      <rect id="Rectangle_1198" data-name="Rectangle 1198" width="137.892" height="1.637" transform="translate(244.799 277.883)" fill="#363636"/>
      <rect id="Rectangle_1199" data-name="Rectangle 1199" width="80.42" height="4.151" transform="translate(273.535 279.52)" fill="#363636"/>
      <path id="Path_5536" data-name="Path 5536" d="M314.17,358.41l8.072,99.988H388.19l8.072-99.988Zm78.69,3.125-.208,2.525-1.245-1.245,1.28-1.28Zm-4.716,58.441-4.29-4.29,5.039-5.039Zm-2.964,35.3h-7.069l-1.81-1.81,5.351-5.339,3.909,3.909-.254,3.113Zm-67.631-93.738h7.738l1.28,1.28-5.351,5.351-3.459-3.459Zm69.442,1.28-5.351,5.339-5.351-5.351,1.28-1.28h8.13Zm-37.765,52.871-5.351,5.351-5.339-5.351,5.339-5.339ZM338.547,400.6l5.339-5.339,5.351,5.339-5.351,5.351Zm7.553,7.553,5.351-5.351,5.339,5.351-5.339,5.339Zm7.553-7.553,5.339-5.339,5.351,5.339-5.4,5.316Zm5.339,9.767,5.351,5.339-5.4,5.316-5.339-5.351Zm2.214-2.214,5.351-5.351,5.339,5.351-5.339,5.339Zm0-15.106,5.351-5.339,5.339,5.339-5.339,5.339Zm-2.26-2.237-5.339-5.339,5.339-5.351,5.351,5.351Zm-2.214,2.214-5.339,5.339-5.351-5.339,5.351-5.339Zm-12.9-2.214-5.351-5.339,5.351-5.351,5.351,5.351Zm-2.179,2.214-5.339,5.339-5.351-5.339,5.339-5.339Zm0,15.106-5.339,5.339-5.351-5.339,5.351-5.351Zm0,15.106-5.339,5.339-5.351-5.339,5.351-5.351Zm2.214,2.214,5.351,5.339-5.351,5.351-5.339-5.351Zm2.214-2.214,5.351-5.351,5.339,5.351-5.339,5.339Zm12.869,2.2,5.351,5.339-5.351,5.351-5.339-5.351Zm2.214-2.214,5.351-5.351,5.339,5.351-5.339,5.339Zm7.553-7.553,5.339-5.339,5.351,5.339-5.351,5.351Zm0-15.106,5.339-5.339,5.351,5.339-5.351,5.351Zm0-15.106,5.339-5.339,5.351,5.339-5.351,5.339Zm0-15.106,5.351-5.351,5.339,5.351-5.351,5.339Zm3.137,7.553-5.3,5.4-5.293-5.385,5.351-5.351Zm-12.9-2.2-5.339-5.339,5.339-5.351,5.351,5.351Zm-2.214,2.214-5.293,5.385-5.351-5.339,5.351-5.351Zm-12.9-2.214-5.351-5.339,5.351-5.351,5.351,5.351Zm-2.179,2.214-5.316,5.385-5.339-5.339,5.339-5.351Zm-12.892-2.214-5.351-5.339,5.351-5.351,5.351,5.351Zm5.351,9.767-5.351,5.339-5.351-5.339,5.351-5.339Zm0,15.106-5.351,5.351-5.316-5.327,5.351-5.339Zm0,15.106-5.351,5.351-5.351-5.351,5.351-5.339Zm0,15.106-5.351,5.351-5.351-5.351,5.351-5.339Zm0,15.106-5.351,5.351-4.336-4.336-.15-1.868,4.486-4.486Zm-3.137-7.553,5.351-5.351,5.339,5.351-5.339,5.339Zm12.892,2.214,5.351,5.339-5.351,5.351-5.339-5.351Zm2.214-2.214,5.351-5.351,5.339,5.351-5.339,5.339Zm12.869,2.214L364.3,445.9l-5.351,5.351-5.339-5.351Zm2.214-2.214,5.351-5.351,5.339,5.351-5.339,5.339Zm12.9,2.214,5.351,5.351-5.339,5.339-5.351-5.351Zm-5.339-9.767,5.339-5.339,5.351,5.339-5.351,5.351Zm7.553-7.553,5.351-5.351,5.351,5.351-5.351,5.339Zm0-15.106,5.351-5.351,5.351,5.351-5.351,5.339Zm0-15.106,5.351-5.339,5.351,5.339-5.351,5.339Zm0-15.106,5.351-5.351,5.351,5.339-5.328,5.4Zm-4.417-15.106-5.351,5.351-5.258-5.362,1.28-1.28h8.141Zm-15.106,0-5.339,5.351-5.351-5.351,1.28-1.28h8.141Zm-15.106,0-5.351,5.351-5.339-5.351,1.28-1.28h8.13Zm-22.659,7.553-.692.692-.127-1.5Zm2.214,2.2,5.351,5.351-5.328,5.385-2.076-2.087-.484-6.042Zm0,15.106,5.351,5.339-5.351,5.339-.761-.761-.7-8.522Zm0,15.106,5.351,5.351L321.689,413l-.8-9.894Zm5.351,20.457-3.736,3.736-.657-8.072Zm0,15.106-2.595,2.618-.461-5.673Zm0,15.106-1.476,1.476-.265-3.217Zm4.416,0,5.351-5.351,5.339,5.351-1.81,1.81h-7.069Zm15.106,0,5.351-5.351,5.339,5.351-1.81,1.81h-7.069Zm15.106,0,5.351-5.351,5.351,5.351-1.81,1.81h-7.069Zm22.659-7.553,2.387-2.387-.357,4.417Zm2.779-7.242-4.982,4.982-5.351-5.351,5.351-5.351,5.039,5.039Zm-2.779-7.911,3.713-3.713L387,433.952Zm5.351-24.873-5.328-5.27,5.351-5.339.865.865-.784,9.744Zm0-15.106-5.351-5.339,5.351-5.351,2.041,2.076-.588,7.288Zm2.2-12.9.138-.138v.254Zm-2.2-2.2-5.351-5.339,5.351-5.351,3.125,3.125-.392,4.832Z" transform="translate(-5.083 54.828)" fill="#f9d7ae"/>
      <rect id="Rectangle_1200" data-name="Rectangle 1200" width="80.927" height="6.965" rx="2.99" transform="translate(298.72 260.39)" fill="url(#linear-gradient-4)"/>
      <path id="Path_5537" data-name="Path 5537" d="M372.7,234.649h-.058a3.1,3.1,0,0,1-2.306-3.748l16.64-67.724a3.1,3.1,0,0,1,3.748-2.306h.058a3.1,3.1,0,0,1,2.306,3.748l-16.64,67.724a3.1,3.1,0,0,1-3.748,2.306Z" transform="translate(3.504 24.564)" fill="url(#linear-gradient-5)"/>
      <path id="Path_5538" data-name="Path 5538" d="M91.019,362.931a6.8,6.8,0,0,1-6.446-8.983L98.5,312.7a35.032,35.032,0,0,0-.611-24.066L73.733,227.518a6.818,6.818,0,1,1,12.684-5l24.158,61.116a48.674,48.674,0,0,1,.853,33.441L97.453,358.3A6.8,6.8,0,0,1,91.019,362.931Z" transform="translate(-41.976 33.356)" fill="url(#linear-gradient-6)"/>
      <rect id="Rectangle_1201" data-name="Rectangle 1201" width="121.16" height="16.628" rx="7.14" transform="translate(53.817 387.719)" fill="#f7941d"/>
      <rect id="Rectangle_1202" data-name="Rectangle 1202" width="6.804" height="41.178" transform="translate(104.728 404.278)" fill="#f7941d"/>
      <path id="Path_5539" data-name="Path 5539" d="M143.986,354.341h-6.365A3.621,3.621,0,0,1,134,350.72h13.607a3.621,3.621,0,0,1-3.621,3.621Z" transform="translate(-32.674 53.65)" fill="#d47300"/>
      <rect id="Rectangle_1203" data-name="Rectangle 1203" width="13.722" height="40.74" transform="translate(101.268 445.457)" fill="url(#linear-gradient-7)"/>
      <rect id="Rectangle_1204" data-name="Rectangle 1204" width="33.879" height="11.716" rx="5.03" transform="translate(91.19 486.197)" fill="#d47300"/>
      <path id="Path_5540" data-name="Path 5540" d="M91.928,444.507a2.179,2.179,0,0,1-1.268-3.944c18.7-13.365,41.04-15.9,56.5-15.671a2.179,2.179,0,0,1,2.145,2.214,2.306,2.306,0,0,1-2.214,2.145c-14.806-.208-36.151,2.191-53.9,14.864A2.157,2.157,0,0,1,91.928,444.507Z" transform="translate(-39.449 65.007)" fill="#f7941d"/>
      <path id="Path_5541" data-name="Path 5541" d="M195.775,444.508a2.168,2.168,0,0,1-1.268-.4c-17.747-12.685-39.091-15.095-53.9-14.864h0a2.179,2.179,0,0,1,0-4.359c15.429-.242,37.788,2.306,56.5,15.671a2.179,2.179,0,0,1-1.268,3.944Z" transform="translate(-31.996 65.005)" fill="#f7941d"/>
      <path id="Path_5542" data-name="Path 5542" d="M140.579,444.143a2.179,2.179,0,0,1-2.179-2.191V429.429a2.179,2.179,0,1,1,4.359,0v12.523a2.179,2.179,0,0,1-2.179,2.191Z" transform="translate(-32 65.37)" fill="#f7941d"/>
      <rect id="Rectangle_1205" data-name="Rectangle 1205" width="13.722" height="1.441" transform="translate(101.268 445.457)" fill="#ffead1"/>
      <circle id="Ellipse_519" data-name="Ellipse 519" cx="7.253" cy="7.253" r="7.253" transform="translate(156.527 500.081)" fill="#d47300"/>
      <circle id="Ellipse_520" data-name="Ellipse 520" cx="3.402" cy="3.402" r="3.402" transform="translate(160.378 503.932)" fill="#f7941d"/>
      <circle id="Ellipse_521" data-name="Ellipse 521" cx="7.253" cy="7.253" r="7.253" transform="translate(101.326 500.081)" fill="#d47300"/>
      <circle id="Ellipse_522" data-name="Ellipse 522" cx="3.402" cy="3.402" r="3.402" transform="translate(105.178 503.932)" fill="#f7941d"/>
      <circle id="Ellipse_523" data-name="Ellipse 523" cx="7.253" cy="7.253" r="7.253" transform="translate(45.226 500.081)" fill="#d47300"/>
      <circle id="Ellipse_524" data-name="Ellipse 524" cx="3.402" cy="3.402" r="3.402" transform="translate(49.077 503.932)" fill="#f7941d"/>
      <path id="Path_5543" data-name="Path 5543" d="M314.876,186.6h0a1.672,1.672,0,0,1-.415,1.153l-5.3,6.065h4.613a1.153,1.153,0,0,1,1.153,1.153h0a1.153,1.153,0,0,1-1.153,1.153h-5.881a1.672,1.672,0,0,1-1.672-1.672h0a1.661,1.661,0,0,1,.415-1.153l5.3-6.065h-4.613a1.153,1.153,0,0,1-1.153-1.153h0a1.153,1.153,0,0,1,1.153-1.153H313.2A1.672,1.672,0,0,1,314.876,186.6Z" transform="translate(-6.309 28.262)" fill="url(#linear-gradient-8)"/>
      <path id="Path_5544" data-name="Path 5544" d="M321.627,149.637h0a1.557,1.557,0,0,1-.381,1.026l-4.935,5.65h4.255a1.072,1.072,0,0,1,1.072,1.072h0a1.072,1.072,0,0,1-1.072,1.072h-5.477a1.557,1.557,0,0,1-1.557-1.557h0a1.557,1.557,0,0,1,.381-1.026l4.935-5.65h-4.255a1.072,1.072,0,0,1-1.072-1.072h0a1.072,1.072,0,0,1,1.072-1.072h5.477A1.557,1.557,0,0,1,321.627,149.637Z" transform="translate(-5.183 22.619)" fill="url(#linear-gradient-9)"/>
      <path id="Path_5545" data-name="Path 5545" d="M334.2,167.814h0a2.664,2.664,0,0,1-.657,1.753l-8.476,9.709h7.3a1.833,1.833,0,0,1,1.833,1.833h0a1.833,1.833,0,0,1-1.833,1.833h-9.4a2.664,2.664,0,0,1-2.664-2.664h0a2.663,2.663,0,0,1,.657-1.753l8.476-9.709h-7.3a1.833,1.833,0,0,1-1.833-1.833h0a1.833,1.833,0,0,1,1.833-1.833h9.352a2.664,2.664,0,0,1,2.71,2.664Z" transform="translate(-4.145 25.233)" fill="url(#linear-gradient-10)"/>
      <path id="Path_5546" data-name="Path 5546" d="M264.5,161.6a55.881,55.881,0,1,1,55.881-55.881A55.881,55.881,0,0,1,264.5,161.6Zm0-107.415a51.534,51.534,0,1,0,51.534,51.534A51.534,51.534,0,0,0,264.5,54.187Z" transform="translate(-21.247 7.575)" fill="#e4e4e4"/>
      <rect id="Rectangle_1206" data-name="Rectangle 1206" width="4.359" height="5.72" transform="translate(241.075 67.389)" fill="#e4e4e4"/>
      <rect id="Rectangle_1207" data-name="Rectangle 1207" width="4.374" height="5.739" transform="translate(219.506 74.921) rotate(-29.887)" fill="#e4e4e4"/>
      <rect id="Rectangle_1208" data-name="Rectangle 1208" width="4.359" height="5.72" transform="translate(202.403 92.218) rotate(-60)" fill="#e4e4e4"/>
      <rect id="Rectangle_1209" data-name="Rectangle 1209" width="5.72" height="4.359" transform="translate(197.348 111.116)" fill="#e4e4e4"/>
      <rect id="Rectangle_1210" data-name="Rectangle 1210" width="5.72" height="4.359" transform="matrix(0.866, -0.5, 0.5, 0.866, 202.408, 134.365)" fill="#e4e4e4"/>
      <rect id="Rectangle_1211" data-name="Rectangle 1211" width="5.72" height="4.359" transform="translate(218.408 151.938) rotate(-60.02)" fill="#e4e4e4"/>
      <rect id="Rectangle_1212" data-name="Rectangle 1212" width="4.359" height="5.72" transform="translate(241.075 153.482)" fill="#e4e4e4"/>
      <rect id="Rectangle_1213" data-name="Rectangle 1213" width="4.359" height="5.72" transform="translate(261.469 149.206) rotate(-30)" fill="#e4e4e4"/>
      <rect id="Rectangle_1214" data-name="Rectangle 1214" width="4.359" height="5.72" transform="matrix(0.5, -0.866, 0.866, 0.5, 276.982, 135.292)" fill="#e4e4e4"/>
      <rect id="Rectangle_1215" data-name="Rectangle 1215" width="5.72" height="4.359" transform="translate(283.441 111.116)" fill="#e4e4e4"/>
      <rect id="Rectangle_1216" data-name="Rectangle 1216" width="5.72" height="4.359" transform="matrix(0.866, -0.5, 0.5, 0.866, 276.973, 91.316)" fill="#e4e4e4"/>
      <rect id="Rectangle_1217" data-name="Rectangle 1217" width="5.72" height="4.359" transform="matrix(0.5, -0.866, 0.866, 0.5, 261.467, 77.397)" fill="#e4e4e4"/>
      <path id="Path_5547" data-name="Path 5547" d="M260.719,161.6a55.881,55.881,0,1,1,55.892-55.885A55.878,55.878,0,0,1,260.719,161.6Zm0-107.415a51.534,51.534,0,1,0,51.545,51.537,51.531,51.531,0,0,0-51.545-51.537Z" transform="translate(-21.824 7.575)" fill="#f7941d"/>
      <text id="_404" data-name="404" transform="translate(203.951 129.873)" fill="#f7941d" font-size="43" font-family="Almarai-Regular, Almarai"><tspan x="0" y="0">404</tspan></text>
      <rect id="Rectangle_1220" data-name="Rectangle 1220" width="4.359" height="5.72" transform="translate(236.727 67.389)" fill="#f0b447"/>
      <rect id="Rectangle_1221" data-name="Rectangle 1221" width="4.374" height="5.739" transform="translate(215.126 74.921) rotate(-29.887)" fill="#f0b447"/>
      <rect id="Rectangle_1222" data-name="Rectangle 1222" width="4.359" height="5.72" transform="translate(198.05 92.212) rotate(-60)" fill="#f0b447"/>
      <rect id="Rectangle_1223" data-name="Rectangle 1223" width="5.72" height="4.359" transform="translate(192.989 111.116)" fill="#f0b447"/>
      <rect id="Rectangle_1224" data-name="Rectangle 1224" width="5.72" height="4.359" transform="matrix(0.866, -0.5, 0.5, 0.866, 198.054, 134.324)" fill="#f0b447"/>
      <rect id="Rectangle_1225" data-name="Rectangle 1225" width="5.72" height="4.359" transform="matrix(0.5, -0.866, 0.866, 0.5, 214.055, 151.954)" fill="#f0b447"/>
      <rect id="Rectangle_1226" data-name="Rectangle 1226" width="4.359" height="5.72" transform="translate(236.727 153.482)" fill="#f0b447"/>
      <rect id="Rectangle_1227" data-name="Rectangle 1227" width="4.359" height="5.72" transform="translate(257.117 149.206) rotate(-30)" fill="#f0b447"/>
      <rect id="Rectangle_1228" data-name="Rectangle 1228" width="4.359" height="5.72" transform="matrix(0.5, -0.866, 0.866, 0.5, 272.622, 135.295)" fill="#f0b447"/>
      <rect id="Rectangle_1229" data-name="Rectangle 1229" width="5.72" height="4.359" transform="translate(279.093 111.116)" fill="#f0b447"/>
      <rect id="Rectangle_1230" data-name="Rectangle 1230" width="5.72" height="4.359" transform="matrix(0.866, -0.5, 0.5, 0.866, 272.61, 91.316)" fill="#f0b447"/>
      <rect id="Rectangle_1231" data-name="Rectangle 1231" width="5.72" height="4.359" transform="matrix(0.5, -0.866, 0.866, 0.5, 257.132, 77.413)" fill="#f0b447"/>
      <path id="Path_5548" data-name="Path 5548" d="M160.11,96.178,165.253,66.6,188.3,85.846Z" transform="translate(-28.676 10.141)" fill="#f7941d"/>
      <path id="Path_5549" data-name="Path 5549" d="M352.618,130.759,326.811,146.1l-.381-30.016Z" transform="translate(-3.206 17.718)" fill="#363636"/>
      <path id="Path_5550" data-name="Path 5550" d="M292.35,24.3a28.655,28.655,0,0,1,21.229-9.675c9.225-.127,11.97,3.875,17.055,3.875S340.24.05,348.6.05c10.886-.058,14.149,20.261,18.3,19.719s7.657-7.345,16.144-7.161c8.706.185,16.478,11.7,16.478,11.7Z" transform="translate(-8.425 -0.05)" fill="url(#linear-gradient-11)"/>
      <path id="Path_5551" data-name="Path 5551" d="M46.13,23.818s10.609-9.225,21.506-9.34,11.7,4.024,18.785,4.636S98.667,3.466,111.709,3.2s16.063,16.87,25.588,17.412S153.625,16,164.246,16s19.327,7.83,19.327,7.83Z" transform="translate(-46.13 0.432)" fill="url(#linear-gradient-12)"/>
    </g>
  </g>
</svg>
