<svg id="masseg" xmlns="http://www.w3.org/2000/svg" width="111.583" height="87.057" viewBox="0 0 111.583 87.057">
  <path id="Path_2660" data-name="Path 2660" d="M113.717,6H11.149A3.377,3.377,0,0,0,8,9.567V78.86a3.377,3.377,0,0,0,3.149,3.567H80.877a3.022,3.022,0,0,1,2.44,1.314,3.925,3.925,0,0,1,.643,2.973h0c-.636,3.5,3.155,5.774,5.347,3.2l5.473-6.4a2.982,2.982,0,0,1,2.261-1.087h16.675a3.377,3.377,0,0,0,3.149-3.567V9.567A3.377,3.377,0,0,0,113.717,6Z" transform="translate(-5.283 -3.962)" fill="#9f44ac"/>
  <path id="Path_2661" data-name="Path 2661" d="M105.717,0H3.149A3.377,3.377,0,0,0,0,3.567V72.86a3.377,3.377,0,0,0,3.149,3.567H72.877a3.022,3.022,0,0,1,2.44,1.314,3.925,3.925,0,0,1,.643,2.973h0c-.636,3.5,3.155,5.774,5.347,3.2l5.473-6.4a2.982,2.982,0,0,1,2.261-1.087h16.675a3.377,3.377,0,0,0,3.149-3.567V3.567A3.377,3.377,0,0,0,105.717,0Z" fill="#ad75b5"/>
  <path id="Path_2662" data-name="Path 2662" d="M35.041,16.114H18.057A3.057,3.057,0,0,1,15,13.057h0A3.057,3.057,0,0,1,18.057,10H35.041A3.057,3.057,0,0,1,38.1,13.057h0A3.057,3.057,0,0,1,35.041,16.114Z" transform="translate(-11.497 -6.603)" fill="#dcbce1"/>
  <path id="Path_2663" data-name="Path 2663" d="M61.929,197.114H33.057A3.057,3.057,0,0,1,30,194.057h0A3.057,3.057,0,0,1,33.057,191H61.929a3.057,3.057,0,0,1,3.057,3.057h0A3.057,3.057,0,0,1,61.929,197.114Z" transform="translate(-21.402 -126.123)" fill="#dcbce1"/>
  <path id="Path_2664" data-name="Path 2664" d="M333,61.948V32.057A3.057,3.057,0,0,1,336.057,29h0a3.057,3.057,0,0,1,3.057,3.057V61.948a3.057,3.057,0,0,1-3.057,3.057h0A3.057,3.057,0,0,1,333,61.948Z" transform="translate(-236.324 -19.15)" fill="#dcbce1"/>
  <path id="Path_2665" data-name="Path 2665" d="M333,142.4v-.34A3.057,3.057,0,0,1,336.057,139h0a3.057,3.057,0,0,1,3.057,3.057v.34a3.057,3.057,0,0,1-3.057,3.057h0A3.057,3.057,0,0,1,333,142.4Z" transform="translate(-236.324 -91.786)" fill="#dcbce1"/>
  <path id="Path_2666" data-name="Path 2666" d="M95.133,16.114H91.057A3.057,3.057,0,0,1,88,13.057h0A3.057,3.057,0,0,1,91.057,10h4.076a3.057,3.057,0,0,1,3.057,3.057h0a3.057,3.057,0,0,1-3.057,3.057Z" transform="translate(-61.733 -6.603)" fill="#dcbce1"/>
  <g id="Group_547" data-name="Group 547" transform="translate(19.029 6.774)">
    <path id="Path_2667" data-name="Path 2667" d="M150.042,61.851V88.909a6.848,6.848,0,0,1-6.848,6.851H90.348A6.848,6.848,0,0,1,83.5,88.909V61.851a6.756,6.756,0,0,1,.265-1.882A6.844,6.844,0,0,1,90.348,55h52.846a6.841,6.841,0,0,1,6.484,4.653A6.735,6.735,0,0,1,150.042,61.851Z" transform="translate(-83.5 -42.092)" fill="#dfa57a"/>
    <path id="Path_2668" data-name="Path 2668" d="M150.042,56.851V83.909a6.848,6.848,0,0,1-6.848,6.851H90.348A6.848,6.848,0,0,1,83.5,83.909V56.851a6.756,6.756,0,0,1,.265-1.882A6.844,6.844,0,0,1,90.348,50h52.846a6.841,6.841,0,0,1,6.484,4.653A6.735,6.735,0,0,1,150.042,56.851Z" transform="translate(-83.5 -38.791)" fill="#bd8150"/>
    <path id="Path_2669" data-name="Path 2669" d="M150.076,49.851V76.909a6.851,6.851,0,0,1-6.851,6.851H90.351A6.851,6.851,0,0,1,83.5,76.909V49.7a6.658,6.658,0,0,1,.262-1.732A6.844,6.844,0,0,1,90.351,43h52.873a6.844,6.844,0,0,1,6.488,4.653,6.616,6.616,0,0,1,.34,1.515A6.466,6.466,0,0,1,150.076,49.851Z" transform="translate(-83.5 -34.169)" fill="#fbb684"/>
    <path id="Path_2670" data-name="Path 2670" d="M150.048,49.168l-34.1,24.4L83.51,49.7a6.657,6.657,0,0,1,.262-1.732A6.844,6.844,0,0,1,90.358,43h52.873a6.844,6.844,0,0,1,6.488,4.653A6.617,6.617,0,0,1,150.048,49.168Z" transform="translate(-83.507 -34.169)" fill="#dfa57a"/>
    <path id="Path_2671" data-name="Path 2671" d="M91.529,99.323h0A1.529,1.529,0,0,1,90,97.795V83.529A1.529,1.529,0,0,1,91.529,82h0a1.529,1.529,0,0,1,1.529,1.529V97.795A1.529,1.529,0,0,1,91.529,99.323Z" transform="translate(-87.792 -59.921)" fill="#ffe8c9"/>
    <path id="Path_2672" data-name="Path 2672" d="M266.529,86.793h0A1.528,1.528,0,0,1,265,85.265V81.529A1.529,1.529,0,0,1,266.529,80h0a1.529,1.529,0,0,1,1.529,1.529v3.736a1.529,1.529,0,0,1-1.529,1.529Z" transform="translate(-203.35 -58.601)" fill="#ffe8c9"/>
    <path id="Path_2673" data-name="Path 2673" d="M190,149.529h0A1.529,1.529,0,0,1,191.529,148h14.266a1.529,1.529,0,0,1,1.529,1.529h0a1.529,1.529,0,0,1-1.529,1.529H191.529A1.529,1.529,0,0,1,190,149.529Z" transform="translate(-153.825 -103.503)" fill="#fed9b4"/>
    <path id="Path_2674" data-name="Path 2674" d="M244,149.529h0A1.529,1.529,0,0,1,245.529,148H249.6a1.529,1.529,0,0,1,1.529,1.529h0a1.529,1.529,0,0,1-1.529,1.529h-4.076A1.529,1.529,0,0,1,244,149.529Z" transform="translate(-189.483 -103.503)" fill="#fed9b4"/>
    <path id="Path_2675" data-name="Path 2675" d="M91.529,138.057h0A1.529,1.529,0,0,1,90,136.529h0A1.529,1.529,0,0,1,91.529,135h0a1.529,1.529,0,0,1,1.529,1.529h0A1.529,1.529,0,0,1,91.529,138.057Z" transform="translate(-87.792 -94.919)" fill="#ffe8c9"/>
    <path id="Path_2676" data-name="Path 2676" d="M266.529,106.057h0A1.529,1.529,0,0,1,265,104.529h0A1.529,1.529,0,0,1,266.529,103h0a1.529,1.529,0,0,1,1.529,1.529h0A1.529,1.529,0,0,1,266.529,106.057Z" transform="translate(-203.35 -73.788)" fill="#ffe8c9"/>
    <path id="Path_2677" data-name="Path 2677" d="M150.227,47.653,116.114,69.589,84.28,47.969A6.844,6.844,0,0,1,90.866,43h52.873a6.844,6.844,0,0,1,6.488,4.653Z" transform="translate(-84.015 -34.169)" fill="#fed9b4"/>
    <path id="Path_2678" data-name="Path 2678" d="M173.865,101.707l-2.571,2.571a1.7,1.7,0,0,1-2.378,0l-2.221-2.221a1.7,1.7,0,0,1,1.067-2.87l4.789-.34a1.7,1.7,0,0,1,1.315,2.86Z" transform="translate(-138.122 -71.044)" fill="#fdcc99"/>
    <path id="Path_2679" data-name="Path 2679" d="M242.561,49.851V56.76a12.907,12.907,0,0,1-19-11.382A13.06,13.06,0,0,1,223.777,43H235.71a6.844,6.844,0,0,1,6.488,4.653,6.617,6.617,0,0,1,.34,1.515A6.47,6.47,0,0,1,242.561,49.851Z" transform="translate(-175.986 -34.169)" opacity="0.49"/>
    <circle id="Ellipse_313" data-name="Ellipse 313" cx="11.209" cy="11.209" r="11.209" transform="translate(49.273)" fill="#ee4042"/>
    <path id="Path_2680" data-name="Path 2680" d="M255.6,33.885a4,4,0,0,1-1.26.255q-.255,0-.255-.282v-.34a.459.459,0,0,1,.075-.285.948.948,0,0,1,.37-.211,5.775,5.775,0,0,0,1.08-.679,6.865,6.865,0,0,0,1.335-1.359,5.14,5.14,0,0,1,.594-.7.659.659,0,0,1,.313-.054h.679V42.18q0,.18.282.323a.567.567,0,0,1,.292.245,2.409,2.409,0,0,1,.054.679q0,.214-.289.214H255.1q-.238,0-.292-.075a.744.744,0,0,1-.054-.363,1.672,1.672,0,0,1,.044-.51q.044-.1.34-.19.462-.139.462-.4Z" transform="translate(-196.143 -25.733)" fill="#fff"/>
  </g>
</svg>
