<svg xmlns="http://www.w3.org/2000/svg" width="80.001" height="74.395" viewBox="0 0 80.001 74.395">
  <g id="Group_955" data-name="Group 955" transform="translate(-533.999 -854)">
    <path id="ring" d="M30,0C46.569,0,60,12.984,60,29S46.569,58,30,58,0,45.016,0,29c0-9.017,12.953-16.086,20.33-15.734S22.759,0,30,0Z" transform="translate(554 854)" fill="#f7941d" opacity="0.29"/>
    <g id="brainstorm" transform="translate(520.835 855)">
      <g id="enrge">
        <g id="Group_66" data-name="Group 66" transform="translate(40.224 2.566)">
          <path id="Path_347" data-name="Path 347" d="M110.722,4h6.335l-2.447,8.233h5.016l-7.891,15.329,1.346-11.186h-4.4Z" transform="translate(-108.676 -4)" fill="#fcc24c"/>
        </g>
        <g id="Group_67" data-name="Group 67" transform="translate(39.658 2)">
          <path id="Path_348" data-name="Path 348" d="M110.3,26.695a.56.56,0,0,1-.166-.025.566.566,0,0,1-.4-.609l1.27-10.551h-3.766a.567.567,0,0,1-.559-.659L108.73,2.474A.566.566,0,0,1,109.289,2h6.335a.566.566,0,0,1,.543.728l-2.231,7.5h4.257a.567.567,0,0,1,.5.826l-7.891,15.329A.566.566,0,0,1,110.3,26.695Zm-2.391-12.319h3.736a.567.567,0,0,1,.563.634l-.969,8.056,6.023-11.7h-4.087a.567.567,0,0,1-.543-.728l2.231-7.5H109.77Z" transform="translate(-106.678 -2)" fill="#a71e36"/>
        </g>
      </g>
      <g id="enrge-2" data-name="enrge">
        <g id="Group_68" data-name="Group 68" transform="translate(52.271 10.07)">
          <path id="Path_349" data-name="Path 349" d="M152.432,30.485h3.824l-1.477,4.969h3.028l-4.763,9.252.812-6.751H151.2Z" transform="translate(-151.198 -30.485)" fill="#fcc24c"/>
        </g>
        <g id="Group_69" data-name="Group 69" transform="translate(51.705 9.504)">
          <path id="Path_350" data-name="Path 350" d="M151.612,43.839a.567.567,0,0,1-.562-.634l.736-6.117h-2.019a.567.567,0,0,1-.559-.659l1.234-7.469a.567.567,0,0,1,.559-.474h3.824a.566.566,0,0,1,.543.728l-1.26,4.241h2.268a.567.567,0,0,1,.5.826l-4.762,9.252A.568.568,0,0,1,151.612,43.839Zm-1.178-7.885h1.99a.567.567,0,0,1,.562.634l-.435,3.621,2.894-5.623h-2.1a.566.566,0,0,1-.543-.728l1.26-4.241H151.48Z" transform="translate(-149.199 -28.485)" fill="#a71e36"/>
        </g>
      </g>
      <g id="enrge-3" data-name="enrge">
        <g id="Group_70" data-name="Group 70" transform="translate(32.518 4.404)">
          <path id="Path_351" data-name="Path 351" d="M82.71,10.485h3.824l-1.477,4.969h3.028l-4.763,9.252.812-6.751H81.476Z" transform="translate(-81.476 -10.485)" fill="#fcc24c"/>
        </g>
        <g id="Group_71" data-name="Group 71" transform="translate(31.952 3.837)">
          <path id="Path_352" data-name="Path 352" d="M81.89,23.839a.561.561,0,0,1-.166-.025.566.566,0,0,1-.4-.609l.736-6.117H80.045a.567.567,0,0,1-.559-.659L80.72,8.959a.567.567,0,0,1,.559-.474H85.1a.567.567,0,0,1,.543.728l-1.26,4.241h2.268a.567.567,0,0,1,.5.826l-4.763,9.252a.567.567,0,0,1-.5.307Zm-1.178-7.885H82.7a.567.567,0,0,1,.563.634L82.83,20.21l2.895-5.623h-2.1a.567.567,0,0,1-.543-.728l1.26-4.241H81.76Z" transform="translate(-79.478 -8.485)" fill="#a71e36"/>
        </g>
      </g>
      <g id="Group_72" data-name="Group 72" transform="translate(54.049 35.118)">
        <path id="Path_353" data-name="Path 353" d="M166.13,118.9a8.655,8.655,0,0,0-8.655,8.655v3.974h17.311v-3.974A8.656,8.656,0,0,0,166.13,118.9Z" transform="translate(-157.475 -118.896)" fill="#fcc24c"/>
      </g>
      <g id="Group_73" data-name="Group 73" transform="translate(53.483 34.552)">
        <path id="Path_354" data-name="Path 354" d="M173.351,130.659H156.041a.567.567,0,0,1-.567-.567v-3.973a9.222,9.222,0,0,1,18.444,0v3.973A.567.567,0,0,1,173.351,130.659Zm-16.744-1.133h16.178v-3.407a8.089,8.089,0,0,0-16.178,0Z" transform="translate(-155.474 -116.897)" fill="#a71e36"/>
      </g>
      <g id="Group_74" data-name="Group 74" transform="translate(48.149 52.014)">
        <path id="Path_355" data-name="Path 355" d="M147.8,185.328v-6.8h7.243v6.8h6.54a4.608,4.608,0,0,1,4.581,4.617v9.4H136.649v-9.436a4.6,4.6,0,0,1,4.6-4.581Z" transform="translate(-136.649 -178.532)" fill="#526faa"/>
      </g>
      <g id="Group_75" data-name="Group 75" transform="translate(59.303 52.014)">
        <path id="Path_356" data-name="Path 356" d="M176.018,183.684l3.588,4.463,3.655-4.463v-5.151h-7.243Z" transform="translate(-176.018 -178.533)" fill="#ff9f70"/>
      </g>
      <g id="Group_77" data-name="Group 77" transform="translate(71.477 58.811)">
        <g id="Group_76" data-name="Group 76">
          <path id="Path_357" data-name="Path 357" d="M220.6,202.521h-1.609a4.606,4.606,0,0,1,4.581,4.615v9.4h1.609v-9.4A4.608,4.608,0,0,0,220.6,202.521Z" transform="translate(-218.987 -202.521)" fill="#34518c"/>
        </g>
      </g>
      <g id="Group_79" data-name="Group 79" transform="translate(48.149 58.809)">
        <g id="Group_78" data-name="Group 78">
          <path id="Path_358" data-name="Path 358" d="M141.254,202.514l1.609,0a4.6,4.6,0,0,0-4.6,4.581v9.434h-1.609v-9.436A4.6,4.6,0,0,1,141.254,202.514Z" transform="translate(-136.649 -202.514)" fill="#708dc8"/>
        </g>
      </g>
      <g id="Group_80" data-name="Group 80" transform="translate(53.281 67.911)">
        <path id="Path_359" data-name="Path 359" d="M155.33,239.962a.567.567,0,0,1-.567-.567v-4.187a.567.567,0,0,1,1.133,0V239.4A.567.567,0,0,1,155.33,239.962Z" transform="translate(-154.763 -234.642)" fill="none"/>
      </g>
      <g id="Group_81" data-name="Group 81" transform="translate(71.402 67.911)">
        <path id="Path_360" data-name="Path 360" d="M219.291,239.962a.567.567,0,0,1-.567-.567v-4.187a.567.567,0,0,1,1.133,0V239.4A.567.567,0,0,1,219.291,239.962Z" transform="translate(-218.724 -234.642)" fill="none"/>
      </g>
      <g id="Group_82" data-name="Group 82" transform="translate(47.583 51.448)">
        <path id="Path_361" data-name="Path 361" d="M164.734,198.477H135.216a.567.567,0,0,1-.567-.567v-9.436a5.166,5.166,0,0,1,5.166-5.148h.006l5.982,0V177.1a.567.567,0,0,1,.567-.567h7.243a.567.567,0,0,1,.567.567v6.23h5.973a5.172,5.172,0,0,1,5.148,5.184v9.4A.566.566,0,0,1,164.734,198.477Zm-28.951-1.133h28.385v-8.831a4.037,4.037,0,0,0-4.015-4.05h-6.539a.567.567,0,0,1-.567-.567v-6.23h-6.11v6.23a.567.567,0,0,1-.567.567h0l-6.549,0h-.005a4.031,4.031,0,0,0-4.033,4.015v8.869Z" transform="translate(-134.649 -176.532)" fill="none"/>
      </g>
      <g id="Group_91" data-name="Group 91" transform="translate(57.157 56.598)">
        <g id="Group_83" data-name="Group 83" transform="translate(5.734 0.567)">
          <path id="Path_362" data-name="Path 362" d="M192.337,196.713l-3.655,4.463,4.109,3.018,1.093-5.835Z" transform="translate(-188.682 -196.713)" fill="#f4efed"/>
        </g>
        <g id="Group_84" data-name="Group 84" transform="translate(0.566 0.567)">
          <path id="Path_363" data-name="Path 363" d="M172.022,196.713l3.588,4.463-4.074,3.018-1.093-5.836Z" transform="translate(-170.443 -196.713)" fill="#f4efed"/>
        </g>
        <g id="Group_85" data-name="Group 85" transform="translate(5.167 0.001)">
          <path id="Path_364" data-name="Path 364" d="M191.357,203.327a.567.567,0,0,1-.335-.11l-4.109-3.018a.566.566,0,0,1-.1-.816l3.655-4.463a.566.566,0,0,1,.419-.207.573.573,0,0,1,.432.178l1.547,1.646a.567.567,0,0,1,.144.492l-1.093,5.835a.566.566,0,0,1-.557.462Zm-3.292-3.687,2.9,2.131.874-4.666-.908-.966Z" transform="translate(-186.682 -194.714)" fill="none"/>
        </g>
        <g id="Group_86" data-name="Group 86">
          <path id="Path_365" data-name="Path 365" d="M170.1,203.325a.567.567,0,0,1-.557-.462l-1.093-5.836a.566.566,0,0,1,.148-.5l1.579-1.645a.566.566,0,0,1,.85.037l3.588,4.463a.567.567,0,0,1-.1.811l-4.074,3.018A.567.567,0,0,1,170.1,203.325Zm-.482-6.22.873,4.659,2.873-2.128-2.815-3.5Z" transform="translate(-168.445 -194.711)" fill="none"/>
        </g>
        <g id="Group_87" data-name="Group 87" transform="translate(3.15 5.03)">
          <path id="Path_366" data-name="Path 366" d="M179.562,214.378l2.584,2.873,2.6-2.877-2.6-1.91Z" transform="translate(-179.562 -212.465)" fill="#f7941d"/>
        </g>
        <g id="Group_88" data-name="Group 88" transform="translate(3.15 9.817)">
          <path id="Path_367" data-name="Path 367" d="M179.562,235.771l2.584-6.41,2.6,6.414-2.6,0Z" transform="translate(-179.562 -229.361)" fill="#f7941d"/>
        </g>
        <g id="Group_89" data-name="Group 89" transform="translate(2.583 4.463)">
          <path id="Path_368" data-name="Path 368" d="M180.713,216.385h0a.566.566,0,0,1-.42-.188l-2.584-2.873a.566.566,0,0,1,.084-.834l2.584-1.914a.567.567,0,0,1,.673,0l2.6,1.91a.566.566,0,0,1,.085.837l-2.6,2.877a.566.566,0,0,1-.42.187Zm-1.745-3.355,1.747,1.943,1.759-1.945-1.759-1.292Z" transform="translate(-177.563 -210.465)" fill="none"/>
        </g>
        <g id="Group_90" data-name="Group 90" transform="translate(2.583 9.25)">
          <path id="Path_369" data-name="Path 369" d="M183.313,234.908h0l-5.185,0a.567.567,0,0,1-.525-.779l2.584-6.41a.567.567,0,0,1,.525-.355h0a.567.567,0,0,1,.525.354l2.6,6.414a.567.567,0,0,1-.526.78Zm-4.345-1.137,3.5,0-1.758-4.335Z" transform="translate(-177.562 -227.361)" fill="none"/>
        </g>
      </g>
      <g id="Group_92" data-name="Group 92" transform="translate(52.59 45.342)">
        <path id="Path_370" data-name="Path 370" d="M155.242,154.983h-.514a2.4,2.4,0,1,0,0,4.81h.514Z" transform="translate(-152.324 -154.983)" fill="#ffbd8e"/>
      </g>
      <g id="Group_93" data-name="Group 93" transform="translate(69.901 45.342)">
        <path id="Path_371" data-name="Path 371" d="M213.938,154.983h-.514v4.81h.514a2.4,2.4,0,1,0,0-4.81Z" transform="translate(-213.424 -154.983)" fill="#e18152"/>
      </g>
      <g id="Group_94" data-name="Group 94" transform="translate(55.509 37.941)">
        <path id="Path_372" data-name="Path 372" d="M169.821,148.486a7.243,7.243,0,0,1-7.2-7.29V136.15a7.2,7.2,0,1,1,14.392,0V141.2a7.243,7.243,0,0,1-7.2,7.289Z" transform="translate(-162.625 -128.86)" fill="#ff9f70"/>
      </g>
      <g id="Group_95" data-name="Group 95" transform="translate(61.887 37.941)">
        <path id="Path_373" data-name="Path 373" d="M185.957,128.86a7.147,7.147,0,0,0-.818.048,7.256,7.256,0,0,1,6.378,7.241V141.2a7.256,7.256,0,0,1-6.378,7.241,7.154,7.154,0,0,0,.818.048,7.243,7.243,0,0,0,7.2-7.29V136.15A7.244,7.244,0,0,0,185.957,128.86Z" transform="translate(-185.139 -128.86)" fill="#e18152"/>
      </g>
      <g id="Group_96" data-name="Group 96" transform="translate(55.509 37.941)">
        <path id="Path_374" data-name="Path 374" d="M169.821,128.86a7.154,7.154,0,0,1,.818.048,7.256,7.256,0,0,0-6.378,7.241V141.2a7.256,7.256,0,0,0,6.378,7.241,7.154,7.154,0,0,1-.818.048,7.243,7.243,0,0,1-7.2-7.29V136.15A7.243,7.243,0,0,1,169.821,128.86Z" transform="translate(-162.625 -128.86)" fill="#ffbd8e"/>
      </g>
      <g id="Group_97" data-name="Group 97" transform="translate(54.942 37.375)">
        <path id="Path_375" data-name="Path 375" d="M168.388,147.62a7.818,7.818,0,0,1-7.763-7.856v-5.047a7.763,7.763,0,1,1,15.525,0v5.046a7.819,7.819,0,0,1-7.763,7.856Zm0-19.626a6.684,6.684,0,0,0-6.629,6.723v5.046a6.63,6.63,0,1,0,13.259,0v-5.046A6.684,6.684,0,0,0,168.388,127.994Z" transform="translate(-160.625 -126.861)" fill="none"/>
      </g>
      <g id="Group_98" data-name="Group 98" transform="translate(52.023 44.776)">
        <path id="Path_376" data-name="Path 376" d="M153.809,158.927H153.3a2.971,2.971,0,1,1,0-5.943h.514a.567.567,0,0,1,.567.567v4.81a.567.567,0,0,1-.567.566Zm-.567-4.809a1.838,1.838,0,0,0,0,3.674Z" transform="translate(-150.324 -152.984)" fill="#a71e36"/>
      </g>
      <g id="Group_99" data-name="Group 99" transform="translate(69.334 44.776)">
        <path id="Path_377" data-name="Path 377" d="M212.505,158.926h-.514a.567.567,0,0,1-.567-.567v-4.81a.567.567,0,0,1,.567-.567h.514a2.971,2.971,0,0,1,0,5.943Zm.053-4.809v3.675a1.838,1.838,0,0,0,0-3.675Z" transform="translate(-211.425 -152.983)" fill="#a71e36"/>
      </g>
      <g id="Group_100" data-name="Group 100" transform="translate(19.631 35.118)">
        <path id="Path_378" data-name="Path 378" d="M44.644,118.9a8.655,8.655,0,0,0-8.655,8.655v3.974H53.3v-3.974A8.656,8.656,0,0,0,44.644,118.9Z" transform="translate(-35.989 -118.896)" fill="#fcc24c"/>
      </g>
      <g id="Group_101" data-name="Group 101" transform="translate(19.064 34.552)">
        <path id="Path_379" data-name="Path 379" d="M51.866,130.659H34.556a.567.567,0,0,1-.567-.567v-3.973a9.222,9.222,0,0,1,18.444,0v3.973A.567.567,0,0,1,51.866,130.659Zm-16.744-1.133H51.3v-3.407a8.089,8.089,0,1,0-16.177,0v3.407Z" transform="translate(-33.989 -116.897)" fill="#a71e36"/>
      </g>
      <g id="Group_102" data-name="Group 102" transform="translate(13.73 52.014)">
        <path id="Path_380" data-name="Path 380" d="M26.317,185.328v-6.8H33.56v6.8H40.1a4.608,4.608,0,0,1,4.581,4.617v9.4H15.163v-9.436a4.6,4.6,0,0,1,4.605-4.581Z" transform="translate(-15.163 -178.532)" fill="#526faa"/>
      </g>
      <g id="Group_103" data-name="Group 103" transform="translate(24.884 52.014)">
        <path id="Path_381" data-name="Path 381" d="M54.532,183.684l3.588,4.463,3.655-4.463v-5.151H54.532Z" transform="translate(-54.532 -178.533)" fill="#ff9f70"/>
      </g>
      <g id="Group_105" data-name="Group 105" transform="translate(37.058 58.811)">
        <g id="Group_104" data-name="Group 104">
          <path id="Path_382" data-name="Path 382" d="M99.111,202.521H97.5a4.606,4.606,0,0,1,4.581,4.615v9.4h1.609v-9.4A4.608,4.608,0,0,0,99.111,202.521Z" transform="translate(-97.502 -202.521)" fill="#34518c"/>
        </g>
      </g>
      <g id="Group_107" data-name="Group 107" transform="translate(13.73 58.809)">
        <g id="Group_106" data-name="Group 106">
          <path id="Path_383" data-name="Path 383" d="M19.768,202.514l1.609,0a4.6,4.6,0,0,0-4.6,4.581v9.434H15.163v-9.436A4.6,4.6,0,0,1,19.768,202.514Z" transform="translate(-15.163 -202.514)" fill="#708dc8"/>
        </g>
      </g>
      <g id="Group_108" data-name="Group 108" transform="translate(18.862 67.911)">
        <path id="Path_384" data-name="Path 384" d="M33.844,239.962a.567.567,0,0,1-.567-.567v-4.187a.567.567,0,0,1,1.133,0V239.4A.567.567,0,0,1,33.844,239.962Z" transform="translate(-33.277 -234.642)" fill="none"/>
      </g>
      <g id="Group_109" data-name="Group 109" transform="translate(36.983 67.911)">
        <path id="Path_385" data-name="Path 385" d="M97.8,239.962a.567.567,0,0,1-.567-.567v-4.187a.567.567,0,0,1,1.133,0V239.4A.567.567,0,0,1,97.8,239.962Z" transform="translate(-97.237 -234.642)" fill="none"/>
      </g>
      <g id="Group_110" data-name="Group 110" transform="translate(13.164 51.448)">
        <path id="Path_386" data-name="Path 386" d="M43.248,198.477H13.731a.567.567,0,0,1-.567-.567v-9.436a5.166,5.166,0,0,1,5.166-5.148h.006l5.981,0V177.1a.567.567,0,0,1,.567-.567h7.243a.567.567,0,0,1,.567.567v6.23h5.973a5.1,5.1,0,0,1,3.644,1.528,5.156,5.156,0,0,1,1.5,3.657v9.4a.566.566,0,0,1-.566.567ZM14.3,197.343H42.682v-8.831a4.03,4.03,0,0,0-1.175-2.859,3.978,3.978,0,0,0-2.84-1.192H32.127a.567.567,0,0,1-.567-.567v-6.23h-6.11v6.23a.567.567,0,0,1-.567.567l-6.549,0H18.33a4.031,4.031,0,0,0-4.033,4.015Z" transform="translate(-13.164 -176.532)" fill="none"/>
      </g>
      <g id="Group_119" data-name="Group 119" transform="translate(22.738 56.599)">
        <g id="Group_111" data-name="Group 111" transform="translate(5.734 0.567)">
          <path id="Path_387" data-name="Path 387" d="M70.851,196.713,67.2,201.176l4.109,3.018,1.093-5.835Z" transform="translate(-67.196 -196.713)" fill="#f4efed"/>
        </g>
        <g id="Group_112" data-name="Group 112" transform="translate(0.566 0.567)">
          <path id="Path_388" data-name="Path 388" d="M50.536,196.713l3.588,4.463-4.074,3.018-1.093-5.836Z" transform="translate(-48.957 -196.713)" fill="#f4efed"/>
        </g>
        <g id="Group_113" data-name="Group 113" transform="translate(5.167 0)">
          <path id="Path_389" data-name="Path 389" d="M69.872,203.327a.567.567,0,0,1-.335-.11L65.428,200.2a.567.567,0,0,1-.1-.816l3.655-4.463a.567.567,0,0,1,.419-.207.576.576,0,0,1,.432.178l1.547,1.646a.567.567,0,0,1,.144.492l-1.093,5.835a.566.566,0,0,1-.557.462ZM66.58,199.64l2.9,2.131.874-4.666-.907-.966Z" transform="translate(-65.196 -194.714)" fill="none"/>
        </g>
        <g id="Group_114" data-name="Group 114">
          <path id="Path_390" data-name="Path 390" d="M48.617,203.327a.567.567,0,0,1-.557-.462l-1.093-5.836a.566.566,0,0,1,.148-.5l1.579-1.645a.579.579,0,0,1,.434-.174.567.567,0,0,1,.417.211l3.588,4.463a.567.567,0,0,1-.1.811l-4.074,3.018A.568.568,0,0,1,48.617,203.327Zm-.482-6.22.873,4.659,2.873-2.128-2.815-3.5Z" transform="translate(-46.958 -194.713)" fill="none"/>
        </g>
        <g id="Group_115" data-name="Group 115" transform="translate(3.15 5.029)">
          <path id="Path_391" data-name="Path 391" d="M58.077,214.378l2.584,2.873,2.6-2.877-2.6-1.91Z" transform="translate(-58.077 -212.465)" fill="#f7941d"/>
        </g>
        <g id="Group_116" data-name="Group 116" transform="translate(3.15 9.816)">
          <path id="Path_392" data-name="Path 392" d="M58.077,235.771l2.584-6.41,2.6,6.414-2.6,0Z" transform="translate(-58.077 -229.361)" fill="#f7941d"/>
        </g>
        <g id="Group_117" data-name="Group 117" transform="translate(2.584 4.462)">
          <path id="Path_393" data-name="Path 393" d="M59.228,216.385h0a.566.566,0,0,1-.42-.188l-2.584-2.873a.567.567,0,0,1,.084-.834l2.584-1.914a.567.567,0,0,1,.673,0l2.6,1.91a.567.567,0,0,1,.085.837l-2.6,2.877A.566.566,0,0,1,59.228,216.385Zm-1.746-3.355,1.747,1.943,1.759-1.946-1.759-1.291Z" transform="translate(-56.078 -210.464)" fill="none"/>
        </g>
        <g id="Group_118" data-name="Group 118" transform="translate(2.583 9.25)">
          <path id="Path_394" data-name="Path 394" d="M61.827,234.908h0l-5.185,0a.567.567,0,0,1-.525-.779l2.584-6.41a.567.567,0,0,1,.525-.355h0a.567.567,0,0,1,.525.354l2.6,6.414a.567.567,0,0,1-.525.78Zm-4.345-1.137,3.5,0-1.758-4.335Z" transform="translate(-56.076 -227.361)" fill="none"/>
        </g>
      </g>
      <g id="Group_120" data-name="Group 120" transform="translate(18.171 45.342)">
        <path id="Path_395" data-name="Path 395" d="M33.756,154.983h-.514a2.4,2.4,0,0,0,0,4.81h.514Z" transform="translate(-30.838 -154.983)" fill="#ffbd8e"/>
      </g>
      <g id="Group_121" data-name="Group 121" transform="translate(35.482 45.342)">
        <path id="Path_396" data-name="Path 396" d="M92.453,154.983h-.514v4.81h.514a2.4,2.4,0,1,0,0-4.81Z" transform="translate(-91.939 -154.983)" fill="#e18152"/>
      </g>
      <g id="Group_122" data-name="Group 122" transform="translate(21.09 37.941)">
        <path id="Path_397" data-name="Path 397" d="M48.335,148.486a7.243,7.243,0,0,1-7.2-7.29V136.15a7.2,7.2,0,1,1,14.392,0V141.2a7.243,7.243,0,0,1-7.2,7.289Z" transform="translate(-41.139 -128.86)" fill="#ff9f70"/>
      </g>
      <g id="Group_123" data-name="Group 123" transform="translate(27.468 37.941)">
        <path id="Path_398" data-name="Path 398" d="M64.471,128.86a7.151,7.151,0,0,0-.818.048,7.256,7.256,0,0,1,6.378,7.241V141.2a7.256,7.256,0,0,1-6.378,7.241,7.154,7.154,0,0,0,.818.048,7.243,7.243,0,0,0,7.2-7.29V136.15A7.243,7.243,0,0,0,64.471,128.86Z" transform="translate(-63.653 -128.86)" fill="#e18152"/>
      </g>
      <g id="Group_124" data-name="Group 124" transform="translate(21.09 37.941)">
        <path id="Path_399" data-name="Path 399" d="M48.335,128.86a7.154,7.154,0,0,1,.818.048,7.256,7.256,0,0,0-6.378,7.241V141.2a7.256,7.256,0,0,0,6.378,7.241,7.154,7.154,0,0,1-.818.048,7.243,7.243,0,0,1-7.2-7.29V136.15A7.243,7.243,0,0,1,48.335,128.86Z" transform="translate(-41.139 -128.86)" fill="#ffbd8e"/>
      </g>
      <g id="Group_125" data-name="Group 125" transform="translate(20.523 37.375)">
        <path id="Path_400" data-name="Path 400" d="M46.9,147.62a7.819,7.819,0,0,1-7.763-7.856v-5.047a7.763,7.763,0,1,1,15.526,0v5.046A7.819,7.819,0,0,1,46.9,147.62Zm0-19.626a6.684,6.684,0,0,0-6.63,6.723v5.046a6.63,6.63,0,1,0,13.259,0v-5.046A6.684,6.684,0,0,0,46.9,127.994Z" transform="translate(-39.139 -126.861)" fill="none"/>
      </g>
      <g id="Group_126" data-name="Group 126" transform="translate(17.605 44.776)">
        <path id="Path_401" data-name="Path 401" d="M32.323,158.927h-.514a2.971,2.971,0,1,1,0-5.943h.514a.567.567,0,0,1,.567.567v4.81a.567.567,0,0,1-.567.566Zm-.567-4.809a1.838,1.838,0,0,0,0,3.674Z" transform="translate(-28.838 -152.984)" fill="#a71e36"/>
      </g>
      <g id="Group_127" data-name="Group 127" transform="translate(34.915 44.776)">
        <path id="Path_402" data-name="Path 402" d="M91.019,158.926h-.514a.567.567,0,0,1-.567-.567v-4.81a.567.567,0,0,1,.567-.567h.514a2.971,2.971,0,0,1,0,5.943Zm.053-4.809v3.675a1.838,1.838,0,0,0,0-3.675Z" transform="translate(-89.939 -152.983)" fill="#a71e36"/>
      </g>
      <g id="Group_159" data-name="Group 159" transform="translate(27.923 28.291)">
        <g id="Group_128" data-name="Group 128" transform="translate(7.629 0.567)">
          <path id="Path_403" data-name="Path 403" d="M92.186,112.1v-9.962A5.345,5.345,0,0,1,97.531,96.8h9.112a3.66,3.66,0,0,1,3.66,3.66v1.328A1.716,1.716,0,0,1,112,103.5v8.6H92.186Z" transform="translate(-92.186 -96.798)" fill="#fcc24c"/>
        </g>
        <g id="Group_129" data-name="Group 129" transform="translate(20.803 0.567)">
          <path id="Path_404" data-name="Path 404" d="M143.628,101.785v-1.328a3.66,3.66,0,0,0-3.66-3.66h-1.283a3.66,3.66,0,0,1,3.66,3.66v.48a1.061,1.061,0,0,0,.648.981,1.716,1.716,0,0,1,1.054,1.583v8.6h1.283v-8.6A1.716,1.716,0,0,0,143.628,101.785Z" transform="translate(-138.685 -96.797)" fill="#dea42e"/>
        </g>
        <g id="Group_130" data-name="Group 130" transform="translate(7.629 0.567)">
          <path id="Path_405" data-name="Path 405" d="M98.814,96.8H97.531a5.345,5.345,0,0,0-5.345,5.345V112.1h1.283v-9.962A5.345,5.345,0,0,1,98.814,96.8Z" transform="translate(-92.186 -96.797)" fill="#fce06a"/>
        </g>
        <g id="Group_131" data-name="Group 131" transform="translate(7.063)">
          <path id="Path_406" data-name="Path 406" d="M110.572,111.237H90.753a.567.567,0,0,1-.567-.567v-9.962A5.918,5.918,0,0,1,96.1,94.8h9.112a4.232,4.232,0,0,1,4.227,4.227v.837a2.292,2.292,0,0,1,1.7,2.207v8.6A.567.567,0,0,1,110.572,111.237ZM91.319,110.1h18.686v-8.037a1.153,1.153,0,0,0-1.14-1.149.567.567,0,0,1-.562-.567V99.024a3.1,3.1,0,0,0-3.094-3.094H96.1a4.783,4.783,0,0,0-4.778,4.778v9.4Z" transform="translate(-90.186 -94.797)" fill="#a71e36"/>
        </g>
        <g id="Group_132" data-name="Group 132" transform="translate(0.567 20.267)">
          <path id="Path_407" data-name="Path 407" d="M80.263,174.259v-7.925h8.446v7.925h7.626a5.372,5.372,0,0,1,5.342,5.383V190.6H67.257v-11a5.36,5.36,0,0,1,5.369-5.342Z" transform="translate(-67.257 -166.334)" fill="#526faa"/>
        </g>
        <g id="Group_133" data-name="Group 133" transform="translate(13.572 20.268)">
          <path id="Path_408" data-name="Path 408" d="M113.162,172.341l4.183,5.2,4.262-5.2v-6.006h-8.446Z" transform="translate(-113.162 -166.335)" fill="#ff9f70"/>
        </g>
        <g id="Group_135" data-name="Group 135" transform="translate(27.767 28.192)">
          <g id="Group_134" data-name="Group 134">
            <path id="Path_409" data-name="Path 409" d="M165.142,194.306h-1.876a5.37,5.37,0,0,1,5.342,5.381v10.961h1.876V199.689A5.372,5.372,0,0,0,165.142,194.306Z" transform="translate(-163.266 -194.306)" fill="#34518c"/>
          </g>
        </g>
        <g id="Group_137" data-name="Group 137" transform="translate(0.567 28.19)">
          <g id="Group_136" data-name="Group 136">
            <path id="Path_410" data-name="Path 410" d="M72.627,194.3l1.876,0a5.36,5.36,0,0,0-5.369,5.342v11H67.258v-11A5.36,5.36,0,0,1,72.627,194.3Z" transform="translate(-67.258 -194.298)" fill="#708dc8"/>
          </g>
        </g>
        <g id="Group_138" data-name="Group 138" transform="translate(6.645 38.898)">
          <path id="Path_411" data-name="Path 411" d="M89.277,238.108a.567.567,0,0,1-.567-.567v-4.882a.567.567,0,1,1,1.133,0v4.882A.567.567,0,0,1,89.277,238.108Z" transform="translate(-88.71 -232.092)" fill="none"/>
        </g>
        <g id="Group_139" data-name="Group 139" transform="translate(27.774 38.898)">
          <path id="Path_412" data-name="Path 412" d="M163.857,238.108a.567.567,0,0,1-.567-.567v-4.882a.567.567,0,1,1,1.133,0v4.882A.566.566,0,0,1,163.857,238.108Z" transform="translate(-163.29 -232.092)" fill="none"/>
        </g>
        <g id="Group_140" data-name="Group 140" transform="translate(0 19.701)">
          <path id="Path_413" data-name="Path 413" d="M100.242,189.734H65.824a.567.567,0,0,1-.567-.567v-11a5.927,5.927,0,0,1,5.929-5.909h.008l7.069,0V164.9a.567.567,0,0,1,.567-.567h8.446a.567.567,0,0,1,.567.567v7.358H94.9a5.936,5.936,0,0,1,5.908,5.95v10.958a.566.566,0,0,1-.567.567ZM66.39,188.6H99.676V178.209a4.8,4.8,0,0,0-4.776-4.817H87.275a.567.567,0,0,1-.567-.567v-7.358H79.4v7.358a.567.567,0,0,1-.567.567l-7.636,0h-.007a4.794,4.794,0,0,0-4.8,4.776Z" transform="translate(-65.257 -164.334)" fill="none"/>
        </g>
        <g id="Group_149" data-name="Group 149" transform="translate(11.164 25.707)">
          <g id="Group_141" data-name="Group 141" transform="translate(6.592 0.567)">
            <path id="Path_414" data-name="Path 414" d="M132.19,187.534l-4.262,5.2,4.791,3.519,1.274-6.8Z" transform="translate(-127.928 -187.534)" fill="#f4efed"/>
          </g>
          <g id="Group_142" data-name="Group 142" transform="translate(0.567 0.567)">
            <path id="Path_415" data-name="Path 415" d="M108.5,187.534l4.183,5.2-4.751,3.519-1.274-6.8Z" transform="translate(-106.662 -187.534)" fill="#f4efed"/>
          </g>
          <g id="Group_143" data-name="Group 143" transform="translate(6.025)">
            <path id="Path_416" data-name="Path 416" d="M131.286,195.388a.567.567,0,0,1-.335-.11l-4.791-3.519a.567.567,0,0,1-.1-.816l4.262-5.2a.566.566,0,0,1,.419-.207.547.547,0,0,1,.432.178l1.8,1.919a.566.566,0,0,1,.144.492l-1.274,6.8a.567.567,0,0,1-.557.462Zm-3.974-4.189,3.583,2.632,1.056-5.635-1.164-1.239Z" transform="translate(-125.928 -185.532)" fill="none"/>
          </g>
          <g id="Group_144" data-name="Group 144" transform="translate(0 0)">
            <path id="Path_417" data-name="Path 417" d="M106.5,195.389a.567.567,0,0,1-.557-.462l-1.274-6.8a.566.566,0,0,1,.148-.5l1.842-1.918a.576.576,0,0,1,.434-.174.567.567,0,0,1,.417.211l4.184,5.2a.567.567,0,0,1-.1.811l-4.751,3.519a.565.565,0,0,1-.337.111Zm-.664-7.189,1.054,5.628,3.55-2.629-3.41-4.242Z" transform="translate(-104.662 -185.533)" fill="none"/>
          </g>
          <g id="Group_145" data-name="Group 145" transform="translate(3.579 5.771)">
            <path id="Path_418" data-name="Path 418" d="M117.3,208.132l3.012,3.35,3.033-3.354-3.033-2.227Z" transform="translate(-117.295 -205.901)" fill="#f7941d"/>
          </g>
          <g id="Group_146" data-name="Group 146" transform="translate(3.579 11.352)">
            <path id="Path_419" data-name="Path 419" d="M117.3,233.076l3.012-7.474,3.033,7.479-3.033,0Z" transform="translate(-117.295 -225.602)" fill="#f7941d"/>
          </g>
          <g id="Group_147" data-name="Group 147" transform="translate(3.013 5.204)">
            <path id="Path_420" data-name="Path 420" d="M118.876,210.616h0a.566.566,0,0,1-.42-.188l-3.012-3.35a.567.567,0,0,1,.084-.834l3.012-2.231a.567.567,0,0,1,.673,0l3.033,2.227a.566.566,0,0,1,.085.837l-3.033,3.354a.568.568,0,0,1-.42.187Zm-2.175-3.833,2.176,2.42,2.19-2.423-2.19-1.609Z" transform="translate(-115.297 -203.901)" fill="none"/>
          </g>
          <g id="Group_148" data-name="Group 148" transform="translate(3.013 10.786)">
            <path id="Path_421" data-name="Path 421" d="M121.907,232.214h0l-6.046,0a.567.567,0,0,1-.525-.779l3.012-7.474a.567.567,0,0,1,.525-.355h0a.567.567,0,0,1,.525.354l3.033,7.479a.567.567,0,0,1-.525.78Zm-5.206-1.137,4.365,0-2.19-5.4Z" transform="translate(-115.295 -223.602)" fill="none"/>
          </g>
        </g>
        <g id="Group_150" data-name="Group 150" transform="translate(5.745 12.488)">
          <path id="Path_422" data-name="Path 422" d="M88.937,138.875h-.6a2.8,2.8,0,1,0,0,5.608h.6Z" transform="translate(-85.534 -138.875)" fill="#ffbd8e"/>
        </g>
        <g id="Group_151" data-name="Group 151" transform="translate(25.93 12.488)">
          <path id="Path_423" data-name="Path 423" d="M157.378,138.875h-.6v5.608h.6a2.8,2.8,0,0,0,0-5.608Z" transform="translate(-156.779 -138.875)" fill="#e18152"/>
        </g>
        <g id="Group_152" data-name="Group 152" transform="translate(9.148 3.858)">
          <path id="Path_424" data-name="Path 424" d="M105.937,131.3a8.446,8.446,0,0,1-8.391-8.5v-5.884a8.392,8.392,0,1,1,16.782,0V122.8A8.446,8.446,0,0,1,105.937,131.3Z" transform="translate(-97.546 -108.415)" fill="#ff9f70"/>
        </g>
        <g id="Group_153" data-name="Group 153" transform="translate(16.585 3.858)">
          <path id="Path_425" data-name="Path 425" d="M124.751,108.415a8.415,8.415,0,0,0-.954.056,8.461,8.461,0,0,1,7.437,8.444V122.8a8.461,8.461,0,0,1-7.437,8.444,8.344,8.344,0,0,0,.954.056,8.446,8.446,0,0,0,8.391-8.5v-5.884a8.446,8.446,0,0,0-8.391-8.5Z" transform="translate(-123.797 -108.415)" fill="#e18152"/>
        </g>
        <g id="Group_154" data-name="Group 154" transform="translate(9.148 3.858)">
          <path id="Path_426" data-name="Path 426" d="M105.937,108.415a8.406,8.406,0,0,1,.953.056,8.461,8.461,0,0,0-7.437,8.444V122.8a8.461,8.461,0,0,0,7.437,8.444,8.343,8.343,0,0,1-.953.056,8.446,8.446,0,0,1-8.391-8.5v-5.884A8.446,8.446,0,0,1,105.937,108.415Z" transform="translate(-97.546 -108.415)" fill="#ffbd8e"/>
        </g>
        <g id="Group_155" data-name="Group 155" transform="translate(8.581 3.291)">
          <path id="Path_427" data-name="Path 427" d="M104.5,130.432a9.022,9.022,0,0,1-8.958-9.066v-5.885a8.958,8.958,0,1,1,17.915,0v5.885A9.023,9.023,0,0,1,104.5,130.432Zm0-22.884a7.888,7.888,0,0,0-7.824,7.933v5.885a7.825,7.825,0,1,0,15.649,0v-5.885A7.889,7.889,0,0,0,104.5,107.548Z" transform="translate(-95.546 -106.414)" fill="none"/>
        </g>
        <g id="Group_156" data-name="Group 156" transform="translate(5.178 11.922)">
          <path id="Path_428" data-name="Path 428" d="M87.5,143.617h-.6a3.371,3.371,0,0,1,0-6.741h.6a.567.567,0,0,1,.567.567v5.608A.567.567,0,0,1,87.5,143.617Zm-.6-5.608a2.237,2.237,0,0,0,0,4.475h.033v-4.475H86.9Z" transform="translate(-83.534 -136.876)" fill="#a71e36"/>
        </g>
        <g id="Group_157" data-name="Group 157" transform="translate(25.363 11.921)">
          <path id="Path_429" data-name="Path 429" d="M155.946,143.616h-.6a.567.567,0,0,1-.567-.567v-5.608a.567.567,0,0,1,.567-.567h.6a3.371,3.371,0,0,1,0,6.741Zm-.033-1.133h.033a2.237,2.237,0,0,0,0-4.475h-.033Z" transform="translate(-154.78 -136.875)" fill="#a71e36"/>
        </g>
        <g id="Group_158" data-name="Group 158" transform="translate(2.16 34.496)">
          <path id="Path_430" data-name="Path 430" d="M73.447,221.091a.567.567,0,0,1-.567-.567v-3.4a.567.567,0,1,1,1.133,0v3.4A.567.567,0,0,1,73.447,221.091Z" transform="translate(-72.88 -216.557)" fill="none"/>
        </g>
      </g>
    </g>
  </g>
</svg>
