<svg xmlns="http://www.w3.org/2000/svg" width="150.38" height="183.766" viewBox="0 0 150.38 183.766">
  <g id="Q_" data-name="Q?" transform="translate(-7.557 0.456)">
    <g id="Question_Marks" data-name="Question Marks" transform="translate(0 -0.456)">
      <path id="Path_2449" data-name="Path 2449" d="M74.114,145.627a.91.91,0,0,1-.823-.518l-1.974-4.093a.91.91,0,0,1,.669-1.3,2.838,2.838,0,0,0,1.86-1.274,2.556,2.556,0,0,0,.391-1.992,2.62,2.62,0,0,0-1.283-1.592,2.92,2.92,0,0,0-2.233-.309,3.429,3.429,0,0,0-2.224,3.639.919.919,0,0,1-1.819.255,5.271,5.271,0,0,1,3.52-5.663,4.721,4.721,0,0,1,3.661.455,4.453,4.453,0,0,1,2.151,2.729,4.389,4.389,0,0,1-.637,3.429,4.785,4.785,0,0,1-1.96,1.719l1.519,3.184a.91.91,0,0,1-.823,1.31Z" transform="translate(-36.327 -72.083)" fill="#c1c0c0"/>
      <circle id="Ellipse_301" data-name="Ellipse 301" cx="0.75" cy="0.75" r="0.75" transform="translate(38.067 74.743) rotate(-27.12)" fill="#e0e0e0"/>
      <path id="Path_2450" data-name="Path 2450" d="M21.848,120.076a.641.641,0,0,1-.578-.364l-1.364-2.865a.637.637,0,0,1,.455-.91,1.983,1.983,0,0,0,1.3-.91,1.787,1.787,0,0,0,.273-1.392,1.819,1.819,0,0,0-.91-1.114,2.038,2.038,0,0,0-1.56-.214,2.392,2.392,0,0,0-1.556,2.542.638.638,0,1,1-1.264.177,3.68,3.68,0,0,1,2.456-3.943,3.3,3.3,0,0,1,2.556.332,3.111,3.111,0,0,1,1.5,1.915,3.066,3.066,0,0,1-.455,2.4,3.343,3.343,0,0,1-1.364,1.2l1.082,2.238a.641.641,0,0,1-.578.91Z" transform="translate(-9.058 -60.286)" fill="#f7941d"/>
      <circle id="Ellipse_302" data-name="Ellipse 302" cx="0.523" cy="0.523" r="0.523" transform="translate(12.986 60.625) rotate(-27.12)" fill="#f5f5f5"/>
      <path id="Path_2451" data-name="Path 2451" d="M268.335,133.966a.641.641,0,0,1-.082.678l-2,2.47a.637.637,0,0,1-1.019-.032,1.983,1.983,0,0,0-1.364-.8,1.787,1.787,0,0,0-1.364.346,1.819,1.819,0,0,0-.623,1.283,2.037,2.037,0,0,0,.455,1.5,2.392,2.392,0,0,0,2.961.318.639.639,0,0,1,.7,1.069,3.68,3.68,0,0,1-4.617-.532,3.3,3.3,0,0,1-.8-2.452,3.111,3.111,0,0,1,1.087-2.174,3.065,3.065,0,0,1,2.356-.623,3.343,3.343,0,0,1,1.674.723l1.542-1.906a.641.641,0,0,1,1.073.127Z" transform="translate(-142.057 -72.63)" fill="#f7941d"/>
      <circle id="Ellipse_303" data-name="Ellipse 303" cx="0.523" cy="0.523" r="0.523" transform="matrix(0.609, -0.793, 0.793, 0.609, 126.119, 60.159)" fill="#f5f5f5"/>
      <path id="Path_2452" data-name="Path 2452" d="M253.715,3.548a.641.641,0,0,1-.082.678l-2,2.47a.637.637,0,0,1-1.019-.032,1.983,1.983,0,0,0-1.364-.8,1.787,1.787,0,0,0-1.364.346,1.819,1.819,0,0,0-.623,1.283,2.037,2.037,0,0,0,.455,1.5,2.392,2.392,0,0,0,2.961.318.637.637,0,1,1,.71,1.055,3.68,3.68,0,0,1-4.616-.532,3.3,3.3,0,0,1-.787-2.461A3.111,3.111,0,0,1,247.07,5.2a3.065,3.065,0,0,1,2.356-.623A3.343,3.343,0,0,1,251.1,5.3L252.642,3.4a.641.641,0,0,1,1.073.15Z" transform="translate(-134.096 -1.521)" fill="#f7941d"/>
      <circle id="Ellipse_304" data-name="Ellipse 304" cx="0.523" cy="0.523" r="0.523" transform="matrix(0.609, -0.793, 0.793, 0.609, 119.451, 0.829)" fill="#f5f5f5"/>
      <path id="Path_2453" data-name="Path 2453" d="M149.819,24a.832.832,0,0,1,.75.455l1.787,3.725a.828.828,0,0,1-.6,1.178,2.579,2.579,0,0,0-1.692,1.155,2.32,2.32,0,0,0-.355,1.819,2.374,2.374,0,0,0,1.164,1.446,2.652,2.652,0,0,0,2.029.282,3.111,3.111,0,0,0,2.019-3.3.829.829,0,1,1,1.642-.232,4.78,4.78,0,0,1-3.184,5.126,4.28,4.28,0,0,1-3.325-.428,4.039,4.039,0,0,1-1.951-2.488,3.984,3.984,0,0,1,.578-3.111,4.344,4.344,0,0,1,1.778-1.56l-1.364-2.87a.832.832,0,0,1,.728-1.2Z" transform="translate(-80.686 -12.876)" fill="#c1c0c0"/>
      <circle id="Ellipse_305" data-name="Ellipse 305" cx="0.678" cy="0.678" r="0.678" transform="translate(67.028 9.457) rotate(-27.12)" fill="#e0e0e0"/>
      <path id="Path_2454" data-name="Path 2454" d="M285.439,185.8a.832.832,0,0,1,.75.455l1.788,3.73a.828.828,0,0,1-.6,1.178,2.579,2.579,0,0,0-1.692,1.155,2.319,2.319,0,0,0-.355,1.819,2.374,2.374,0,0,0,1.164,1.446,2.652,2.652,0,0,0,2.029.282,3.111,3.111,0,0,0,2.019-3.3.829.829,0,0,1,1.642-.232A4.78,4.78,0,0,1,289,197.457a4.284,4.284,0,0,1-3.325-.428,4.039,4.039,0,0,1-1.951-2.488,3.984,3.984,0,0,1,.578-3.111,4.344,4.344,0,0,1,1.778-1.56L284.711,187a.832.832,0,0,1,.746-1.192Z" transform="translate(-154.622 -101.086)" fill="#c1c0c0"/>
      <circle id="Ellipse_306" data-name="Ellipse 306" cx="0.678" cy="0.678" r="0.678" transform="translate(128.728 83.03) rotate(-27.13)" fill="#e0e0e0"/>
      <path id="Path_2456" data-name="Path 2456" d="M155.1,269.591l-6.927-33.039s-4.062-15.919-18.038-21.409l-.964-.3-1.364-.414c-.564-.218-2.856-.946-3.461-1.132-18.848-6.536-23.851-4.835-43.49,1.869,0,0-8.728,2.347-12.953,13.731S55.57,258.089,55.57,258.089l19.594,6.918,3.757-5.581V297.6h53.9l-1.487-17.57-.259-21.645" transform="translate(-30.295 -113.833)" fill="#f7941d"/>
      <path id="Path_2457" data-name="Path 2457" d="M136.232,226.758a3.032,3.032,0,0,1-.455.418,5.967,5.967,0,0,1-.564.455c-.227.164-.482.359-.787.541a14.559,14.559,0,0,1-2.206,1.146,15.228,15.228,0,0,1-5.949,1.164,14.551,14.551,0,0,1-2.474-.232c-.35-.05-.66-.141-.932-.2a5.981,5.981,0,0,1-.691-.2,3.03,3.03,0,0,1-.573-.218c0-.046.841.241,2.224.455a15.943,15.943,0,0,0,10.516-2.056C135.545,227.322,136.2,226.722,136.232,226.758Z" transform="translate(-66.293 -123.414)" fill="#fafafa"/>
      <g id="Group_533" data-name="Group 533" transform="translate(48.639 159.579)" opacity="0.3">
        <path id="Path_2458" data-name="Path 2458" d="M106.94,350.923l4.416,5.1H115.7v5.553l44.914,10.384-.364-4.325-42.258-14.509h-7.082L107.5,350.4Z" transform="translate(-106.94 -350.4)"/>
      </g>
      <path id="Path_2459" data-name="Path 2459" d="M103.938,328.828l-3.739-.71s-8.878-9.711-10.543-9.852c-1.364-.114-8.924-.041-11.557,0a.91.91,0,0,0-.91.91h0a.91.91,0,0,0,.878.91l8.924.346.041.719L78.1,321.3c-.91.068-1.492,1.51,1.419,1.769l7.477.264v.455l-7.577,1.064c-.382.055-1.392.25-1.4.637,0,0-.455.951,1.7,1.219.741.091,7.323-.127,7.323-.127l-.255.591-6.822,1.469a.969.969,0,0,0-.755,1.082h0a.969.969,0,0,0,1.073.828l7.277-.678,7.141,5.7h9.551Z" transform="translate(-42.082 -173.27)" fill="#ffbe9d"/>
      <path id="Path_2460" data-name="Path 2460" d="M245.61,328.526l-21.8,4.284-2.21-15.5" transform="translate(-120.811 -172.781)" fill="#f7941d"/>
      <path id="Path_2461" data-name="Path 2461" d="M171.652,341.705l-40.4-1.305v13.963l26.807,5.326,18.821,3.006c11.7,0,21.054-10.738,19.244-22.286h-.05Z" transform="translate(-71.554 -185.37)" fill="#f7941d"/>
      <path id="Path_2462" data-name="Path 2462" d="M182.767,341.406a3.236,3.236,0,0,1-.523.036l-1.5.041-5.526.1c-4.667.068-11.111.146-18.229.077s-13.567-.328-18.225-.641c-2.329-.155-4.212-.3-5.508-.455l-1.5-.155a3.243,3.243,0,0,1-.519-.073,3.257,3.257,0,0,1,.523,0l1.5.1c1.3.091,3.184.209,5.513.337,4.657.259,11.1.478,18.193.55s13.558.023,18.225,0h7.027a3.248,3.248,0,0,1,.546.086Z" transform="translate(-71.549 -185.33)" fill="#263238"/>
      <path id="Path_2463" data-name="Path 2463" d="M131.07,340.67a1.525,1.525,0,0,1,0,.25v.723l.027,2.752.045,9.87-.077-.1c4.548.978,10.033,2.188,15.919,3.425,8.073,1.706,15.419,3.056,20.763,3.88,2.67.409,4.839.71,6.336.91l1.724.227.455.064.15.032h-.155l-.455-.041-1.733-.182c-1.5-.168-3.675-.455-6.368-.837-5.353-.782-12.712-2.106-20.786-3.816-5.89-1.237-11.371-2.461-15.919-3.461h-.077v-.082c0-4.093.027-7.482.036-9.87l.027-2.752v-.723a1.523,1.523,0,0,1,.086-.273Z" transform="translate(-71.374 -185.517)" fill="#263238"/>
      <path id="Path_2464" data-name="Path 2464" d="M119.064,237.336a3.776,3.776,0,0,1,.027-.682c.027-.455.073-1.069.086-1.851a31.839,31.839,0,0,0-.423-6.081,17.975,17.975,0,0,0-1.751-5.8,4.635,4.635,0,0,0-1.205-1.364c-.355-.25-.578-.346-.569-.368s.059,0,.168.055a2.861,2.861,0,0,1,.455.237,4.393,4.393,0,0,1,1.3,1.364,9.825,9.825,0,0,1,1.092,2.547,28.571,28.571,0,0,1,.75,3.3,28.254,28.254,0,0,1,.355,6.126c-.036.787-.109,1.419-.164,1.856a3.76,3.76,0,0,1-.118.659Z" transform="translate(-62.82 -120.374)" fill="#263238"/>
      <path id="Path_2465" data-name="Path 2465" d="M221.208,229.71c.064,0,.118,9.283.118,20.731s-.055,20.736-.118,20.736-.118-9.283-.118-20.736S221.145,229.71,221.208,229.71Z" transform="translate(-120.533 -125.024)" fill="#263238"/>
      <path id="Path_2466" data-name="Path 2466" d="M239.085,332.176c0,.046-.687.023-1.778.159a14.508,14.508,0,0,0-1.892.368,14.25,14.25,0,0,0-4.284,1.938,14.518,14.518,0,0,0-1.528,1.178c-.823.732-1.26,1.26-1.292,1.233a1.889,1.889,0,0,1,.282-.391,9.558,9.558,0,0,1,.91-.964,12.646,12.646,0,0,1,1.519-1.237,13.244,13.244,0,0,1,4.353-1.969,12.648,12.648,0,0,1,1.928-.323,9.559,9.559,0,0,1,1.319-.036A1.889,1.889,0,0,1,239.085,332.176Z" transform="translate(-124.469 -180.857)" fill="#263238"/>
      <g id="Group_534" data-name="Group 534" transform="translate(53.142 108.274)" opacity="0.3">
        <path id="Path_2467" data-name="Path 2467" d="M120.319,282.582c6.822-4.066,11.061-10.8,15.214-17.556s8.023-13.849,13.781-19.3c2.647-2.5,5.74-4.616,6.713-8.123l-10.352,8.228L116.84,278.989Z" transform="translate(-116.84 -237.6)"/>
      </g>
      <path id="Path_2468" data-name="Path 2468" d="M75.311,297.312a18.858,18.858,0,0,0-3.489.66,17.433,17.433,0,0,0-2.3,1.014,5.33,5.33,0,0,1-.951.455,4.148,4.148,0,0,1,.869-.6,12.361,12.361,0,0,1,2.306-1.092,9.309,9.309,0,0,1,2.511-.455A3.638,3.638,0,0,1,75.311,297.312Z" transform="translate(-37.383 -161.853)" fill="#263238"/>
      <path id="Path_2469" data-name="Path 2469" d="M75.311,297.312a18.858,18.858,0,0,0-3.489.66,17.433,17.433,0,0,0-2.3,1.014,5.33,5.33,0,0,1-.951.455,4.148,4.148,0,0,1,.869-.6,12.361,12.361,0,0,1,2.306-1.092,9.309,9.309,0,0,1,2.511-.455A3.638,3.638,0,0,1,75.311,297.312Z" transform="translate(-37.383 -161.853)" fill="#263238"/>
      <path id="Path_2470" data-name="Path 2470" d="M172.267,328.329a6.2,6.2,0,0,0-1.574-.723,8.076,8.076,0,0,0-4.648.291c-1.919.619-3.93,1.933-6.4,2.961a9.356,9.356,0,0,1-4.093.787,11.1,11.1,0,0,1-4.294-1.319c-1.365-.687-2.665-1.465-3.971-2.069a12.016,12.016,0,0,0-3.957-1.119,12.9,12.9,0,0,0-6.822,1.233,12.363,12.363,0,0,0-3.793,2.788l-.5.559-.327.455-.2.268a.428.428,0,0,1-.077.086.413.413,0,0,1,.059-.1l.186-.282.309-.455.482-.573a12.075,12.075,0,0,1,3.789-2.874,13,13,0,0,1,6.886-1.3,12.167,12.167,0,0,1,4.034,1.123c1.324.609,2.611,1.364,3.975,2.069a10.916,10.916,0,0,0,4.2,1.3,9.178,9.178,0,0,0,4.016-.755c2.442-1,4.466-2.361,6.431-2.92a8.411,8.411,0,0,1,4.726-.218,4.793,4.793,0,0,1,1.183.541l.277.2A.413.413,0,0,1,172.267,328.329Z" transform="translate(-71.75 -178.006)" fill="#fafafa"/>
      <path id="Path_2471" data-name="Path 2471" d="M240.515,292.783a3.713,3.713,0,0,0-.819-.155,3.961,3.961,0,0,0-2.138.655c-.841.455-1.651,1.324-2.8,1.969a3.638,3.638,0,0,1-1.992.5,5.4,5.4,0,0,1-2.1-.664c-.669-.337-1.287-.714-1.928-.969a9.01,9.01,0,0,0-7.418.341c-.482.241-.732.414-.746.391a.764.764,0,0,1,.173-.136,5.013,5.013,0,0,1,.532-.337,8.237,8.237,0,0,1,2.151-.85,8.391,8.391,0,0,1,1.587-.237,8.527,8.527,0,0,1,1.842.077,8.643,8.643,0,0,1,1.969.537c.664.259,1.287.641,1.947.969a5.234,5.234,0,0,0,2,.646,3.442,3.442,0,0,0,1.874-.455c1.11-.6,1.942-1.451,2.815-1.919a3.907,3.907,0,0,1,2.229-.6,2.124,2.124,0,0,1,.619.146A.771.771,0,0,1,240.515,292.783Z" transform="translate(-120.254 -159.28)" fill="#fafafa"/>
      <path id="Path_2472" data-name="Path 2472" d="M185.8,278.938a1.58,1.58,0,0,1-.309-.055,3.626,3.626,0,0,1-.368-.077l-.509-.068a8.747,8.747,0,0,0-3.243.332,19.849,19.849,0,0,0-4.43,2,44.407,44.407,0,0,1-5.281,2.87,11.27,11.27,0,0,1-3.015.828,7.731,7.731,0,0,1-2.911-.2,13.433,13.433,0,0,1-2.447-.978c-.737-.364-1.41-.723-2.038-1.019a8.693,8.693,0,0,0-3.12-.941,5.513,5.513,0,0,0-.91.027,1.577,1.577,0,0,1-.314,0,1.548,1.548,0,0,1,.3-.068,4.582,4.582,0,0,1,.91-.073,8.4,8.4,0,0,1,3.184.882c.637.287,1.319.637,2.056.992a13.5,13.5,0,0,0,2.415.941,7.558,7.558,0,0,0,2.829.182,11.164,11.164,0,0,0,2.956-.814,46.574,46.574,0,0,0,5.262-2.838,19.359,19.359,0,0,1,4.5-1.969,8.446,8.446,0,0,1,3.3-.259l.514.091c.146.032.268.073.368.1a1.551,1.551,0,0,1,.3.118Z" transform="translate(-85.538 -151.661)" fill="#fafafa"/>
      <path id="Path_2473" data-name="Path 2473" d="M235,248.62a2.515,2.515,0,0,1-.487.282c-.323.168-.787.4-1.364.66a13.06,13.06,0,0,1-2.156.746,7.933,7.933,0,0,1-2.793.191c-.992-.1-1.906-.314-2.729-.428a7.987,7.987,0,0,0-2.233-.041,4.876,4.876,0,0,0-1.919.71,1.015,1.015,0,0,1,.1-.1,2.487,2.487,0,0,1,.341-.246,4.093,4.093,0,0,1,1.451-.523,7.678,7.678,0,0,1,2.274,0c.855.1,1.774.309,2.729.409a9.989,9.989,0,0,0,4.862-.855c.6-.237,1.073-.455,1.405-.591A2.621,2.621,0,0,1,235,248.62Z" transform="translate(-120.658 -135.334)" fill="#fafafa"/>
      <path id="Path_2474" data-name="Path 2474" d="M97.978,264.525a2.414,2.414,0,0,0-.805-.2,3.4,3.4,0,0,0-2.083.773c-.4.277-.8.623-1.292.941a4.762,4.762,0,0,1-1.724.691,8.114,8.114,0,0,1-4.148-.514c-1.41-.509-2.67-1.155-3.88-1.583a10.413,10.413,0,0,0-1.742-.455,7.352,7.352,0,0,0-1.565-.1,5,5,0,0,0-2.179.582c-.455.264-.687.478-.7.455s.045-.059.15-.159a2.984,2.984,0,0,1,.5-.378,4.834,4.834,0,0,1,2.215-.669,7.3,7.3,0,0,1,1.61.068,10.306,10.306,0,0,1,1.783.455c1.228.418,2.5,1.064,3.884,1.565a8.032,8.032,0,0,0,4.053.5,4.617,4.617,0,0,0,1.656-.641c.455-.3.91-.637,1.3-.91a3.393,3.393,0,0,1,2.183-.728,1.633,1.633,0,0,1,.614.164.587.587,0,0,1,.168.127Z" transform="translate(-42.444 -143.665)" fill="#fafafa"/>
      <path id="Path_2475" data-name="Path 2475" d="M175.938,341.86a1.1,1.1,0,0,1,.146.127,3.178,3.178,0,0,1,.359.418,4.348,4.348,0,0,1,.741,1.883,4.3,4.3,0,0,1-.6,2.929c-.6.978-1.633,1.756-2.215,2.879a2.729,2.729,0,0,0-.227,1.769,6.7,6.7,0,0,0,.591,1.624,6.614,6.614,0,0,1,.937,2.847,2.3,2.3,0,0,1-.851,1.819,1.469,1.469,0,0,1-.5.241.532.532,0,0,1-.191,0,2.147,2.147,0,0,0,.637-.337,2.247,2.247,0,0,0,.741-1.742,6.6,6.6,0,0,0-.969-2.752,6.773,6.773,0,0,1-.609-1.637,2.961,2.961,0,0,1,.241-1.919,7.126,7.126,0,0,1,1.137-1.546,11.136,11.136,0,0,0,1.105-1.365,4.189,4.189,0,0,0,.623-2.788,4.548,4.548,0,0,0-.655-1.856C176.111,342.065,175.92,341.878,175.938,341.86Z" transform="translate(-94.784 -186.165)" fill="#fafafa"/>
      <path id="Path_2476" data-name="Path 2476" d="M219.509,362.573a1.777,1.777,0,0,1-.173-.15,1.856,1.856,0,0,1-.35-.546,3.088,3.088,0,0,1,.114-2.347,4.785,4.785,0,0,1,.887-1.4c.387-.455.846-.882,1.305-1.365a7.444,7.444,0,0,0,1.264-1.587,5.367,5.367,0,0,0,.609-2.069,25.75,25.75,0,0,0-.2-4.257,7.386,7.386,0,0,1,.455-3.484,3.97,3.97,0,0,1,1.5-1.819,2.75,2.75,0,0,1,.587-.277.806.806,0,0,1,.218-.05,5.98,5.98,0,0,0-.755.4,4.02,4.02,0,0,0-1.392,1.819,7.382,7.382,0,0,0-.378,3.407,24.318,24.318,0,0,1,.214,4.3,5.544,5.544,0,0,1-.641,2.156,7.533,7.533,0,0,1-1.31,1.628,8.731,8.731,0,0,0-2.188,2.656,3.066,3.066,0,0,0-.182,2.251,2.909,2.909,0,0,0,.414.732Z" transform="translate(-119.288 -186.907)" fill="#fafafa"/>
      <path id="Path_2477" data-name="Path 2477" d="M160.636,391.967a2.869,2.869,0,0,1-.5.318,4.365,4.365,0,0,1-1.651.455,7.136,7.136,0,0,1-2.7-.3,14.676,14.676,0,0,1-3.27-1.51,21.793,21.793,0,0,0-3.871-1.938,9.26,9.26,0,0,0-4.88-.168,29.64,29.64,0,0,0-5.176,1.833,30.64,30.64,0,0,1-5.617,1.938,10.006,10.006,0,0,1-3.029.168,8.1,8.1,0,0,1-2.824-.837,32.479,32.479,0,0,1-4.548-3.156,14.379,14.379,0,0,0-2.16-1.365l-.555-.264c-.186-.082-.378-.141-.569-.214a9.223,9.223,0,0,0-1.133-.337,11.373,11.373,0,0,0-4.289-.173,11.944,11.944,0,0,0-3.407,1.019c-.241.1-.455.241-.673.35a5.07,5.07,0,0,0-.6.359c-.186.123-.373.237-.541.355l-.455.364a8.065,8.065,0,0,0-.737.65,5.1,5.1,0,0,0-.5.518l-.3.332a.743.743,0,0,1-.109.109.713.713,0,0,1,.091-.123L106.9,390a4.717,4.717,0,0,1,.487-.537,7.729,7.729,0,0,1,.719-.682l.455-.373c.168-.123.35-.241.541-.368a5.1,5.1,0,0,1,.6-.373c.218-.114.455-.255.678-.364a11.946,11.946,0,0,1,3.443-1.064,11.463,11.463,0,0,1,4.362.15,9.382,9.382,0,0,1,1.155.337c.191.073.387.132.578.214l.569.268a14.519,14.519,0,0,1,2.2,1.364,33.77,33.77,0,0,0,4.521,3.125,7.883,7.883,0,0,0,2.729.81,9.79,9.79,0,0,0,2.956-.168,30.707,30.707,0,0,0,5.576-1.919,29.561,29.561,0,0,1,5.235-1.8,9.433,9.433,0,0,1,5,.2A21.65,21.65,0,0,1,152.6,390.8a14.755,14.755,0,0,0,3.225,1.528,7.155,7.155,0,0,0,2.656.337,4.514,4.514,0,0,0,1.637-.423A4.225,4.225,0,0,0,160.636,391.967Z" transform="translate(-58.077 -210.284)" fill="#fafafa"/>
      <path id="Path_2478" data-name="Path 2478" d="M159.05,171.25h0a9.46,9.46,0,0,0,9.888-8.619c.264-3,.455-5.567.455-5.567s7.732-.2,8.828-7.778,2.024-25.193,2.024-25.193h0a26.617,26.617,0,0,0-26.958-.1l-1.237.719-2,36.582a9.456,9.456,0,0,0,9,9.961Z" transform="translate(-81.797 -65.418)" fill="#ffbe9d"/>
      <path id="Path_2479" data-name="Path 2479" d="M195,161.391a5.238,5.238,0,0,1,1.737-.141c.277,0,.5-.027.541-.173a1.5,1.5,0,0,0-.1-.81l-.559-2.247c-.75-3.184-1.228-5.781-1.064-5.822s.91,2.506,1.651,5.681l.5,2.242a1.76,1.76,0,0,1,0,1.155.723.723,0,0,1-.528.378,1.77,1.77,0,0,1-.455,0A4.732,4.732,0,0,1,195,161.391Z" transform="translate(-106.309 -82.767)" fill="#263238"/>
      <path id="Path_2480" data-name="Path 2480" d="M181.241,195.893a17.811,17.811,0,0,1-9.551-4.093s1.633,5.772,9.3,6.067Z" transform="translate(-93.601 -104.357)" fill="#eb996e"/>
      <path id="Path_2481" data-name="Path 2481" d="M179.782,123.528s-4.776,2-10.666-1.364c-3.866-2.2-8.442-3.425-9.506-2.683s-1.505,4.826-5.508,5.8c0,0-.159,7.828-3.261,7.377s-.487-12.444-.487-12.444l7.823-3.3,8.4-1.114,7.773,1.537,5.972,2Z" transform="translate(-81.408 -62.924)" fill="#263238"/>
      <path id="Path_2482" data-name="Path 2482" d="M147.653,146.862c-.123-.073-5-2.22-5.526,2.993s4.83,4.648,4.858,4.5S147.653,146.862,147.653,146.862Z" transform="translate(-77.464 -79.586)" fill="#ffbe9d"/>
      <path id="Path_2483" data-name="Path 2483" d="M147.184,154.179a1.578,1.578,0,0,1-.259.109.91.91,0,0,1-.682-.05,2.249,2.249,0,0,1-.841-2.119,3.011,3.011,0,0,1,.382-1.278,1.055,1.055,0,0,1,.75-.632.455.455,0,0,1,.514.3c.055.155,0,.255.041.264s.118-.077.1-.3a.582.582,0,0,0-.173-.346.691.691,0,0,0-.491-.182,1.283,1.283,0,0,0-1.028.714,3.1,3.1,0,0,0-.455,1.424,2.366,2.366,0,0,0,1.105,2.379.978.978,0,0,0,.846-.059C147.161,154.3,147.2,154.189,147.184,154.179Z" transform="translate(-79.069 -81.541)" fill="#eb996e"/>
      <path id="Path_2484" data-name="Path 2484" d="M154.431,112.208a17.937,17.937,0,0,1-3.47,3.106,6.045,6.045,0,0,1-4.453.941,3.69,3.69,0,0,1-2.92-3.22,2.664,2.664,0,0,1,2.979-2.729,1.624,1.624,0,1,1,.955-2.915c-1.319-.246-1.469-2.342-.418-3.184a3.888,3.888,0,0,1,3.839-.15,23.115,23.115,0,0,0,3.7,1.569c2.06.455,4.175-.414,6-1.474s3.557-2.356,5.585-2.915a11.733,11.733,0,0,1,7.573.814,12.221,12.221,0,0,1,5.144,3.752,7.224,7.224,0,0,1,1.364,6.072,5.1,5.1,0,0,1-4.648,3.8,13.859,13.859,0,0,1-8.755-2.429c-3.93-2.915-12.217-2.533-12.217-2.533Z" transform="translate(-78.279 -54.81)" fill="#263238"/>
      <path id="Path_2485" data-name="Path 2485" d="M151.46,112.381a2.087,2.087,0,0,0,.3.241c.2.141.523.337.937.573a17.061,17.061,0,0,0,3.761,1.5,18.116,18.116,0,0,0,5.981.569,44.355,44.355,0,0,0,7.177-1.5,15.393,15.393,0,0,1,7.1-.391,6.841,6.841,0,0,1,4.548,3.243,5.167,5.167,0,0,1,.4,3.784,8.459,8.459,0,0,1-.6,1.319,1.967,1.967,0,0,0,.273-.273,3.832,3.832,0,0,0,.532-.978,5.231,5.231,0,0,0-.246-4.03,7.131,7.131,0,0,0-4.785-3.57,15.771,15.771,0,0,0-7.35.35,45.63,45.63,0,0,1-7.086,1.528,18.6,18.6,0,0,1-5.845-.455A26.477,26.477,0,0,1,151.46,112.381Z" transform="translate(-82.572 -61.056)" fill="#455a64"/>
      <path id="Path_2486" data-name="Path 2486" d="M146.3,130.1c-.059.032.109.541.673,1.187a5.317,5.317,0,0,0,6.14,1.328c.778-.355,1.146-.75,1.105-.8a10.712,10.712,0,0,0-1.246.455,5.749,5.749,0,0,1-5.717-1.237C146.66,130.478,146.374,130.051,146.3,130.1Z" transform="translate(-79.751 -70.716)" fill="#455a64"/>
      <path id="Path_2487" data-name="Path 2487" d="M149.861,124.431c-.132.064.268,1.01,1.278,1.7s2.033.741,2.042.6-.837-.428-1.728-1.055S150,124.345,149.861,124.431Z" transform="translate(-81.687 -67.625)" fill="#455a64"/>
      <path id="Path_2488" data-name="Path 2488" d="M219.073,135.99c.068,0,.218-.241.255-.71a2.884,2.884,0,0,0-1.878-2.884c-.455-.155-.737-.123-.75-.055-.046.15,1.028.455,1.7,1.487S218.918,135.972,219.073,135.99Z" transform="translate(-118.138 -71.911)" fill="#263238"/>
      <path id="Path_2489" data-name="Path 2489" d="M222.047,124a20.609,20.609,0,0,1-2.092,2.456,26.9,26.9,0,0,1-2.756,1.669c.041.159,1.642.023,3.12-1.246A4.346,4.346,0,0,0,222.047,124Z" transform="translate(-118.411 -67.391)" fill="#455a64"/>
      <path id="Path_2490" data-name="Path 2490" d="M207.674,152.549a1.173,1.173,0,0,1-1.274,1.028,1.123,1.123,0,0,1-1.064-1.205,1.173,1.173,0,0,1,1.274-1.028,1.123,1.123,0,0,1,1.064,1.205Z" transform="translate(-111.942 -82.298)" fill="#263238"/>
      <path id="Path_2491" data-name="Path 2491" d="M207,151.868c-.164.132-.96-.632-2.215-.8s-2.274.346-2.37.177c-.059-.077.123-.332.564-.569a3.22,3.22,0,0,1,1.919-.327,3.093,3.093,0,0,1,1.737.823C206.988,151.54,207.084,151.813,207,151.868Z" transform="translate(-110.347 -81.744)" fill="#263238"/>
      <path id="Path_2492" data-name="Path 2492" d="M182.624,149.019a1.173,1.173,0,0,1-1.274,1.028,1.123,1.123,0,0,1-1.064-1.205,1.173,1.173,0,0,1,1.274-1.028,1.123,1.123,0,0,1,1.064,1.205Z" transform="translate(-98.286 -80.374)" fill="#263238"/>
      <path id="Path_2493" data-name="Path 2493" d="M181.722,148.548c-.164.132-.96-.637-2.215-.8s-2.274.346-2.37.177c-.059-.077.123-.332.564-.569a3.22,3.22,0,0,1,1.919-.327,3.093,3.093,0,0,1,1.737.823C181.7,148.2,181.8,148.489,181.722,148.548Z" transform="translate(-96.565 -79.934)" fill="#263238"/>
      <path id="Path_2494" data-name="Path 2494" d="M180.173,140.7c-.246.218-1.187-.455-2.452-.582s-2.324.323-2.52.055c-.091-.127.077-.455.541-.76a3.357,3.357,0,0,1,4.057.432C180.2,140.24,180.291,140.591,180.173,140.7Z" transform="translate(-95.502 -75.529)" fill="#263238"/>
      <path id="Path_2495" data-name="Path 2495" d="M206.715,146.419c.055.15-.159.4-.619.6a3.707,3.707,0,0,1-3.639-.573c-.373-.327-.5-.632-.4-.755.218-.255,1.151.186,2.333.355S206.588,146.11,206.715,146.419Z" transform="translate(-110.138 -79.175)" fill="#263238"/>
      <ellipse id="Ellipse_307" data-name="Ellipse 307" cx="0.514" cy="0.237" rx="0.514" ry="0.237" transform="translate(87.43 81.718) rotate(-86.52)" fill="#263238"/>
      <path id="Path_2496" data-name="Path 2496" d="M148.277,164.85a.641.641,0,0,1-.114.3,1.592,1.592,0,0,1-.659.6,1.655,1.655,0,0,1-1.328.077,1.915,1.915,0,0,1-1.142-1.16,2.056,2.056,0,0,1,1.146-2.511,2.115,2.115,0,0,1,.869-.182.623.623,0,0,1,.323.05,3.484,3.484,0,0,0-1.119.282,1.96,1.96,0,0,0-.864.841,1.879,1.879,0,0,0-.127,1.442,1.737,1.737,0,0,0,.992,1.032,1.519,1.519,0,0,0,1.178-.027A2.06,2.06,0,0,0,148.277,164.85Z" transform="translate(-79.016 -88.1)" fill="#455a64"/>
      <path id="Path_2497" data-name="Path 2497" d="M163.34,215.12s2.538-3.584,4.13-5.6c1.933-2.438,3.084-4.548,3.084-5.681V197.8a2.2,2.2,0,0,1,2.729,2.165c.323,2.734,0,3.42,0,3.42s10.1-6.822,10.784-6.308c1.205.869-1.078,2.683-1.078,2.683l-6.154,5.563,3.507-1.11a1.642,1.642,0,0,1,2.051,1.032h0a1.628,1.628,0,0,1-.628,1.869l-2.074,1.819,1.046-.418a1.606,1.606,0,0,1,2.029.764h0a1.587,1.587,0,0,1-.259,1.819l-1.892,2.015.887-.455a1.151,1.151,0,0,1,1.569.5h0a1.137,1.137,0,0,1-.314,1.405L171.45,223.5Z" transform="translate(-89.049 -107.218)" fill="#ffbe9d"/>
      <path id="Path_2498" data-name="Path 2498" d="M171.352,223.34l-.141-.132-.414-.414-1.606-1.615-6.026-6.1-.046-.045.036-.05c.741-1.046,1.542-2.17,2.415-3.357.455-.591.91-1.2,1.364-1.819s.973-1.242,1.437-1.915a18.529,18.529,0,0,0,1.305-2.138,4.594,4.594,0,0,0,.664-2.456v-5.667h.086a2.547,2.547,0,0,1,1.819.3,2.274,2.274,0,0,1,.664.7,3.237,3.237,0,0,1,.332.91,14.38,14.38,0,0,1,.2,1.888v.964a3.339,3.339,0,0,1-.155.992l-.168-.146c1.56-1.046,3.184-2.106,4.844-3.161.837-.528,1.683-1.055,2.552-1.569a26.2,26.2,0,0,1,2.7-1.446,3.5,3.5,0,0,1,.391-.141,1.127,1.127,0,0,1,.218-.041.454.454,0,0,1,.136,0,.287.287,0,0,1,.123.077.86.86,0,0,1,.341.8,2.775,2.775,0,0,1-.81,1.414c-.368.4-.787.719-1.16,1.073l-1.151,1.042-4.489,4.057-.109-.223,2.051-.65,1.01-.318c.168-.05.332-.109.5-.155a1.66,1.66,0,0,1,.55-.064,1.742,1.742,0,0,1,.91,3.184h0l-2.079,1.8-.109-.177,1.014-.4a1.742,1.742,0,0,1,1.119-.073,1.687,1.687,0,0,1,.91,2.652c-.227.273-.455.5-.682.741l-1.324,1.405-.109-.146.951-.5a1.228,1.228,0,0,1,1.5,1.869,2.012,2.012,0,0,1-.373.341l-.378.3-.737.582-1.41,1.105-4.671,3.639-2.961,2.311-.769.6-.264.2.264-.223.769-.623,2.952-2.37,4.621-3.689,1.392-1.11.728-.582.373-.3a1.858,1.858,0,0,0,.341-.314,1.06,1.06,0,0,0-1.287-1.6l-.941.5-.487.259.378-.4,1.319-1.41c.218-.241.455-.482.669-.728a1.487,1.487,0,0,0-.8-2.338,1.533,1.533,0,0,0-.987.068l-1.014.409-.582.232.455-.409L181.6,206.9h0a1.519,1.519,0,0,0-.8-2.774,2.688,2.688,0,0,0-.978.209l-1.01.318-2.051.65-.5.159.391-.355,4.489-4.062L182.291,200c.382-.359.791-.678,1.142-1.055a2.583,2.583,0,0,0,.746-1.278.614.614,0,0,0-.255-.591c-.027-.068-.146-.032-.268,0a3.291,3.291,0,0,0-.364.132,26.139,26.139,0,0,0-2.665,1.428c-.864.514-1.71,1.037-2.547,1.565-1.669,1.055-3.284,2.11-4.844,3.152l-.291.2.123-.341a3.347,3.347,0,0,0,.132-.91v-.941a14.265,14.265,0,0,0-.2-1.851,3.024,3.024,0,0,0-.3-.832,2.051,2.051,0,0,0-.591-.623,2.338,2.338,0,0,0-1.656-.273l.086-.1v6.254a3.639,3.639,0,0,1-.146.664,8.063,8.063,0,0,1-.514,1.214,18.652,18.652,0,0,1-1.328,2.156c-.455.678-.973,1.305-1.451,1.919s-.932,1.219-1.364,1.819c-.878,1.183-1.687,2.3-2.429,3.343v-.1l5.935,6.131,1.592,1.656.409.455Z" transform="translate(-88.929 -107.12)" fill="#eb996e"/>
      <path id="Path_2499" data-name="Path 2499" d="M111.536,243.065,80.545,284a16.564,16.564,0,0,1-20.226,5.112c-5.144-2.488-8.919-7.659-5.763-18.334l29.687-20.313,18.043-17.415Z" transform="translate(-29.113 -126.845)" fill="#f7941d"/>
      <path id="Path_2500" data-name="Path 2500" d="M65.545,288.926l.337.168.969.514a13.237,13.237,0,0,0,4.052,1.087,13.7,13.7,0,0,0,3.034-.055,15.741,15.741,0,0,0,1.71-.3c.3-.068.587-.164.91-.246a8.363,8.363,0,0,0,.91-.3,17.819,17.819,0,0,0,3.725-1.819,14.674,14.674,0,0,0,3.493-3.052c2.115-2.5,4.3-5.358,6.663-8.41s4.844-6.354,7.446-9.806c5.23-6.922,10.948-14.554,16.92-22.6l.951-1.283v.15l-9.247-10.006h.159c-6.318,5.212-12.162,10.193-17.465,14.627s-10.043,8.337-14.059,11.512-7.277,5.654-9.551,7.314c-1.114.86-2.006,1.46-2.6,1.915l-.682.482-.237.159.223-.177.669-.5c.587-.455,1.474-1.073,2.593-1.924,2.274-1.678,5.5-4.171,9.5-7.364s8.733-7.1,14.022-11.548,11.13-9.429,17.447-14.65l.086-.068.073.082,9.251,10.006.068.073-.059.077-.951,1.246c-5.976,8.037-11.7,15.669-16.938,22.587-2.624,3.457-5.121,6.736-7.486,9.788s-4.548,5.913-6.69,8.4a14.8,14.8,0,0,1-3.539,3.07,17.893,17.893,0,0,1-3.761,1.819,8.453,8.453,0,0,1-.91.3c-.3.082-.6.177-.91.241a15.753,15.753,0,0,1-1.728.3,13.7,13.7,0,0,1-3.056.036,13,13,0,0,1-4.062-1.133c-.428-.227-.746-.414-.96-.537S65.545,288.926,65.545,288.926Z" transform="translate(-34.335 -126.682)" fill="#263238"/>
      <path id="Path_2501" data-name="Path 2501" d="M84.331,330.611a8.463,8.463,0,0,0-1.082-.623,6.554,6.554,0,0,0-3.334-.418,11.829,11.829,0,0,0-2.3.478c-.81.246-1.651.591-2.542.941a26.142,26.142,0,0,1-2.847,1,8.979,8.979,0,0,1-3.234.314,11.2,11.2,0,0,1-3.129-.869c-.969-.4-1.865-.86-2.729-1.251a10.651,10.651,0,0,0-4.839-1.242,5.213,5.213,0,0,0-3.129,1.137,5.044,5.044,0,0,0-.828.91,1.673,1.673,0,0,1,.155-.291,3.639,3.639,0,0,1,.6-.687,5.2,5.2,0,0,1,3.184-1.233,10.729,10.729,0,0,1,4.935,1.21c.878.391,1.774.841,2.729,1.237a11.09,11.09,0,0,0,3.079.832,8.819,8.819,0,0,0,3.152-.3A26.667,26.667,0,0,0,75,330.775c.91-.346,1.737-.687,2.565-.91a11.737,11.737,0,0,1,2.338-.455,6.459,6.459,0,0,1,3.384.5A3.667,3.667,0,0,1,84.331,330.611Z" transform="translate(-29.625 -179.024)" fill="#fafafa"/>
      <path id="Path_2502" data-name="Path 2502" d="M124.292,289.36a1.651,1.651,0,0,0,.118-.81,2.274,2.274,0,0,0-1.364-1.665,7.663,7.663,0,0,0-1.505-.455,7.989,7.989,0,0,1-1.76-.564,11.371,11.371,0,0,1-3.316-2.6,41.7,41.7,0,0,0-2.906-3.006,7.61,7.61,0,0,0-2.915-1.665,5,5,0,0,0-2.274-.155c-.532.1-.81.227-.819.2a.769.769,0,0,1,.2-.1,3.083,3.083,0,0,1,.6-.191,4.848,4.848,0,0,1,2.315.082,7.6,7.6,0,0,1,3.011,1.66,38.329,38.329,0,0,1,2.934,3.011,11.438,11.438,0,0,0,3.238,2.565c1.137.564,2.347.6,3.243,1.069a2.356,2.356,0,0,1,1.364,1.819,1.287,1.287,0,0,1-.1.632A.588.588,0,0,1,124.292,289.36Z" transform="translate(-58.633 -151.49)" fill="#fafafa"/>
      <path id="Path_2503" data-name="Path 2503" d="M197.033,34.211h0a.682.682,0,0,1-.664-.7l.155-6.072a.682.682,0,0,1,.864-.655,4.325,4.325,0,0,0,3.411-.428,3.952,3.952,0,0,0,1.942-2.447,4.03,4.03,0,0,0-.628-3.088,4.385,4.385,0,0,0-2.815-1.956,5.055,5.055,0,0,0-5.458,3.32.683.683,0,1,1-1.287-.455,6.479,6.479,0,0,1,7-4.216,5.754,5.754,0,0,1,3.707,2.552,5.4,5.4,0,0,1,.814,4.143,5.317,5.317,0,0,1-2.583,3.343,5.8,5.8,0,0,1-3.639.737l-.132,5.249a.682.682,0,0,1-.687.673Z" transform="translate(-104.954 -9.292)" fill="#263238"/>
      <circle id="Ellipse_308" data-name="Ellipse 308" cx="0.996" cy="0.996" r="0.996" transform="translate(91.143 26.92)" fill="#263238"/>
      <path id="Path_2504" data-name="Path 2504" d="M32.766,194.059a4.735,4.735,0,0,1-2.847-.91,4.571,4.571,0,0,1-1.742-3.125,4.3,4.3,0,0,1,.91-3.243,4.239,4.239,0,0,1,3.006-1.474,4.6,4.6,0,0,1,2.7.664l1.819-3.407a.682.682,0,0,1,1.205.637l-2.174,4.121a.682.682,0,0,1-1.073.177,3.152,3.152,0,0,0-2.4-.828,2.87,2.87,0,0,0-2.056.982,2.934,2.934,0,0,0-.578,2.2,3.184,3.184,0,0,0,1.205,2.2,3.771,3.771,0,0,0,4.676-.409.682.682,0,1,1,.955.973A5.171,5.171,0,0,1,32.766,194.059Z" transform="translate(-15.342 -99.138)" fill="#263238"/>
      <circle id="Ellipse_309" data-name="Ellipse 309" cx="0.764" cy="0.764" r="0.764" transform="translate(22.037 81.539) rotate(-63.64)" fill="#263238"/>
      <path id="Path_2505" data-name="Path 2505" d="M330.679,168.371a.682.682,0,0,1-.555-.282l-2.729-3.775a.682.682,0,0,1,.318-1.042,3.184,3.184,0,0,0,1.792-1.76,2.87,2.87,0,0,0,.032-2.274,2.934,2.934,0,0,0-1.724-1.505,3.206,3.206,0,0,0-2.5.1,3.77,3.77,0,0,0-1.71,4.375.682.682,0,1,1-1.3.428,5.13,5.13,0,0,1,2.388-6.017,4.571,4.571,0,0,1,3.575-.173,4.3,4.3,0,0,1,2.515,2.233,4.239,4.239,0,0,1,0,3.366A4.616,4.616,0,0,1,329,164.173l2.274,3.125a.682.682,0,0,1-.591,1.073Z" transform="translate(-175.583 -84.931)" fill="#263238"/>
      <circle id="Ellipse_310" data-name="Ellipse 310" cx="0.764" cy="0.764" r="0.764" transform="translate(155.796 84.825) rotate(-37.33)" fill="#263238"/>
    </g>
  </g>
</svg>
