<svg xmlns="http://www.w3.org/2000/svg" width="86.45" height="77.554" viewBox="0 0 86.45 77.554">
  <g id="sale" transform="translate(-1128.549 -854)">
    <path id="ring" d="M30,0C46.569,0,60,12.984,60,29S46.569,58,30,58,0,45.016,0,29c0-9.017,12.953-16.086,20.33-15.734S22.759,0,30,0Z" transform="translate(1154.999 854)" fill="#f7941d" opacity="0.29"/>
    <g id="sale-2" data-name="sale" transform="translate(1128.549 839.987)">
      <g id="red-het">
        <g id="Group_40" data-name="Group 40" transform="translate(0 45.564)">
          <path id="Path_327" data-name="Path 327" d="M76.265,205.108H.6a.6.6,0,0,1-.545-.844l3.978-8.818a1.5,1.5,0,0,0,0-1.23L.054,185.4a.6.6,0,0,1,.545-.844H76.265a.6.6,0,0,1,.548.837l-3.859,8.841a1.5,1.5,0,0,0,0,1.2l3.859,8.841A.6.6,0,0,1,76.265,205.108Z" transform="translate(0 -184.555)" fill="#c73044"/>
        </g>
        <g id="Group_41" data-name="Group 41" transform="translate(0 45.564)">
          <path id="Path_328" data-name="Path 328" d="M72.953,195.431a1.5,1.5,0,0,1,0-1.2l3.859-8.841a.6.6,0,0,0-.548-.837h-8.1l-5.071,11.72a1.1,1.1,0,0,1-1,.66H3.36l-3.306,7.33a.6.6,0,0,0,.545.844H76.265a.6.6,0,0,0,.548-.837Z" transform="translate(0 -184.556)" fill="#a71e36"/>
        </g>
      </g>
      <g id="Group_43" data-name="Group 43" transform="translate(19.781 31.401)">
        <g id="Group_42" data-name="Group 42">
          <path id="Path_329" data-name="Path 329" d="M169.407,90.211H136.5a4.733,4.733,0,0,0-4.733,4.733v3.289l1.944,10.657-1.944,9.9v21.107a5.772,5.772,0,0,1,5.772-5.772h31.869a1.893,1.893,0,0,0,1.893-1.893V118.787l-1.794-10.277L171.3,98.233V92.1A1.893,1.893,0,0,0,169.407,90.211Z" transform="translate(-131.766 -90.211)" fill="#465961"/>
        </g>
      </g>
      <g id="Group_45" data-name="Group 45" transform="translate(19.781 75.311)">
        <g id="Group_44" data-name="Group 44" transform="translate(0 0)">
          <path id="Path_330" data-name="Path 330" d="M166.03,388.478a6.891,6.891,0,0,1,3.123-5.772H137.538a5.772,5.772,0,0,0,0,11.545h30.175a.512.512,0,0,0,.353-.881A6.874,6.874,0,0,1,166.03,388.478Z" transform="translate(-131.766 -382.706)" fill="#eaeaea"/>
        </g>
      </g>
      <g id="Group_47" data-name="Group 47" transform="translate(19.781 31.401)">
        <g id="Group_46" data-name="Group 46">
          <path id="Path_331" data-name="Path 331" d="M169.408,90.211h-5.048v27.767a8.886,8.886,0,0,1-8.886,8.886H131.767v13.03a5.772,5.772,0,0,1,5.772-5.772h31.869a1.893,1.893,0,0,0,1.893-1.893V118.787l-1.794-10.277L171.3,98.233V92.1A1.893,1.893,0,0,0,169.408,90.211Z" transform="translate(-131.767 -90.211)" fill="#394949"/>
        </g>
      </g>
      <g id="Group_49" data-name="Group 49" transform="translate(20.178 75.311)">
        <g id="Group_48" data-name="Group 48">
          <path id="Path_332" data-name="Path 332" d="M168.277,388.477a6.891,6.891,0,0,1,3.123-5.772h-4.725a6.891,6.891,0,0,0-3.123,5.772v.022a2.052,2.052,0,0,1-2.04,2.081h-27.1a5.773,5.773,0,0,0,5.375,3.669h30.175a.512.512,0,0,0,.353-.881A6.874,6.874,0,0,1,168.277,388.477Z" transform="translate(-134.41 -382.705)" fill="#c6d0da"/>
        </g>
      </g>
      <g id="Group_50" data-name="Group 50" transform="translate(27.604 79.959)">
        <path id="Path_333" data-name="Path 333" d="M183.871,413.668v11.144a.463.463,0,0,0,.81.305l1.843-2.1a.3.3,0,0,1,.447,0l1.843,2.1a.463.463,0,0,0,.81-.305V413.668Z" transform="translate(-183.871 -413.668)" fill="#f6e738"/>
      </g>
      <g id="Group_51" data-name="Group 51" transform="translate(30.48 79.959)">
        <path id="Path_334" data-name="Path 334" d="M203.032,413.668v9.251a.3.3,0,0,1,.224.1l1.843,2.1a.463.463,0,0,0,.81-.305V413.668Z" transform="translate(-203.032 -413.668)" fill="#ecc32e"/>
      </g>
      <g id="Group_52" data-name="Group 52" transform="translate(19.781 39.423)">
        <path id="Path_335" data-name="Path 335" d="M131.767,143.648H171.3V164.2H131.767Z" transform="translate(-131.767 -143.648)" fill="#c73044"/>
      </g>
      <g id="Group_53" data-name="Group 53" transform="translate(52.336 39.423)">
        <path id="Path_336" data-name="Path 336" d="M355.6,164.2V143.648h-6.942v19.745c0,.273-.014.542-.038.809h6.98Z" transform="translate(-348.616 -143.648)" fill="#a71e36"/>
      </g>
      <g id="Group_57" data-name="Group 57" transform="translate(28.454 42.412)">
        <g id="Group_54" data-name="Group 54" transform="translate(5.157 0.904)">
          <path id="Path_337" data-name="Path 337" d="M225.01,191.233a1.122,1.122,0,0,1-1.034-1.556l8.144-19.405a1.121,1.121,0,1,1,2.068.868l-8.144,19.405A1.122,1.122,0,0,1,225.01,191.233Z" transform="translate(-223.889 -169.584)" fill="#f8f5f5"/>
        </g>
        <g id="Group_55" data-name="Group 55">
          <path id="Path_338" data-name="Path 338" d="M194.254,174.166c-2.6,0-4.72-2.379-4.72-5.3s2.118-5.3,4.72-5.3,4.72,2.379,4.72,5.3S196.857,174.166,194.254,174.166Zm0-8.363a3.129,3.129,0,1,0,2.477,3.06A2.819,2.819,0,0,0,194.254,165.8Z" transform="translate(-189.534 -163.56)" fill="#f8f5f5"/>
        </g>
        <g id="Group_56" data-name="Group 56" transform="translate(10.999 13.268)">
          <path id="Path_339" data-name="Path 339" d="M267.52,262.546c-2.6,0-4.72-2.379-4.72-5.3s2.117-5.3,4.72-5.3,4.72,2.379,4.72,5.3S270.123,262.546,267.52,262.546Zm0-8.363a3.129,3.129,0,1,0,2.477,3.06A2.818,2.818,0,0,0,267.52,254.183Z" transform="translate(-262.8 -251.94)" fill="#f8f5f5"/>
        </g>
      </g>
      <g id="star2" transform="translate(0.111 30.084)">
        <g id="Group_58" data-name="Group 58" transform="translate(0 0)">
          <path id="Path_340" data-name="Path 340" d="M4.982,81.876l.488.989a.783.783,0,0,0,.59.428l1.092.159a.783.783,0,0,1,.434,1.336l-.79.77a.784.784,0,0,0-.225.693l.186,1.088a.783.783,0,0,1-1.137.826l-.977-.513a.783.783,0,0,0-.729,0l-.977.513A.783.783,0,0,1,1.8,87.339l.186-1.088a.784.784,0,0,0-.225-.693l-.79-.77a.783.783,0,0,1,.434-1.336L2.5,83.293a.783.783,0,0,0,.59-.428l.488-.989A.783.783,0,0,1,4.982,81.876Z" transform="translate(-0.736 -81.439)" fill="#d5b0ec"/>
        </g>
        <g id="Group_59" data-name="Group 59" transform="translate(1.971 0)">
          <path id="Path_341" data-name="Path 341" d="M18.311,83.453l-1.092-.159a.783.783,0,0,1-.59-.428l-.488-.989a.783.783,0,0,0-1.4,0l-.488.989a.782.782,0,0,1-.382.367l.114.231a.783.783,0,0,0,.59.428l1.092.159a.783.783,0,0,1,.434,1.336l-.79.77a.784.784,0,0,0-.225.693l.128.748a.783.783,0,0,1,.595.054l.977.513a.783.783,0,0,0,1.137-.826l-.186-1.087a.784.784,0,0,1,.225-.693l.79-.77A.783.783,0,0,0,18.311,83.453Z" transform="translate(-13.866 -81.439)" fill="#bb80e0"/>
        </g>
      </g>
      <g id="star">
        <g id="Group_61" data-name="Group 61" transform="translate(63.609 79.199)">
          <path id="Path_342" data-name="Path 342" d="M430.155,410.172l-.354,1.045a.783.783,0,0,0,.114.72l.66.884a.783.783,0,0,1-.638,1.252l-1.1-.014a.783.783,0,0,0-.65.331l-.637.9a.783.783,0,0,1-1.388-.22l-.328-1.054a.783.783,0,0,0-.516-.516l-1.054-.328a.783.783,0,0,1-.22-1.388l.9-.637a.784.784,0,0,0,.331-.65l-.014-1.1a.783.783,0,0,1,1.252-.638l.884.66a.784.784,0,0,0,.72.114l1.045-.354A.783.783,0,0,1,430.155,410.172Z" transform="translate(-423.711 -408.602)" fill="#f9f48e"/>
        </g>
        <g id="Group_62" data-name="Group 62" transform="translate(65.347 79.732)">
          <path id="Path_343" data-name="Path 343" d="M440.412,415.842l-.66-.884a.784.784,0,0,1-.114-.72l.354-1.045A.783.783,0,0,0,439,412.2l-1.045.354a.783.783,0,0,1-.53-.011l-.083.244a.783.783,0,0,0,.114.72l.66.884a.783.783,0,0,1-.638,1.252l-1.1-.014a.784.784,0,0,0-.65.331l-.438.619a.782.782,0,0,1,.382.459l.328,1.054a.783.783,0,0,0,1.388.22l.637-.9a.783.783,0,0,1,.65-.331l1.1.014A.783.783,0,0,0,440.412,415.842Z" transform="translate(-435.287 -412.156)" fill="#f6e738"/>
        </g>
      </g>
      <g id="star3">
        <g id="star3-2" data-name="star3" transform="translate(28.408 21.013)">
          <path id="Path_344" data-name="Path 344" d="M195.675,22.582l-.354,1.045a.783.783,0,0,0,.114.72l.66.884a.783.783,0,0,1-.638,1.252l-1.1-.014a.784.784,0,0,0-.65.331l-.637.9a.783.783,0,0,1-1.388-.22l-.328-1.054a.783.783,0,0,0-.516-.516l-1.054-.328a.783.783,0,0,1-.22-1.388l.9-.637a.784.784,0,0,0,.331-.65l-.014-1.1a.783.783,0,0,1,1.252-.638l.884.66a.784.784,0,0,0,.72.114l1.045-.354a.783.783,0,0,1,.993.993Z" transform="translate(-189.231 -21.012)" fill="#f9f48e"/>
        </g>
        <g id="Group_64" data-name="Group 64" transform="translate(30.146 21.546)">
          <path id="Path_345" data-name="Path 345" d="M205.932,28.252l-.66-.884a.784.784,0,0,1-.114-.72l.354-1.045a.783.783,0,0,0-.993-.993l-1.045.354a.782.782,0,0,1-.53-.011l-.083.244a.783.783,0,0,0,.114.72l.66.884A.783.783,0,0,1,203,28.053l-1.1-.014a.784.784,0,0,0-.65.331l-.438.619a.783.783,0,0,1,.382.459l.328,1.054a.783.783,0,0,0,1.388.22l.637-.9a.784.784,0,0,1,.65-.331l1.1.014A.783.783,0,0,0,205.932,28.252Z" transform="translate(-200.807 -24.566)" fill="#f6e738"/>
        </g>
      </g>
      <g id="Group_65" data-name="Group 65" transform="translate(24.634 78.838)">
        <path id="Path_346" data-name="Path 346" d="M179.626,408.44H165.215a1.122,1.122,0,1,1,0-2.243h14.411a1.122,1.122,0,1,1,0,2.243Z" transform="translate(-164.093 -406.197)" fill="#c6d0da"/>
      </g>
    </g>
  </g>
</svg>
