<svg xmlns="http://www.w3.org/2000/svg" width="47.275" height="66.694" viewBox="0 0 47.275 66.694">
  <g id="student" transform="translate(-72.296)">
    <g id="Group_681" data-name="Group 681" transform="translate(72.296)">
      <path id="Path_5364" data-name="Path 5364" d="M116.348,44.052V37.109l-2.93,1.14-.009-.019-.07-.127a7.542,7.542,0,0,0-4.983-3.335l-7.05-1.283v-.557a10.764,10.764,0,0,0,5.169-7.231,4.3,4.3,0,0,0,3.426-4.209V10.877a6.738,6.738,0,0,0-4.813-6.465l-.537-.537A13.23,13.23,0,0,0,81.966,13.23v8.259A4.3,4.3,0,0,0,85.392,25.7a10.764,10.764,0,0,0,5.169,7.231v.557l-7.049,1.282A7.544,7.544,0,0,0,78.531,38.1l-.064.157-2.947-1.146v6.943A3.227,3.227,0,0,0,72.3,47.275v4.3A3.227,3.227,0,0,0,75.519,54.8v3.958l20.414,7.94,20.414-7.94V54.8a3.227,3.227,0,0,0,3.223-3.223v-4.3A3.227,3.227,0,0,0,116.348,44.052Zm-13.029-8.016,4.652.846a5.383,5.383,0,0,1,3.392,2.166l-10.4,4.042ZM92.8,33.913a10.7,10.7,0,0,0,6.264,0l-3.132,2.349Zm1.5,3.808-2.193,2.192-1.423-4.267.684-.124Zm6.2-2.2.684.124-1.423,4.267-2.193-2.192Zm6.178-12.185v-3.7a2.13,2.13,0,0,1,0,3.7Zm-21.489,0a2.13,2.13,0,0,1,0-3.7Zm0-7.222v1.227a4.261,4.261,0,0,0-1.074.445V13.23a11.081,11.081,0,0,1,18.916-7.835l.948.949.289.071a4.592,4.592,0,0,1,3.484,4.462v6.912a4.223,4.223,0,0,0-1.074-.445V16.117h-3.407A9.345,9.345,0,0,1,95.83,12.4l-.854-1.141-2.135,2.136a9.244,9.244,0,0,1-6.578,2.724Zm2.149,7.521V18.216a11.372,11.372,0,0,0,7.022-3.3l.418-.418a11.509,11.509,0,0,0,8.492,3.771h1.258v5.372a8.6,8.6,0,1,1-17.191,0ZM83.9,36.881l4.652-.846L90.9,43.089,80.5,39.046A5.382,5.382,0,0,1,83.9,36.881ZM74.445,51.573v-4.3A1.076,1.076,0,0,1,75.519,46.2a3.223,3.223,0,0,1,0,6.447A1.076,1.076,0,0,1,74.445,51.573Zm20.414,12.4L77.668,57.286V54.341a5.361,5.361,0,0,0,0-9.833V40.25l17.191,6.685Zm-3.19-20.58,4.264-4.266,4.264,4.264-4.264,1.659ZM114.2,57.285,97.008,63.969V46.936L114.2,40.25v4.257a5.361,5.361,0,0,0,0,9.833Zm3.223-5.712a1.076,1.076,0,0,1-1.074,1.074,3.223,3.223,0,1,1,0-6.447,1.076,1.076,0,0,1,1.074,1.074Z" transform="translate(-72.296)" fill="#363636"/>
    </g>
  </g>
</svg>
