<svg xmlns="http://www.w3.org/2000/svg" width="102" height="102" viewBox="0 0 102 102">
  <g id="Group_751" data-name="Group 751" transform="translate(-654 -274)">
    <g id="Ellipse_511" data-name="Ellipse 511" transform="translate(654 274)" fill="#fff" stroke="#f7941d" stroke-width="4">
      <circle cx="51" cy="51" r="51" stroke="none"/>
      <circle cx="51" cy="51" r="49" fill="none"/>
    </g>
    <g id="approval" transform="translate(676 295.5)">
      <path id="Path_5467" data-name="Path 5467" d="M106.232,59.017h30.609a2.721,2.721,0,0,0,2.721-2.721V13.216a2.721,2.721,0,0,0-2.721-2.721H106.686a2.721,2.721,0,0,0-2.721,2.721V56.749a2.268,2.268,0,0,0,2.268,2.268Zm0,0" transform="translate(-92.175 -8.861)" fill="#ffead1"/>
      <path id="Path_5468" data-name="Path 5468" d="M46.274,74.477H12.718A2.721,2.721,0,0,0,10,77.2v43.079A2.721,2.721,0,0,0,12.718,123H46.274a2.721,2.721,0,0,0,2.721-2.721V77.2A2.721,2.721,0,0,0,46.274,74.477Zm0,0" transform="translate(-8.863 -65.587)" fill="#fff"/>
      <path id="Path_5469" data-name="Path 5469" d="M381.024,322.9l8.846,8.846a3.152,3.152,0,0,1-4.458,4.458l-8.846-8.846Zm0,0" transform="translate(-333.863 -285.837)" fill="#ffead1"/>
      <path id="Path_5470" data-name="Path 5470" d="M231.546,165.15a12.728,12.728,0,1,1-12.728-12.728A12.728,12.728,0,0,1,231.546,165.15Zm0,0" transform="translate(-182.72 -134.693)" fill="#f8f4f4"/>
      <path id="Path_5471" data-name="Path 5471" d="M269.939,216.43l-4.776,4.776-2.351-2.351-3.081,3.081,2.351,2.351,3.081,3.081,7.857-7.857Zm0,0" transform="translate(-230.276 -191.442)" fill="#ffead1"/>
      <path id="Path_5472" data-name="Path 5472" d="M56.809,45.107,48.45,36.748A13.925,13.925,0,0,0,48.52,24.3V4.355A3.859,3.859,0,0,0,44.666.5H14.51a3.859,3.859,0,0,0-3.854,3.854v3.4h-6.8A3.859,3.859,0,0,0,0,11.611V54.69a3.859,3.859,0,0,0,3.854,3.854H37.411a3.859,3.859,0,0,0,3.854-3.854v-3.4h3.4a3.861,3.861,0,0,0,3.634-2.57l2.448,2.448a4.286,4.286,0,0,0,6.061-6.06ZM12.924,4.355a1.589,1.589,0,0,1,1.587-1.587H44.666a1.589,1.589,0,0,1,1.587,1.587V21.023c-.115-.124-.232-.247-.353-.368a13.791,13.791,0,0,0-4.635-3.06V11.61a3.859,3.859,0,0,0-3.854-3.854H12.924Zm-.058,3.4h-.016C12.856,7.742,12.861,7.743,12.866,7.756Zm-2.137,0h-.015C10.719,7.744,10.724,7.742,10.729,7.756ZM39,54.689a1.589,1.589,0,0,1-1.587,1.587H3.854a1.589,1.589,0,0,1-1.587-1.587V11.61a1.589,1.589,0,0,1,1.587-1.587H37.411A1.589,1.589,0,0,1,39,11.61v5.3a13.856,13.856,0,0,0-15.079,6.932H7.255a1.134,1.134,0,1,0,0,2.267H22.94a13.956,13.956,0,0,0-.608,5.91H7.255a1.134,1.134,0,0,0,0,2.267H22.779A13.838,13.838,0,0,0,36.1,44.312a13.98,13.98,0,0,0,2.9-.3ZM27.9,38.655a11.594,11.594,0,1,1,16.4,0A11.607,11.607,0,0,1,27.9,38.655Zm18.353,8.779a1.589,1.589,0,0,1-1.587,1.587h-3.4v-5.7q.571-.229,1.124-.51l3.864,3.863Zm8.953,2.129a2.018,2.018,0,0,1-2.854,0l-7.983-7.982a13.894,13.894,0,0,0,2.855-2.854l7.982,7.983a2.021,2.021,0,0,1,0,2.854Zm0,0" fill="#f7941d"/>
      <path id="Path_5473" data-name="Path 5473" d="M261.874,206.764a1.134,1.134,0,0,0-1.6,0l-3.974,3.974-1.55-1.55a1.134,1.134,0,0,0-1.6,0l-3.081,3.081a1.134,1.134,0,0,0,0,1.6l5.433,5.432a1.133,1.133,0,0,0,1.6,0l7.857-7.857a1.134,1.134,0,0,0,0-1.6ZM256.3,216.9l-3.829-3.83,1.478-1.478,1.55,1.55a1.134,1.134,0,0,0,1.6,0l3.974-3.974,1.478,1.478Zm0,0" transform="translate(-221.41 -182.578)" fill="#f7941d"/>
      <path id="Path_5474" data-name="Path 5474" d="M55.118,352.521H70.98a1.134,1.134,0,1,0,0-2.267H55.118a1.134,1.134,0,0,0,0,2.267Zm0,0" transform="translate(-47.863 -310.09)" fill="#f7941d"/>
      <path id="Path_5475" data-name="Path 5475" d="M247.184,422.363a1.134,1.134,0,1,0,.8.332A1.142,1.142,0,0,0,247.184,422.363Zm0,0" transform="translate(-218.148 -374.022)" fill="#f7941d"/>
      <path id="Path_5476" data-name="Path 5476" d="M72.342,422.363H55.118a1.134,1.134,0,0,0,0,2.267H72.342a1.134,1.134,0,1,0,0-2.267Zm0,0" transform="translate(-47.862 -374.022)" fill="#f7941d"/>
      <path id="Path_5477" data-name="Path 5477" d="M55.118,136.724H72.313a1.134,1.134,0,1,0,0-2.267H55.118a1.134,1.134,0,0,0,0,2.267Zm0,0" transform="translate(-47.863 -118.765)" fill="#f7941d"/>
    </g>
  </g>
</svg>
