<svg xmlns="http://www.w3.org/2000/svg" width="102" height="102" viewBox="0 0 102 102">
  <g id="Group_749" data-name="Group 749" transform="translate(-342 -274)">
    <g id="Ellipse_512" data-name="Ellipse 512" transform="translate(342 274)" fill="#fff" stroke="#f7941d" stroke-width="4">
      <circle cx="51" cy="51" r="51" stroke="none"/>
      <circle cx="51" cy="51" r="49" fill="none"/>
    </g>
    <g id="list" transform="translate(364 292)">
      <path id="Path_5478" data-name="Path 5478" d="M62.454,61.727A28.727,28.727,0,1,1,33.727,33,28.727,28.727,0,0,1,62.454,61.727Zm0,0" transform="translate(-4.356 -28.749)" fill="#ffead1"/>
      <path id="Path_5479" data-name="Path 5479" d="M77.3,79.151A26.151,26.151,0,1,1,51.151,53,26.151,26.151,0,0,1,77.3,79.151Zm0,0" transform="translate(-21.779 -46.172)" fill="#ffead1"/>
      <path id="Path_5480" data-name="Path 5480" d="M121.991,131.595a18.4,18.4,0,1,1-18.4-18.4A18.4,18.4,0,0,1,121.991,131.595Zm0,0" transform="translate(-74.224 -98.617)" fill="#ffead1"/>
      <path id="Path_5481" data-name="Path 5481" d="M148.672,215.485l-6.57-6.57a2.569,2.569,0,0,1,3.633-3.633l4.741,4.741L159.6,200.9a2.569,2.569,0,1,1,3.633,3.633L152.3,215.46a2.543,2.543,0,0,1-3.633.026Zm0,0" transform="translate(-123.14 -174.366)" fill="#ffead1"/>
      <path id="Path_5482" data-name="Path 5482" d="M357.688,2.319A2.859,2.859,0,0,1,355.421.051.055.055,0,0,0,355.37,0c-.026,0-.026.026-.051.051a2.859,2.859,0,0,1-2.267,2.267A.055.055,0,0,0,353,2.37c0,.026.026.026.051.052a2.859,2.859,0,0,1,2.267,2.267.055.055,0,0,0,.051.052c.026,0,.026-.026.052-.052a2.858,2.858,0,0,1,2.267-2.267c.026,0,.052-.026.026-.052,0-.051-.026-.051-.026-.051Zm0,0" transform="translate(-307.526 0)" fill="#60bae2"/>
      <path id="Path_5483" data-name="Path 5483" d="M16.284,446.686H14.043a.644.644,0,1,1,0-1.288h2.242a.638.638,0,0,1,.644.644A.655.655,0,0,1,16.284,446.686Zm0,0" transform="translate(-11.672 -388.021)" fill="#6dcc6d"/>
      <path id="Path_5484" data-name="Path 5484" d="M22.644,440.131a.638.638,0,0,1-.644-.644v-2.241a.644.644,0,0,1,1.288,0v2.241A.638.638,0,0,1,22.644,440.131Zm0,0" transform="translate(-19.166 -380.358)" fill="#6dcc6d"/>
      <path id="Path_5485" data-name="Path 5485" d="M80.94,503.282a.742.742,0,0,1-.463-.18.354.354,0,0,1-.077-.1.2.2,0,0,1-.051-.1.229.229,0,0,1-.026-.129c0-.051-.026-.077,0-.129v-.129c0-.051.026-.078.026-.129.026-.051.026-.078.051-.1s.051-.077.077-.1a.634.634,0,0,1,.7-.129c.026.026.077.026.1.052s.077.051.1.077a.365.365,0,0,1,.077.1.2.2,0,0,1,.052.1.194.194,0,0,1,.026.129v.258c0,.051-.026.078-.026.129-.026.051-.026.078-.052.1s-.051.077-.077.1a.363.363,0,0,1-.1.077.2.2,0,0,1-.1.052.233.233,0,0,1-.129.026C81.017,503.282,80.992,503.282,80.94,503.282Zm0,0" transform="translate(-69.964 -437.325)" fill="#fcd770"/>
      <path id="Path_5486" data-name="Path 5486" d="M411.843,54.419h-.129c-.051,0-.077-.026-.129-.026-.051-.026-.077-.026-.1-.052s-.077-.051-.1-.077a.621.621,0,0,1-.181-.464.234.234,0,0,1,.026-.129c0-.051.026-.077.026-.129.026-.051.026-.077.051-.1s.051-.077.078-.1a.345.345,0,0,1,.1-.077.2.2,0,0,1,.1-.051.545.545,0,0,1,.49,0c.051.026.077.026.1.051a.6.6,0,0,1,.18.18.2.2,0,0,1,.052.1.234.234,0,0,1,.026.129c0,.052.026.077.026.129a.743.743,0,0,1-.18.464.365.365,0,0,1-.1.077.193.193,0,0,1-.1.052.233.233,0,0,1-.129.026Zm0,0" transform="translate(-358.228 -46.304)" fill="#f75c64"/>
      <g id="Group_818" data-name="Group 818" transform="translate(0 3.607)">
        <path id="Path_5487" data-name="Path 5487" d="M29.371,86.743A29.371,29.371,0,1,1,58.743,57.371,29.358,29.358,0,0,1,29.371,86.743Zm0-57.454A28.083,28.083,0,1,0,57.454,57.371,28.083,28.083,0,0,0,29.371,29.288Zm0,0" transform="translate(0 -28)" fill="#f7941d"/>
        <path id="Path_5488" data-name="Path 5488" d="M46.795,101.59A26.795,26.795,0,1,1,73.59,74.795,26.807,26.807,0,0,1,46.795,101.59Zm0-52.3A25.507,25.507,0,1,0,72.3,74.795,25.5,25.5,0,0,0,46.795,49.288Zm0,0" transform="translate(-17.424 -45.424)" fill="#f7941d"/>
        <path id="Path_5489" data-name="Path 5489" d="M99.239,146.279a19.04,19.04,0,1,1,19.04-19.04A19.044,19.044,0,0,1,99.239,146.279Zm0-36.792a17.752,17.752,0,1,0,17.752,17.752A17.769,17.769,0,0,0,99.239,109.487Zm0,0" transform="translate(-69.868 -97.868)" fill="#f7941d"/>
        <path id="Path_5490" data-name="Path 5490" d="M146.212,212.237a3.137,3.137,0,0,1-2.267-.953l-6.57-6.57a3.225,3.225,0,0,1,4.534-4.586l.026.026,4.277,4.277,8.657-8.657a3.225,3.225,0,0,1,4.586,4.534l-.026.026-10.95,10.975a3.219,3.219,0,0,1-2.267.927Zm-6.57-11.7a1.931,1.931,0,0,0-1.365,3.3l6.57,6.57a1.944,1.944,0,0,0,2.731,0L158.5,199.484a1.931,1.931,0,1,0-2.731-2.731l-9.121,9.121a.622.622,0,0,1-.9,0l-4.741-4.766A1.931,1.931,0,0,0,139.642,200.54Zm0,0" transform="translate(-118.85 -173.333)" fill="#f7941d"/>
      </g>
    </g>
  </g>
</svg>
