<svg xmlns="http://www.w3.org/2000/svg" width="102" height="102" viewBox="0 0 102 102">
  <g id="Group_753" data-name="Group 753" transform="translate(-965 -274)">
    <g id="Ellipse_510" data-name="Ellipse 510" transform="translate(965 274)" fill="#fff" stroke="#f7941d" stroke-width="4">
      <circle cx="51" cy="51" r="51" stroke="none"/>
      <circle cx="51" cy="51" r="49" fill="none"/>
    </g>
    <g id="checklist" transform="translate(986 296)">
      <path id="Path_5437" data-name="Path 5437" d="M308.045,362.772v7.412H296v-4.327a2.432,2.432,0,0,0,.741-1.2l.992-3.623a12.408,12.408,0,0,1,2.372.547l1.566.518a12.868,12.868,0,0,0,4.1.667,11.959,11.959,0,0,0,2.233-.2Zm0,0" transform="translate(-261.719 -319.225)" fill="#f8f4f4"/>
      <path id="Path_5438" data-name="Path 5438" d="M325.188,288.547a1.854,1.854,0,0,1-1.316,3.16H322L323,288h.871A1.851,1.851,0,0,1,325.188,288.547Zm0,0" transform="translate(-284.708 -254.646)" fill="#ccd1d9"/>
      <path id="Path_5439" data-name="Path 5439" d="M232.859,288.055l-.982,3.65H228.94a3.73,3.73,0,0,0-2.622,1.084l-.157-.157,3.549-3.549A3.71,3.71,0,0,1,232.331,288h.315Zm0,0" transform="translate(-199.967 -254.645)" fill="#e6e9ed"/>
      <path id="Path_5440" data-name="Path 5440" d="M198.724,248.139l-1.232,4.549-.213-.056h-.315a3.71,3.71,0,0,0-2.622,1.084l-3.549,3.549-1.269,1.279a1.964,1.964,0,0,1-1.39.575,2,2,0,0,1-1.4-.575,1.957,1.957,0,0,1,.009-2.78l6.671-6.68A3.71,3.71,0,0,1,196.038,248h2.168Zm0,0" transform="translate(-164.6 -219.278)" fill="#f0d0b4"/>
      <path id="Path_5441" data-name="Path 5441" d="M133.31,34.869V13.559H112V8h33.355V38.575l-.065.093-3.382-2.252a3.676,3.676,0,0,0-2.057-.621h-1.279l1.788-6.606.992-3.688,1.39-5.142a2.521,2.521,0,0,0,.083-.639,2.452,2.452,0,0,0-2.446-2.455h-.306a2.447,2.447,0,0,0-2.362,1.816l-1.288,4.781-1,3.678-1.992,7.366Zm0,0" transform="translate(-99.029 -7.074)" fill="#f8f4f4"/>
      <path id="Path_5442" data-name="Path 5442" d="M41.355,77.31l.12.037L41.2,78.375l-.519-.139H38.51a3.71,3.71,0,0,0-2.622,1.084L29.217,86a1.957,1.957,0,0,0-.009,2.78,2,2,0,0,0,1.4.575A1.964,1.964,0,0,0,32,88.78L33.266,87.5l.157.157a3.73,3.73,0,0,0-1.084,2.622.929.929,0,0,0,.927.927h4.466l-.667,2.465a2.536,2.536,0,0,0-.093.639,2.459,2.459,0,0,0,2.455,2.455h.306a2.437,2.437,0,0,0,1.621-.621v9.886H8V56H41.355Zm0,0" transform="translate(-7.073 -49.514)" fill="#f8f4f4"/>
      <path id="Path_5443" data-name="Path 5443" d="M40,88H62.237v7.412H40Zm0,0" transform="translate(-35.367 -77.808)" fill="#ffead1"/>
      <path id="Path_5444" data-name="Path 5444" d="M46.486,352h2.78v9.265H40V352Zm0,0" transform="translate(-35.367 -311.233)" fill="#ffead1"/>
      <path id="Path_5445" data-name="Path 5445" d="M46.486,216h2.78v9.265H40V216Zm0,0" transform="translate(-35.367 -190.984)" fill="#ffead1"/>
      <path id="Path_5446" data-name="Path 5446" d="M329.281,90.455a2.521,2.521,0,0,1-.083.639l-1.39,5.142-4.929-1.64,1.288-4.781A2.447,2.447,0,0,1,326.529,88h.306a2.452,2.452,0,0,1,2.446,2.455Zm0,0" transform="translate(-285.484 -77.808)" fill="#f8f4f4"/>
      <path id="Path_5447" data-name="Path 5447" d="M320.168,146.6l-.992,3.688-4.938-1.65,1-3.678Zm0,0" transform="translate(-277.844 -128.172)" fill="#e6e9ed"/>
      <path id="Path_5448" data-name="Path 5448" d="M262.543,364.939a2.437,2.437,0,0,1-1.621.621h-.306a2.459,2.459,0,0,1-2.455-2.455,2.536,2.536,0,0,1,.093-.639L258.92,360h3.623a12.028,12.028,0,0,1,1.733.12l-.992,3.623A2.433,2.433,0,0,1,262.543,364.939Zm0,0" transform="translate(-228.261 -318.307)" fill="#f8f4f4"/>
      <path id="Path_5449" data-name="Path 5449" d="M283.154,184.974l-2.252,8.339h-5.383l.982-3.65,1.232-4.549.278-1.028L280,176.719l4.938,1.649Zm0,0" transform="translate(-243.61 -156.252)" fill="#f8f4f4"/>
      <path id="Path_5450" data-name="Path 5450" d="M228.908,261.092a12.033,12.033,0,0,0-1.733-.12h-8.089a.929.929,0,0,1-.927-.927,3.7,3.7,0,0,1,3.706-3.706h10.192a1.853,1.853,0,1,0,0-3.706h-.871L232.438,248h1.279a3.677,3.677,0,0,1,2.057.621l3.382,2.252,3.094,2.066a3.678,3.678,0,0,0,2.057.621h6.031v7.412h-2.78a12.877,12.877,0,0,0-3.15.389l-4.308,1.075c-.306.074-.612.139-.917.185a11.962,11.962,0,0,1-2.233.2,12.868,12.868,0,0,1-4.1-.667l-1.566-.518A12.4,12.4,0,0,0,228.908,261.092Zm0,0" transform="translate(-192.894 -219.278)" fill="#f0d0b4"/>
      <path id="Path_5465" data-name="Path 5465" d="M9.265,1.919A4.633,4.633,0,1,1,0,1.919C0-.64,9.265-.64,9.265,1.919Z" transform="translate(59.331 33.322) rotate(90)" fill="#f0d0b4"/>
      <path id="Path_5466" data-name="Path 5466" d="M9.265,1.919c0,2.559-1.8,0-4.355,0S0,4.477,0,1.919,9.265-.64,9.265,1.919Z" transform="translate(59.331 33.322) rotate(90)" fill="#f7941d"/>
      <path id="Path_5451" data-name="Path 5451" d="M40.826,29.649a2.769,2.769,0,0,1,1.542.467l6.471,4.314a4.627,4.627,0,0,0,2.57.778h6.036V33.355H51.409a2.773,2.773,0,0,1-1.543-.467l-2.614-1.743V0H12.045V5.559H0V57.444H35.208V51.885H47.253V44.09c.058-.014.119-.019.177-.033l4.309-1.077a12.117,12.117,0,0,1,2.926-.36h2.78V40.767h-2.78a13.935,13.935,0,0,0-3.374.415l-4.31,1.077A12.112,12.112,0,0,1,40.242,42l-1.561-.521a13.882,13.882,0,0,0-4.4-.713H26.2a2.783,2.783,0,0,1,2.78-2.78H39.168a2.772,2.772,0,0,0,.325-5.527l.76-2.812Zm-1.17,14.11a13.87,13.87,0,0,0,4.4.714c.45,0,.9-.039,1.345-.082v5.641H35.208V47a3.342,3.342,0,0,0,.713-1.321l.759-2.81a11.959,11.959,0,0,1,1.415.369Zm-4.833-1.117-.69,2.555a1.53,1.53,0,0,1-1.475,1.13h-.3A1.527,1.527,0,0,1,30.883,44.4l.481-1.781h2.918c.181,0,.361.014.541.021Zm-5.379-.021-.35,1.3a3.358,3.358,0,0,0,1.591,3.8l-.291,1.162,1.8.45.288-1.151h.178a3.365,3.365,0,0,0,.7-.081v7.494H1.853V7.412H13.9V1.853H45.4V29.91l-2-1.336a4.625,4.625,0,0,0-2.57-.778h-.071L44.61,13.528a3.382,3.382,0,0,0-3.263-4.263h-.3a3.387,3.387,0,0,0-3.263,2.5l-2.576,9.53V5.559H15.751V7.412h17.6V27.8H31.439a4.582,4.582,0,0,0-2.753.927H19.457v1.853h7.282l-1.853,1.853H19.457v1.853h3.577L21.486,35.83a2.875,2.875,0,0,0,2.872,4.8c0,.045-.014.088-.014.134A1.855,1.855,0,0,0,26.2,42.62Zm7.137-6.486H33.117l3.912-14.476,3.178,1.059Zm-7.108-5.672a2.762,2.762,0,0,1,1.966-.813H32.95l-.756,2.8a4.589,4.589,0,0,0-3.1,1.34l-4.824,4.824a1.039,1.039,0,0,1-1.774-.734,1.032,1.032,0,0,1,.3-.735Zm.927,4.633a2.75,2.75,0,0,1,1.272-.716L31.2,36.134H29.361Zm12.422-22.05-1.135,4.2-3.178-1.059,1.064-3.935a1.531,1.531,0,0,1,1.475-1.13h.3a1.528,1.528,0,0,1,1.474,1.926Zm-4.8,4.931L41.2,19.034l-.512,1.891-3.178-1.059Zm1.143,16.306a.927.927,0,0,1,0,1.853H38.5l.5-1.853Zm0,0" fill="#f7941d"/>
      <path id="Path_5452" data-name="Path 5452" d="M56.09,80H32v9.265H56.09Zm-1.853,7.412H33.853V81.853H54.237Zm0,0" transform="translate(-28.294 -70.735)" fill="#f7941d"/>
      <path id="Path_5453" data-name="Path 5453" d="M64,112h1.853v1.853H64Zm0,0" transform="translate(-56.588 -99.029)" fill="#f7941d"/>
      <path id="Path_5454" data-name="Path 5454" d="M96,112h1.853v1.853H96Zm0,0" transform="translate(-84.882 -99.029)" fill="#f7941d"/>
      <path id="Path_5455" data-name="Path 5455" d="M128,112h1.853v1.853H128Zm0,0" transform="translate(-113.176 -99.029)" fill="#f7941d"/>
      <path id="Path_5456" data-name="Path 5456" d="M160,112h1.853v1.853H160Zm0,0" transform="translate(-141.469 -99.029)" fill="#f7941d"/>
      <path id="Path_5457" data-name="Path 5457" d="M192,112h1.853v1.853H192Zm0,0" transform="translate(-169.763 -99.029)" fill="#f7941d"/>
      <path id="Path_5458" data-name="Path 5458" d="M43.118,213.559H41.265v3.706H33.853v-7.412h5.559V208H32v11.118H43.118Zm0,0" transform="translate(-28.294 -183.91)" fill="#f7941d"/>
      <path id="Path_5459" data-name="Path 5459" d="M69.462,178.344l-8.61,8.61-1.2-1.2-1.31,1.31,2.508,2.508,9.92-9.92Zm0,0" transform="translate(-51.587 -157.689)" fill="#f7941d"/>
      <path id="Path_5460" data-name="Path 5460" d="M41.265,353.265H33.853v-7.412h5.559V344H32v11.118H43.118v-5.559H41.265Zm0,0" transform="translate(-28.294 -304.16)" fill="#f7941d"/>
      <path id="Path_5461" data-name="Path 5461" d="M59.654,321.756l-1.31,1.31,2.508,2.508,9.92-9.92-1.31-1.31-8.61,8.61Zm0,0" transform="translate(-51.587 -277.938)" fill="#f7941d"/>
      <path id="Path_5462" data-name="Path 5462" d="M256,440h1.853v1.853H256Zm0,0" transform="translate(-226.351 -389.041)" fill="#f7941d"/>
      <path id="Path_5463" data-name="Path 5463" d="M152,440h10.192v1.853H152Zm0,0" transform="translate(-134.396 -389.041)" fill="#f7941d"/>
      <path id="Path_5464" data-name="Path 5464" d="M168,216h12.045v1.853H168Zm0,0" transform="translate(-148.543 -190.984)" fill="#f7941d"/>
    </g>
  </g>
</svg>
