<svg xmlns="http://www.w3.org/2000/svg" width="73.783" height="66" viewBox="0 0 73.783 66">
  <g id="turkey" transform="translate(0 -23.851)">
    <path id="Path_5366" data-name="Path 5366" d="M94.763,101.322H28.194A1.192,1.192,0,0,1,27,100.127V57.345a1.192,1.192,0,0,1,1.194-1.194H94.749a1.192,1.192,0,0,1,1.194,1.194v42.782A1.18,1.18,0,0,1,94.763,101.322Z" transform="translate(-23.161 -27.708)" fill="none" stroke="#363636" stroke-width="2"/>
    <g id="Group_683" data-name="Group 683" transform="translate(12.842 39.143)">
      <path id="Path_5367" data-name="Path 5367" d="M247.313,185.852l1.863,2.431,2.915-.981a.177.177,0,0,1,.2.27L250.54,190.1l1.82,2.46a.184.184,0,0,1-.2.284l-2.943-.882-1.763,2.517a.181.181,0,0,1-.327-.1l-.071-3.071-2.929-.924a.178.178,0,0,1,0-.341l2.9-1.024L247,185.952A.176.176,0,0,1,247.313,185.852Z" transform="translate(-222.15 -178.054)" fill="#363636"/>
      <path id="Path_5368" data-name="Path 5368" d="M105.179,152.8a9.512,9.512,0,1,1,0-19.024,9.321,9.321,0,0,1,5.261,1.621.228.228,0,0,0,.3-.341,11.822,11.822,0,0,0-8.943-3.64,11.889,11.889,0,1,0,8.957,20.118.228.228,0,0,0-.3-.341A9.431,9.431,0,0,1,105.179,152.8Z" transform="translate(-90.325 -131.406)" fill="#363636"/>
    </g>
    <path id="Path_5369" data-name="Path 5369" d="M2.716,89.851h0A2.725,2.725,0,0,1,0,87.135V26.552a2.7,2.7,0,0,1,2.7-2.7H2.73a2.715,2.715,0,0,1,2.716,2.716V87.135A2.737,2.737,0,0,1,2.716,89.851Z" fill="#363636"/>
  </g>
</svg>
