<svg xmlns="http://www.w3.org/2000/svg" width="66.014" height="66" viewBox="0 0 66.014 66">
  <g id="world" transform="translate(0 -0.05)">
    <g id="Group_684" data-name="Group 684" transform="translate(0 0.05)">
      <path id="Path_5370" data-name="Path 5370" d="M33.019.05A33,33,0,0,0,2.677,20.061l-.411.136.16.479A33,33,0,1,0,33.019.05ZM58.9,49.688l-1.695-1.693V44.05a1.1,1.1,0,0,0-.11-.492l-4.29-8.568V30.85a1.1,1.1,0,0,0-.49-.915l-3.3-2.2a1.1,1.1,0,0,0-.88-.152L44.1,28.593,37.31,25.68l-.934-6.543,2.588-2.587H44.52l1.87,2.811a1.1,1.1,0,0,0,.735.474l6.6,1.1a1.091,1.091,0,0,0,.528-.042l6.079-2.026A30.69,30.69,0,0,1,58.9,49.688Zm-4.537-38.8-1.789,1.192-4.986-1-3.235-1.077a1.08,1.08,0,0,0-.614-.024L39.653,11l-1.793-.6L39.189,7.75h3.72a1.1,1.1,0,0,0,.492-.115l3.806-1.9A30.913,30.913,0,0,1,54.366,10.889ZM20.961,4.706l2.64,1.76a1.1,1.1,0,0,0,.43.169l5.331.889-.52,1.557-2.778.927a1.1,1.1,0,0,0-.6.476l-3.159,5.265-5.074,3.045-7.48,1.068a1.1,1.1,0,0,0-.946,1.088v3.3a1.1,1.1,0,0,0,.322.778l1.878,1.878V28.8L6.433,25.744l-1.66-4.98A30.977,30.977,0,0,1,20.961,4.706ZM17.829,40.772l-4.972-1L11.009,36.09V33.505l4.1-4.1,1.517,3.035a1.1,1.1,0,0,0,.985.608h7.077l2.98,4.967a1.1,1.1,0,0,0,.943.534h3.058l-.77,3.858-4.165,4.165a1.1,1.1,0,0,0-.323.778V50.1l-3.96,2.97a1.1,1.1,0,0,0-.44.88v3.973L20.64,57.47l-1.932-4.831V41.85A1.1,1.1,0,0,0,17.829,40.772Zm-3.307,16.91A30.792,30.792,0,0,1,3.552,24.056L4.466,26.8a1.1,1.1,0,0,0,.432.568l5.484,3.655L9.131,32.272a1.1,1.1,0,0,0-.322.778v3.3a1.1,1.1,0,0,0,.115.492l2.2,4.4a1.1,1.1,0,0,0,.77.586l4.62.923v10.1a1.1,1.1,0,0,0,.078.408l2.2,5.5a1.1,1.1,0,0,0,.674.635l3.3,1.1a1.081,1.081,0,0,0,.342.057,1.1,1.1,0,0,0,1.1-1.1V54.5l3.96-2.97a1.1,1.1,0,0,0,.44-.88V47.805l4.078-4.078a1.1,1.1,0,0,0,.3-.562l1.1-5.5a1.1,1.1,0,0,0-1.078-1.316H29.231l-2.98-4.967a1.1,1.1,0,0,0-.943-.534h-7.02L16.4,27.058a1.1,1.1,0,0,0-.809-.594,1.078,1.078,0,0,0-.954.308l-1.428,1.422V26.45a1.1,1.1,0,0,0-.322-.778l-1.878-1.878V21.9l6.756-.965a1.105,1.105,0,0,0,.41-.146l5.5-3.3a1.1,1.1,0,0,0,.376-.376l3.091-5.151,2.914-.972a1.089,1.089,0,0,0,.7-.7l1.1-3.3a1.1,1.1,0,0,0-.862-1.43L24.622,4.506,23.5,3.76a30.715,30.715,0,0,1,21.155.787l-2.01,1h-4.14a1.1,1.1,0,0,0-.99.608l-2.2,4.4a1.1,1.1,0,0,0,.637,1.535l3.3,1.1a1.08,1.08,0,0,0,.614.024l4.09-1.022,3,1a.809.809,0,0,0,.132.035l5.5,1.1a1.092,1.092,0,0,0,.826-.163l2.5-1.67a31.033,31.033,0,0,1,3.309,4.421l-5.412,1.8-5.86-.977-1.936-2.9a1.1,1.1,0,0,0-.91-.49h-6.6a1.1,1.1,0,0,0-.778.322l-3.3,3.3a1.1,1.1,0,0,0-.311.934l1.1,7.7a1.1,1.1,0,0,0,.66.855l7.7,3.3a1.087,1.087,0,0,0,.7.056l3.928-.982,2.4,1.6V35.25a1.1,1.1,0,0,0,.11.492l4.29,8.568v4.14a1.1,1.1,0,0,0,.322.778l2.3,2.3A30.792,30.792,0,0,1,14.522,57.682Z" transform="translate(0 -0.05)" fill="#363636"/>
    </g>
  </g>
</svg>
