<svg id="Слой_1" data-name="Слой 1" xmlns="http://www.w3.org/2000/svg" xmlns:xlink="http://www.w3.org/1999/xlink" width="109.167" height="187.781" viewBox="0 0 109.167 187.781">
  <defs>
    <linearGradient id="linear-gradient" y1="0.5" x2="1" y2="0.5" gradientUnits="objectBoundingBox">
      <stop offset="0" stop-color="#5c5a56"/>
      <stop offset="1" stop-color="#42413e"/>
    </linearGradient>
    <linearGradient id="linear-gradient-2" x1="0.5" y1="2.595" x2="0.5" y2="-0.42" gradientUnits="objectBoundingBox">
      <stop offset="0.01" stop-color="#425499"/>
      <stop offset="1" stop-color="#8379b8"/>
    </linearGradient>
    <linearGradient id="linear-gradient-3" x1="0.5" y1="-3.018" x2="0.5" y2="3.493" xlink:href="#linear-gradient"/>
  </defs>
  <g id="Group_550" data-name="Group 550">
    <rect id="Rectangle_855" data-name="Rectangle 855" width="1.817" height="50.907" transform="translate(95.007 132.547)" fill="#cf925b"/>
    <path id="Path_3030" data-name="Path 3030" d="M1700.59,1531.38h23.561v6.23H1700.59a1.72,1.72,0,0,1-1.72-1.72v-2.8A1.72,1.72,0,0,1,1700.59,1531.38Z" transform="translate(-1623.408 -1424.94)" fill="#ffd970"/>
    <path id="Path_3031" data-name="Path 3031" d="M1760.251,1531.985v4.946h.413v.642H1743.59a1.72,1.72,0,0,1-1.72-1.72v-2.8a1.72,1.72,0,0,1,1.72-1.72h17.073v.642Z" transform="translate(-1655.45 -1424.902)" fill="#ffb471"/>
    <path id="Path_3032" data-name="Path 3032" d="M1748.51,1533.9h15.415v4.946h-15.4a1.72,1.72,0,0,1-1.72-1.72v-1.509A1.72,1.72,0,0,1,1748.51,1533.9Z" transform="translate(-1659.124 -1426.818)" fill="#ffe1c4"/>
    <path id="Path_3033" data-name="Path 3033" d="M1694.861,1503h25.794v7.245h-25.794a2.161,2.161,0,0,1-2.161-2.161v-2.925A2.161,2.161,0,0,1,1694.861,1503Z" transform="translate(-1618.81 -1403.792)" fill="#ffd970"/>
    <path id="Path_3034" data-name="Path 3034" d="M1774.052,1503.7v5.754h.357v.747h-14.028a2.161,2.161,0,0,1-2.161-2.161v-2.925a2.161,2.161,0,0,1,2.161-2.161h14.028v.747Z" transform="translate(-1667.634 -1403.755)" fill="#ffb471"/>
    <path id="Path_3035" data-name="Path 3035" d="M1764.681,1505.88h12.586v5.754h-12.586a2.161,2.161,0,0,1-2.161-2.161v-1.432A2.161,2.161,0,0,1,1764.681,1505.88Z" transform="translate(-1670.838 -1405.938)" fill="#ffe1c4"/>
    <path id="Path_3036" data-name="Path 3036" d="M2.337,0h19.6V8.881H2.337A2.337,2.337,0,0,1,0,6.544V2.337A2.337,2.337,0,0,1,2.337,0Z" transform="translate(105.201 99.196) rotate(180)" fill="#ffd970"/>
    <path id="Path_3037" data-name="Path 3037" d="M1714.639,1469.012v7.054h-.359v.915h13.977a2.337,2.337,0,0,0,2.337-2.337v-4.207a2.337,2.337,0,0,0-2.337-2.337H1714.28v.915Z" transform="translate(-1634.891 -1377.785)" fill="#ffb471"/>
    <path id="Path_3038" data-name="Path 3038" d="M2.324,0H14.683V7.054H2.324A2.324,2.324,0,0,1,0,4.73V2.324A2.324,2.324,0,0,1,2.324,0Z" transform="translate(94.434 98.281) rotate(180)" fill="#ffe1c4"/>
    <path id="Path_3039" data-name="Path 3039" d="M1698.327,1433.23h20.786v8.881h-20.786a2.457,2.457,0,0,1-2.457-2.457v-3.965a2.456,2.456,0,0,1,2.457-2.459Z" transform="translate(-1621.172 -1351.801)" fill="#ffd970"/>
    <path id="Path_3040" data-name="Path 3040" d="M1752.26,1434.152v7.054h.38v.915h-14.823a2.457,2.457,0,0,1-2.457-2.457V1435.7a2.459,2.459,0,0,1,2.457-2.456h14.826v.915Z" transform="translate(-1650.599 -1351.808)" fill="#ffb471"/>
    <path id="Path_3041" data-name="Path 3041" d="M1742.839,1436.82h13.167v7.054h-13.167a2.449,2.449,0,0,1-2.449-2.449v-2.158a2.446,2.446,0,0,1,2.449-2.446Z" transform="translate(-1654.347 -1354.476)" fill="#ffe1c4"/>
    <path id="Path_3042" data-name="Path 3042" d="M1720.389,1406.85h21.719v6.722h-21.719a1.529,1.529,0,0,1-1.529-1.529v-3.67A1.529,1.529,0,0,1,1720.389,1406.85Z" transform="translate(-1638.304 -1332.143)" fill="#ffd970"/>
    <path id="Path_3043" data-name="Path 3043" d="M1775.248,1407.518v5.339h.38v.691h-15.759a1.529,1.529,0,0,1-1.529-1.529v-3.67a1.529,1.529,0,0,1,1.529-1.529h15.759v.691Z" transform="translate(-1667.723 -1332.121)" fill="#ffb471"/>
    <path id="Path_3044" data-name="Path 3044" d="M1764.419,1409.56h14.219v5.339h-14.219a1.529,1.529,0,0,1-1.529-1.529v-2.293A1.529,1.529,0,0,1,1764.419,1409.56Z" transform="translate(-1671.114 -1334.163)" fill="#ffe1c4"/>
    <rect id="Rectangle_860" data-name="Rectangle 860" width="100.122" height="38.196" transform="translate(5.644 128.74)" fill="url(#linear-gradient)"/>
    <rect id="Rectangle_861" data-name="Rectangle 861" width="91.641" height="24.267" transform="translate(9.885 123.572)" fill="url(#linear-gradient-2)"/>
    <rect id="Rectangle_862" data-name="Rectangle 862" width="20.842" height="5.856" transform="translate(105.766 166.936) rotate(90)" fill="url(#linear-gradient-3)"/>
    <rect id="Rectangle_863" data-name="Rectangle 863" width="20.842" height="5.856" transform="translate(11.498 166.939) rotate(90)" fill="url(#linear-gradient-3)"/>
    <path id="Path_3062" data-name="Path 3062" d="M1190.082,1048.362s-1.909-3.326-2.184-3.843-.11-2.143.255-4a11.013,11.013,0,0,1,1.962-4.332,1.6,1.6,0,0,1,1.361-.217,3.168,3.168,0,0,1,1.409.764,1.935,1.935,0,0,1,1.784.535,1.677,1.677,0,0,1,1.672.831,1.405,1.405,0,0,1,1.42.622,12.61,12.61,0,0,0-.051,2.253c.115.622-.831,4.819-1.878,7.963C1195.818,1048.961,1194.193,1050.771,1190.082,1048.362Z" transform="translate(-1108.504 -1035.857)" fill="#eea886"/>
    <path id="Path_3063" data-name="Path 3063" d="M1203.23,1061.742a9.608,9.608,0,0,1,1.8,1.707c.273.545,3.8-1.985,3.8-1.985S1204.7,1059.912,1203.23,1061.742Z" transform="translate(-1120.031 -1054.437)" fill="#cf8c6c"/>
    <path id="Path_3064" data-name="Path 3064" d="M1195.469,1036.515s-.782,4.714-.038,4.933a1.216,1.216,0,0,0,1.152-.15l.558,2.087a1.242,1.242,0,0,0,2.092-.42s.961,1.208,1.687-.441c0,0,.989.51,1.46-.191a16,16,0,0,0,.856-3.764s-.209-.68-1.419-.622a1.649,1.649,0,0,0-1.672-.831,1.814,1.814,0,0,0-1.784-.535s-1.371-1.567-2.767-.555A3.72,3.72,0,0,0,1195.469,1036.515Z" transform="translate(-1113.98 -1035.685)" fill="#db9c7c"/>
    <path id="Path_3065" data-name="Path 3065" d="M1188.33,1057.857a16.231,16.231,0,0,1,3.652-3.6c.385-.219.8-.362,1.144-.087s.4,1.126-.395,2.311a12.1,12.1,0,0,0-1.274,3.076S1190.3,1060.53,1188.33,1057.857Z" transform="translate(-1108.928 -1049.344)" fill="#eea886"/>
    <path id="Path_3066" data-name="Path 3066" d="M886.411,1058.732s1.1-3.675,1.244-4.243-.385-2.112-1.154-3.822a10.825,10.825,0,0,0-2.9-3.754,1.65,1.65,0,0,0-1.374.1,3.167,3.167,0,0,0-1.2,1.075,1.917,1.917,0,0,0-1.613.93,1.68,1.68,0,0,0-1.437,1.193s-1.042.079-1.241.93a12.586,12.586,0,0,1,.566,2.181c.031.632,1.914,4.5,3.654,7.321C880.965,1060.633,882.963,1062.019,886.411,1058.732Z" transform="translate(-876.74 -1043.974)" fill="#eea886"/>
    <path id="Path_3067" data-name="Path 3067" d="M887.695,1073.87a9.452,9.452,0,0,0-1.363,2.074c-.135.591-4.151-1.06-4.151-1.06S885.85,1072.425,887.695,1073.87Z" transform="translate(-880.794 -1063.8)" fill="#cf8c6c"/>
    <path id="Path_3068" data-name="Path 3068" d="M883.819,1047.188s1.842,4.408,1.17,4.793a1.215,1.215,0,0,1-1.154.117l-.064,2.159a1.241,1.241,0,0,1-2.133.069s-.657,1.394-1.743-.043c0,0-.844.726-1.465.15a15.833,15.833,0,0,1-1.689-3.463s.048-.711,1.241-.93a1.649,1.649,0,0,1,1.437-1.193,1.815,1.815,0,0,1,1.613-.93s.976-1.84,2.566-1.177C883.6,1046.744,883.743,1047,883.819,1047.188Z" transform="translate(-876.74 -1043.815)" fill="#db9c7c"/>
    <path id="Path_3069" data-name="Path 3069" d="M902.921,1068.311a16.252,16.252,0,0,0-4.38-2.67c-.423-.125-.859-.171-1.134.178s-.125,1.188.912,2.158a12.027,12.027,0,0,1,1.937,2.7S901.616,1071.366,902.921,1068.311Z" transform="translate(-892.05 -1057.938)" fill="#eea886"/>
    <path id="Path_3070" data-name="Path 3070" d="M1061.249,1212.127s-10.672,7.306-10.147,2.844a29.2,29.2,0,0,0-.622-9.09s10.6-4.6,10.114-1.274a13.577,13.577,0,0,0-.107,2.388,23.111,23.111,0,0,0,.255,2.666C1060.971,1211.094,1061.249,1212.127,1061.249,1212.127Z" transform="translate(-1006.206 -1160.66)" fill="#eea886"/>
    <path id="Path_3071" data-name="Path 3071" d="M882.19,1086.275l8.835-2.9s5.807,11.962,6.781,14.851a118.593,118.593,0,0,0,5.606,11.516c.989,1.784,10.5,15.486,12.306,15.486,1.124,0,4.268-1.154,6.809-2.176,1.529-.619,2.854-1.19,3.374-1.43,1.379-.637,8.893-2.663,11.508-2.393,0,0,.622.084,1.567.178,2.161.211,6.014.461,7.981-.178,2.829-.92,4.314-3.183,6.011-5.02s7.283-8.3,7.708-9.64.724-13.276.884-16.645c.163-3.415.061-7.135,0-7.551s9.755-.446,9.615.765-.064,10.991-.51,15.746c-.4,4.212-1.07,8.636-1.848,10.547s-9.052,14.357-10.043,16.62-5.03,8.063-5.379,8.919-1.5,10.313-2.548,13.07-.054,21.581.372,24.624a26.14,26.14,0,0,0,1.656,5.9,283.792,283.792,0,0,1-33.428,4.918s1.083-7.971.872-11.014-3.9-22.083-5.453-25.052-15.84-23.9-16.406-24.751-5.193-6.549-6.205-8.723C892.23,1111.918,882.521,1087.982,882.19,1086.275Z" transform="translate(-880.801 -1068.79)" fill="#323657"/>
    <path id="Path_3072" data-name="Path 3072" d="M1064.995,1220.135c-6.417,1.185-8.815-2.548-8.815-2.548,4.169,2.821,8.506-.087,8.552-.117A23.06,23.06,0,0,0,1064.995,1220.135Z" transform="translate(-1010.454 -1171.146)" fill="#a77860"/>
    <path id="Path_3073" data-name="Path 3073" d="M1046.31,1439.787c-.255,1.784-10.975,9.291-13.085,10.792a22.765,22.765,0,0,1-5.729,2.719h0c-5.82,1.529-42.337,12.428-42.337,12.428a4.612,4.612,0,0,0-.362-1.111c-1.363.543-2.765.895-3.657,1.175-1.361.426-12.15.765-14.36,1.19s-6.625,1.1-8.409-.594,1.1-5.351,3.568-6.289,11.467-1.19,13.085-1.358,3.738-.764,4.758-.426a12.214,12.214,0,0,0,3.545-.933c-.043-.663-.056-1.078-.056-1.078l9.589-2.765-1.784-16.977s4.172-15.72,20.84-3.728c0,0,3.718,1.093,4.992,1.435a1.4,1.4,0,0,0,.426,0c2.548-.191,13.468-3.5,17.417-3.5,4.248,0,5.606-.255,7.135.51S1046.565,1438,1046.31,1439.787Z" transform="translate(-937.157 -1328.268)" fill="#e55353"/>
    <path id="Path_3074" data-name="Path 3074" d="M980.861,1467.617c-1.784,1.7-6.2,1.019-8.409.594s-13-.764-14.359-1.19a22.134,22.134,0,0,1-5.693-2.209,5.748,5.748,0,0,0-.953-.418h0l-2.7,1.947L911.221,1454.4A13.447,13.447,0,0,1,906,1451.81c-1.955-1.7-12.831-9.008-13.085-10.792s2.887-7.721,4.416-8.486,2.89-.51,7.135-.51,16.564,3.822,17.838,3.484a18.472,18.472,0,0,0,2.915-1.386c1.363-.744,2.635-1.5,2.635-1.5,18.251-8.154,20.279,5.183,20.279,5.183l-1.081,16.457s1.529.764,3.5,1.695l9.046,2.548-1.185.854a2.328,2.328,0,0,0,1.019.191c1.019-.339,3.145.255,4.758.426s10.621.426,13.085,1.358S982.645,1465.915,980.861,1467.617Z" transform="translate(-888.784 -1329.502)" fill="#e55353"/>
    <path id="Path_3075" data-name="Path 3075" d="M1011.245,1446.19c1.259.089,9.762,5.012,11.781,6.192-3.058-1.6-14.7-4.8-14.7-4.8A19.455,19.455,0,0,0,1011.245,1446.19Z" transform="translate(-974.797 -1341.582)" fill="#ad3f3f"/>
    <path id="Path_3076" data-name="Path 3076" d="M1140.708,1447.052s-14.65,3.555-17.328,5.043c.122-.089,7.719-5.861,11.709-6.626,0,0,3.919,1.236,5.193,1.577a1.413,1.413,0,0,0,.426,0Z" transform="translate(-1060.529 -1341.045)" fill="#ad3f3f"/>
    <path id="Path_3077" data-name="Path 3077" d="M1152.055,1553.536c-1.784,1.7-6.2,1.019-8.409.594s-13-.765-14.359-1.19c-.39-.122-.879-.255-1.422-.418h0a16.465,16.465,0,0,1-4.271-1.784,5.746,5.746,0,0,0-.953-.418l6.791-4.9.194-.14a2.327,2.327,0,0,0,1.019.191c1.019-.339,3.145.255,4.758.426s10.621.426,13.085,1.358S1153.838,1551.834,1152.055,1553.536Z" transform="translate(-1059.978 -1415.421)" fill="#292929"/>
    <path id="Path_3078" data-name="Path 3078" d="M1167.331,1553.514c-1.784,1.7-6.2,1.019-8.409.594s-13-.765-14.36-1.19c-.39-.122-.879-.255-1.422-.418h0a7.177,7.177,0,0,0,1.567-7.11l.194-.14a2.326,2.326,0,0,0,1.019.191c1.019-.339,3.145.255,4.758.426s10.621.426,13.085,1.358S1169.115,1551.812,1167.331,1553.514Z" transform="translate(-1075.254 -1415.399)" fill="#292929"/>
    <path id="Path_3079" data-name="Path 3079" d="M1034.012,1460.91c.02.046.015.079-.013.1C1033.829,1461.137,1033.857,1461.083,1034.012,1460.91Z" transform="translate(-993.839 -1352.551)" fill="#e55353"/>
    <path id="Path_3080" data-name="Path 3080" d="M982.495,1475.871s-11.867-7.112-17.05-8.231c-4.9-1.057-6.684-2.89-6.684-2.89s7.79,0,12.973,3.682C975.25,1470.929,982.495,1475.871,982.495,1475.871Z" transform="translate(-937.859 -1355.412)" fill="#ad3f3f"/>
    <path id="Path_3081" data-name="Path 3081" d="M1093.27,1480.82s20.641-10.838,29.071-13.19c4.826-1.345,6.684-2.89,6.684-2.89s-12.762,1.246-20.521,5.92C1104.8,1472.889,1093.27,1480.82,1093.27,1480.82Z" transform="translate(-1038.092 -1355.405)" fill="#ad3f3f"/>
    <path id="Path_3082" data-name="Path 3082" d="M984.777,1549.574c-1.363.543-2.765.894-3.657,1.175-1.361.425-12.15.764-14.36,1.19s-6.626,1.1-8.409-.594,1.1-5.351,3.568-6.289,11.467-1.19,13.085-1.358,3.738-.765,4.758-.426a12.216,12.216,0,0,0,3.545-.933C983.36,1543.418,984.777,1549.574,984.777,1549.574Z" transform="translate(-937.142 -1413.23)" fill="#292929"/>
    <path id="Path_3083" data-name="Path 3083" d="M1093.27,1545.559l20.292-6-4.014-1.226S1093.334,1544.209,1093.27,1545.559Z" transform="translate(-1038.092 -1410.242)" fill="#e55353"/>
    <path id="Path_3084" data-name="Path 3084" d="M1093.27,1558.235l9.495-2.9-6.585,3.823Z" transform="translate(-1038.092 -1422.917)" fill="#ad3f3f"/>
    <path id="Path_3085" data-name="Path 3085" d="M1066.418,1470.725l-.428-.255A4.125,4.125,0,0,1,1066.418,1470.725Z" transform="translate(-1017.764 -1359.675)" fill="#525252"/>
    <path id="Path_3086" data-name="Path 3086" d="M981.12,1553.177c-1.361.426-12.15.765-14.36,1.19s-6.625,1.1-8.409-.594,1.1-5.351,3.568-6.289,11.467-1.19,13.085-1.358,3.738-.765,4.758-.426A5.6,5.6,0,0,0,981.12,1553.177Z" transform="translate(-937.142 -1415.658)" fill="#292929"/>
    <path id="Path_3087" data-name="Path 3087" d="M1034.663,1126.988s10.287-3.631,10.764,9.09c.484,12.907-1.753,14.683-5.1,15.3-4.2.782-8.774-.477-12.436-10.083C1024.4,1132.145,1028.185,1127.744,1034.663,1126.988Z" transform="translate(-988.386 -1103.364)" fill="#eea886"/>
    <path id="Path_3088" data-name="Path 3088" d="M1027.423,1137.654s-.915-1.949-.082-2.467a1.111,1.111,0,0,1,1.567.255l1.019-.168s-2.023-3.272,1.159-3.965,9.984-1.3,11.7-2.574c0,0,.591,2.454.655,3.01s.466-.133.466-.133.612-9.2-5.316-12.3-12.385.591-13.442,4.1S1023.832,1130.4,1027.423,1137.654Z" transform="translate(-986.816 -1097.133)" fill="#1f2236"/>
    <path id="Path_3089" data-name="Path 3089" d="M1032.768,1174.877s-1.134-.892-1.307.043,1.924,4.9,2.467,4.928S1034.113,1175.953,1032.768,1174.877Z" transform="translate(-992.026 -1139.121)" fill="#eea886"/>
    <path id="Path_3090" data-name="Path 3090" d="M1045.85,1236.555s4.426,4.431,9.938,2.691,4.077-5.889,4.077-5.889S1055.911,1232.081,1045.85,1236.555Z" transform="translate(-1002.756 -1182.859)" fill="#c4b5ae"/>
    <path id="Path_3091" data-name="Path 3091" d="M1053.43,1231.329l6.187,2.775.242-.624.558.438,2.589-4.518Z" transform="translate(-1008.404 -1180.036)" fill="#eea886"/>
    <path id="Path_3092" data-name="Path 3092" d="M1052.059,1237s4.587,1.407,6.429,2.153l-1.323,3.822-5.576-4.21Z" transform="translate(-1007.033 -1185.699)" fill="#ead8cf"/>
    <path id="Path_3093" data-name="Path 3093" d="M1078.67,1233.487a20.638,20.638,0,0,0,3.145-4.077l1.1,1.035-1.037,5.729Z" transform="translate(-1027.213 -1180.044)" fill="#ead8cf"/>
    <path id="Path_3094" data-name="Path 3094" d="M1058.394,1412.961a52.832,52.832,0,0,0,2.658,5.532s-20.386,6.549-34.532.461a16.363,16.363,0,0,0,.6-6.8C1026.54,1409.014,1058.394,1412.961,1058.394,1412.961Z" transform="translate(-988.352 -1315.315)" fill="#323657"/>
  </g>
</svg>
